G04 #@! TF.GenerationSoftware,KiCad,Pcbnew,5.1.4-e60b266~84~ubuntu19.04.1*
G04 #@! TF.CreationDate,2019-10-21T18:10:41-05:00*
G04 #@! TF.ProjectId,433_Antenna,3433335f-416e-4746-956e-6e612e6b6963,rev?*
G04 #@! TF.SameCoordinates,Original*
G04 #@! TF.FileFunction,Soldermask,Top*
G04 #@! TF.FilePolarity,Negative*
%FSLAX46Y46*%
G04 Gerber Fmt 4.6, Leading zero omitted, Abs format (unit mm)*
G04 Created by KiCad (PCBNEW 5.1.4-e60b266~84~ubuntu19.04.1) date 2019-10-21 18:10:41*
%MOMM*%
%LPD*%
G04 APERTURE LIST*
%ADD10C,0.100000*%
G04 APERTURE END LIST*
D10*
G36*
X178731560Y-103079064D02*
G01*
X178883027Y-103109193D01*
X179097045Y-103197842D01*
X179097046Y-103197843D01*
X179289654Y-103326539D01*
X179453461Y-103490346D01*
X179539258Y-103618751D01*
X179582158Y-103682955D01*
X179670807Y-103896973D01*
X179716000Y-104124174D01*
X179716000Y-104355826D01*
X179670807Y-104583027D01*
X179582158Y-104797045D01*
X179582157Y-104797046D01*
X179453461Y-104989654D01*
X179289654Y-105153461D01*
X179161249Y-105239258D01*
X179097045Y-105282158D01*
X178883027Y-105370807D01*
X178731560Y-105400936D01*
X178655827Y-105416000D01*
X178424173Y-105416000D01*
X178348440Y-105400936D01*
X178196973Y-105370807D01*
X177982955Y-105282158D01*
X177918751Y-105239258D01*
X177790346Y-105153461D01*
X177626539Y-104989654D01*
X177497843Y-104797046D01*
X177497842Y-104797045D01*
X177409193Y-104583027D01*
X177364000Y-104355826D01*
X177364000Y-104124174D01*
X177409193Y-103896973D01*
X177497842Y-103682955D01*
X177540742Y-103618751D01*
X177626539Y-103490346D01*
X177790346Y-103326539D01*
X177982954Y-103197843D01*
X177982955Y-103197842D01*
X178196973Y-103109193D01*
X178348440Y-103079064D01*
X178424173Y-103064000D01*
X178655827Y-103064000D01*
X178731560Y-103079064D01*
X178731560Y-103079064D01*
G37*
G36*
X173651560Y-103079064D02*
G01*
X173803027Y-103109193D01*
X174017045Y-103197842D01*
X174017046Y-103197843D01*
X174209654Y-103326539D01*
X174373461Y-103490346D01*
X174459258Y-103618751D01*
X174502158Y-103682955D01*
X174590807Y-103896973D01*
X174636000Y-104124174D01*
X174636000Y-104355826D01*
X174590807Y-104583027D01*
X174502158Y-104797045D01*
X174502157Y-104797046D01*
X174373461Y-104989654D01*
X174209654Y-105153461D01*
X174081249Y-105239258D01*
X174017045Y-105282158D01*
X173803027Y-105370807D01*
X173651560Y-105400936D01*
X173575827Y-105416000D01*
X173344173Y-105416000D01*
X173268440Y-105400936D01*
X173116973Y-105370807D01*
X172902955Y-105282158D01*
X172838751Y-105239258D01*
X172710346Y-105153461D01*
X172546539Y-104989654D01*
X172417843Y-104797046D01*
X172417842Y-104797045D01*
X172329193Y-104583027D01*
X172284000Y-104355826D01*
X172284000Y-104124174D01*
X172329193Y-103896973D01*
X172417842Y-103682955D01*
X172460742Y-103618751D01*
X172546539Y-103490346D01*
X172710346Y-103326539D01*
X172902954Y-103197843D01*
X172902955Y-103197842D01*
X173116973Y-103109193D01*
X173268440Y-103079064D01*
X173344173Y-103064000D01*
X173575827Y-103064000D01*
X173651560Y-103079064D01*
X173651560Y-103079064D01*
G37*
G36*
X168381938Y-102141716D02*
G01*
X168402557Y-102147971D01*
X168421553Y-102158124D01*
X168438208Y-102171792D01*
X168451876Y-102188447D01*
X168462029Y-102207443D01*
X168468284Y-102228062D01*
X168471000Y-102255640D01*
X168471000Y-102714360D01*
X168468284Y-102741938D01*
X168462029Y-102762557D01*
X168451876Y-102781553D01*
X168438208Y-102798208D01*
X168421553Y-102811876D01*
X168402557Y-102822029D01*
X168381938Y-102828284D01*
X168354360Y-102831000D01*
X167845640Y-102831000D01*
X167818062Y-102828284D01*
X167797443Y-102822029D01*
X167778447Y-102811876D01*
X167761792Y-102798208D01*
X167748124Y-102781553D01*
X167737971Y-102762557D01*
X167731716Y-102741938D01*
X167729000Y-102714360D01*
X167729000Y-102255640D01*
X167731716Y-102228062D01*
X167737971Y-102207443D01*
X167748124Y-102188447D01*
X167761792Y-102171792D01*
X167778447Y-102158124D01*
X167797443Y-102147971D01*
X167818062Y-102141716D01*
X167845640Y-102139000D01*
X168354360Y-102139000D01*
X168381938Y-102141716D01*
X168381938Y-102141716D01*
G37*
G36*
X171481938Y-102126716D02*
G01*
X171502557Y-102132971D01*
X171521553Y-102143124D01*
X171538208Y-102156792D01*
X171551876Y-102173447D01*
X171562029Y-102192443D01*
X171568284Y-102213062D01*
X171571000Y-102240640D01*
X171571000Y-102699360D01*
X171568284Y-102726938D01*
X171562029Y-102747557D01*
X171551876Y-102766553D01*
X171538208Y-102783208D01*
X171521553Y-102796876D01*
X171502557Y-102807029D01*
X171481938Y-102813284D01*
X171454360Y-102816000D01*
X170945640Y-102816000D01*
X170918062Y-102813284D01*
X170897443Y-102807029D01*
X170878447Y-102796876D01*
X170861792Y-102783208D01*
X170848124Y-102766553D01*
X170837971Y-102747557D01*
X170831716Y-102726938D01*
X170829000Y-102699360D01*
X170829000Y-102240640D01*
X170831716Y-102213062D01*
X170837971Y-102192443D01*
X170848124Y-102173447D01*
X170861792Y-102156792D01*
X170878447Y-102143124D01*
X170897443Y-102132971D01*
X170918062Y-102126716D01*
X170945640Y-102124000D01*
X171454360Y-102124000D01*
X171481938Y-102126716D01*
X171481938Y-102126716D01*
G37*
G36*
X176175271Y-100637783D02*
G01*
X176313858Y-100665350D01*
X176509677Y-100746461D01*
X176685910Y-100864216D01*
X176835784Y-101014090D01*
X176953539Y-101190323D01*
X177034650Y-101386142D01*
X177034650Y-101386144D01*
X177076000Y-101594022D01*
X177076000Y-101805978D01*
X177065686Y-101857831D01*
X177034650Y-102013858D01*
X176953539Y-102209677D01*
X176835784Y-102385910D01*
X176685910Y-102535784D01*
X176509677Y-102653539D01*
X176313858Y-102734650D01*
X176175271Y-102762217D01*
X176105978Y-102776000D01*
X175894022Y-102776000D01*
X175824729Y-102762217D01*
X175686142Y-102734650D01*
X175490323Y-102653539D01*
X175314090Y-102535784D01*
X175164216Y-102385910D01*
X175046461Y-102209677D01*
X174965350Y-102013858D01*
X174934314Y-101857831D01*
X174924000Y-101805978D01*
X174924000Y-101594022D01*
X174965350Y-101386144D01*
X174965350Y-101386142D01*
X175046461Y-101190323D01*
X175164216Y-101014090D01*
X175314090Y-100864216D01*
X175490323Y-100746461D01*
X175686142Y-100665350D01*
X175824729Y-100637783D01*
X175894022Y-100624000D01*
X176105978Y-100624000D01*
X176175271Y-100637783D01*
X176175271Y-100637783D01*
G37*
G36*
X170341938Y-101131716D02*
G01*
X170362557Y-101137971D01*
X170381553Y-101148124D01*
X170398208Y-101161792D01*
X170411876Y-101178447D01*
X170422029Y-101197443D01*
X170428284Y-101218062D01*
X170431000Y-101245640D01*
X170431000Y-101754360D01*
X170428284Y-101781938D01*
X170422029Y-101802557D01*
X170411876Y-101821553D01*
X170398208Y-101838208D01*
X170381553Y-101851876D01*
X170362557Y-101862029D01*
X170341938Y-101868284D01*
X170314360Y-101871000D01*
X169855640Y-101871000D01*
X169828062Y-101868284D01*
X169807443Y-101862029D01*
X169788447Y-101851876D01*
X169771792Y-101838208D01*
X169758124Y-101821553D01*
X169747971Y-101802557D01*
X169741716Y-101781938D01*
X169739000Y-101754360D01*
X169739000Y-101245640D01*
X169741716Y-101218062D01*
X169747971Y-101197443D01*
X169758124Y-101178447D01*
X169771792Y-101161792D01*
X169788447Y-101148124D01*
X169807443Y-101137971D01*
X169828062Y-101131716D01*
X169855640Y-101129000D01*
X170314360Y-101129000D01*
X170341938Y-101131716D01*
X170341938Y-101131716D01*
G37*
G36*
X169371938Y-101131716D02*
G01*
X169392557Y-101137971D01*
X169411553Y-101148124D01*
X169428208Y-101161792D01*
X169441876Y-101178447D01*
X169452029Y-101197443D01*
X169458284Y-101218062D01*
X169461000Y-101245640D01*
X169461000Y-101754360D01*
X169458284Y-101781938D01*
X169452029Y-101802557D01*
X169441876Y-101821553D01*
X169428208Y-101838208D01*
X169411553Y-101851876D01*
X169392557Y-101862029D01*
X169371938Y-101868284D01*
X169344360Y-101871000D01*
X168885640Y-101871000D01*
X168858062Y-101868284D01*
X168837443Y-101862029D01*
X168818447Y-101851876D01*
X168801792Y-101838208D01*
X168788124Y-101821553D01*
X168777971Y-101802557D01*
X168771716Y-101781938D01*
X168769000Y-101754360D01*
X168769000Y-101245640D01*
X168771716Y-101218062D01*
X168777971Y-101197443D01*
X168788124Y-101178447D01*
X168801792Y-101161792D01*
X168818447Y-101148124D01*
X168837443Y-101137971D01*
X168858062Y-101131716D01*
X168885640Y-101129000D01*
X169344360Y-101129000D01*
X169371938Y-101131716D01*
X169371938Y-101131716D01*
G37*
G36*
X168381938Y-101171716D02*
G01*
X168402557Y-101177971D01*
X168421553Y-101188124D01*
X168438208Y-101201792D01*
X168451876Y-101218447D01*
X168462029Y-101237443D01*
X168468284Y-101258062D01*
X168471000Y-101285640D01*
X168471000Y-101744360D01*
X168468284Y-101771938D01*
X168462029Y-101792557D01*
X168451876Y-101811553D01*
X168438208Y-101828208D01*
X168421553Y-101841876D01*
X168402557Y-101852029D01*
X168381938Y-101858284D01*
X168354360Y-101861000D01*
X167845640Y-101861000D01*
X167818062Y-101858284D01*
X167797443Y-101852029D01*
X167778447Y-101841876D01*
X167761792Y-101828208D01*
X167748124Y-101811553D01*
X167737971Y-101792557D01*
X167731716Y-101771938D01*
X167729000Y-101744360D01*
X167729000Y-101285640D01*
X167731716Y-101258062D01*
X167737971Y-101237443D01*
X167748124Y-101218447D01*
X167761792Y-101201792D01*
X167778447Y-101188124D01*
X167797443Y-101177971D01*
X167818062Y-101171716D01*
X167845640Y-101169000D01*
X168354360Y-101169000D01*
X168381938Y-101171716D01*
X168381938Y-101171716D01*
G37*
G36*
X171481938Y-101156716D02*
G01*
X171502557Y-101162971D01*
X171521553Y-101173124D01*
X171538208Y-101186792D01*
X171551876Y-101203447D01*
X171562029Y-101222443D01*
X171568284Y-101243062D01*
X171571000Y-101270640D01*
X171571000Y-101729360D01*
X171568284Y-101756938D01*
X171562029Y-101777557D01*
X171551876Y-101796553D01*
X171538208Y-101813208D01*
X171521553Y-101826876D01*
X171502557Y-101837029D01*
X171481938Y-101843284D01*
X171454360Y-101846000D01*
X170945640Y-101846000D01*
X170918062Y-101843284D01*
X170897443Y-101837029D01*
X170878447Y-101826876D01*
X170861792Y-101813208D01*
X170848124Y-101796553D01*
X170837971Y-101777557D01*
X170831716Y-101756938D01*
X170829000Y-101729360D01*
X170829000Y-101270640D01*
X170831716Y-101243062D01*
X170837971Y-101222443D01*
X170848124Y-101203447D01*
X170861792Y-101186792D01*
X170878447Y-101173124D01*
X170897443Y-101162971D01*
X170918062Y-101156716D01*
X170945640Y-101154000D01*
X171454360Y-101154000D01*
X171481938Y-101156716D01*
X171481938Y-101156716D01*
G37*
G36*
X167451000Y-101801000D02*
G01*
X166849000Y-101801000D01*
X166849000Y-101199000D01*
X167451000Y-101199000D01*
X167451000Y-101801000D01*
X167451000Y-101801000D01*
G37*
G36*
X178731560Y-97999064D02*
G01*
X178883027Y-98029193D01*
X179097045Y-98117842D01*
X179097046Y-98117843D01*
X179289654Y-98246539D01*
X179453461Y-98410346D01*
X179539258Y-98538751D01*
X179582158Y-98602955D01*
X179670807Y-98816973D01*
X179716000Y-99044174D01*
X179716000Y-99275826D01*
X179670807Y-99503027D01*
X179582158Y-99717045D01*
X179582157Y-99717046D01*
X179453461Y-99909654D01*
X179289654Y-100073461D01*
X179161249Y-100159258D01*
X179097045Y-100202158D01*
X178883027Y-100290807D01*
X178731560Y-100320936D01*
X178655827Y-100336000D01*
X178424173Y-100336000D01*
X178348440Y-100320936D01*
X178196973Y-100290807D01*
X177982955Y-100202158D01*
X177918751Y-100159258D01*
X177790346Y-100073461D01*
X177626539Y-99909654D01*
X177497843Y-99717046D01*
X177497842Y-99717045D01*
X177409193Y-99503027D01*
X177364000Y-99275826D01*
X177364000Y-99044174D01*
X177409193Y-98816973D01*
X177497842Y-98602955D01*
X177540742Y-98538751D01*
X177626539Y-98410346D01*
X177790346Y-98246539D01*
X177982954Y-98117843D01*
X177982955Y-98117842D01*
X178196973Y-98029193D01*
X178348440Y-97999064D01*
X178424173Y-97984000D01*
X178655827Y-97984000D01*
X178731560Y-97999064D01*
X178731560Y-97999064D01*
G37*
G36*
X173651560Y-97999064D02*
G01*
X173803027Y-98029193D01*
X174017045Y-98117842D01*
X174017046Y-98117843D01*
X174209654Y-98246539D01*
X174373461Y-98410346D01*
X174459258Y-98538751D01*
X174502158Y-98602955D01*
X174590807Y-98816973D01*
X174636000Y-99044174D01*
X174636000Y-99275826D01*
X174590807Y-99503027D01*
X174502158Y-99717045D01*
X174502157Y-99717046D01*
X174373461Y-99909654D01*
X174209654Y-100073461D01*
X174081249Y-100159258D01*
X174017045Y-100202158D01*
X173803027Y-100290807D01*
X173651560Y-100320936D01*
X173575827Y-100336000D01*
X173344173Y-100336000D01*
X173268440Y-100320936D01*
X173116973Y-100290807D01*
X172902955Y-100202158D01*
X172838751Y-100159258D01*
X172710346Y-100073461D01*
X172546539Y-99909654D01*
X172417843Y-99717046D01*
X172417842Y-99717045D01*
X172329193Y-99503027D01*
X172284000Y-99275826D01*
X172284000Y-99044174D01*
X172329193Y-98816973D01*
X172417842Y-98602955D01*
X172460742Y-98538751D01*
X172546539Y-98410346D01*
X172710346Y-98246539D01*
X172902954Y-98117843D01*
X172902955Y-98117842D01*
X173116973Y-98029193D01*
X173268440Y-97999064D01*
X173344173Y-97984000D01*
X173575827Y-97984000D01*
X173651560Y-97999064D01*
X173651560Y-97999064D01*
G37*
G36*
X174051560Y-88179064D02*
G01*
X174203027Y-88209193D01*
X174417045Y-88297842D01*
X174417046Y-88297843D01*
X174609654Y-88426539D01*
X174773461Y-88590346D01*
X174859258Y-88718751D01*
X174902158Y-88782955D01*
X174990807Y-88996973D01*
X175036000Y-89224174D01*
X175036000Y-89455826D01*
X174990807Y-89683027D01*
X174902158Y-89897045D01*
X174902157Y-89897046D01*
X174773461Y-90089654D01*
X174609654Y-90253461D01*
X174481249Y-90339258D01*
X174417045Y-90382158D01*
X174203027Y-90470807D01*
X174051560Y-90500936D01*
X173975827Y-90516000D01*
X173744173Y-90516000D01*
X173668440Y-90500936D01*
X173516973Y-90470807D01*
X173302955Y-90382158D01*
X173238751Y-90339258D01*
X173110346Y-90253461D01*
X172946539Y-90089654D01*
X172817843Y-89897046D01*
X172817842Y-89897045D01*
X172729193Y-89683027D01*
X172684000Y-89455826D01*
X172684000Y-89224174D01*
X172729193Y-88996973D01*
X172817842Y-88782955D01*
X172860742Y-88718751D01*
X172946539Y-88590346D01*
X173110346Y-88426539D01*
X173302954Y-88297843D01*
X173302955Y-88297842D01*
X173516973Y-88209193D01*
X173668440Y-88179064D01*
X173744173Y-88164000D01*
X173975827Y-88164000D01*
X174051560Y-88179064D01*
X174051560Y-88179064D01*
G37*
G36*
X179131560Y-88179064D02*
G01*
X179283027Y-88209193D01*
X179497045Y-88297842D01*
X179497046Y-88297843D01*
X179689654Y-88426539D01*
X179853461Y-88590346D01*
X179939258Y-88718751D01*
X179982158Y-88782955D01*
X180070807Y-88996973D01*
X180116000Y-89224174D01*
X180116000Y-89455826D01*
X180070807Y-89683027D01*
X179982158Y-89897045D01*
X179982157Y-89897046D01*
X179853461Y-90089654D01*
X179689654Y-90253461D01*
X179561249Y-90339258D01*
X179497045Y-90382158D01*
X179283027Y-90470807D01*
X179131560Y-90500936D01*
X179055827Y-90516000D01*
X178824173Y-90516000D01*
X178748440Y-90500936D01*
X178596973Y-90470807D01*
X178382955Y-90382158D01*
X178318751Y-90339258D01*
X178190346Y-90253461D01*
X178026539Y-90089654D01*
X177897843Y-89897046D01*
X177897842Y-89897045D01*
X177809193Y-89683027D01*
X177764000Y-89455826D01*
X177764000Y-89224174D01*
X177809193Y-88996973D01*
X177897842Y-88782955D01*
X177940742Y-88718751D01*
X178026539Y-88590346D01*
X178190346Y-88426539D01*
X178382954Y-88297843D01*
X178382955Y-88297842D01*
X178596973Y-88209193D01*
X178748440Y-88179064D01*
X178824173Y-88164000D01*
X179055827Y-88164000D01*
X179131560Y-88179064D01*
X179131560Y-88179064D01*
G37*
G36*
X168881938Y-87541716D02*
G01*
X168902557Y-87547971D01*
X168921553Y-87558124D01*
X168938208Y-87571792D01*
X168951876Y-87588447D01*
X168962029Y-87607443D01*
X168968284Y-87628062D01*
X168971000Y-87655640D01*
X168971000Y-88114360D01*
X168968284Y-88141938D01*
X168962029Y-88162557D01*
X168951876Y-88181553D01*
X168938208Y-88198208D01*
X168921553Y-88211876D01*
X168902557Y-88222029D01*
X168881938Y-88228284D01*
X168854360Y-88231000D01*
X168345640Y-88231000D01*
X168318062Y-88228284D01*
X168297443Y-88222029D01*
X168278447Y-88211876D01*
X168261792Y-88198208D01*
X168248124Y-88181553D01*
X168237971Y-88162557D01*
X168231716Y-88141938D01*
X168229000Y-88114360D01*
X168229000Y-87655640D01*
X168231716Y-87628062D01*
X168237971Y-87607443D01*
X168248124Y-87588447D01*
X168261792Y-87571792D01*
X168278447Y-87558124D01*
X168297443Y-87547971D01*
X168318062Y-87541716D01*
X168345640Y-87539000D01*
X168854360Y-87539000D01*
X168881938Y-87541716D01*
X168881938Y-87541716D01*
G37*
G36*
X171881938Y-87541716D02*
G01*
X171902557Y-87547971D01*
X171921553Y-87558124D01*
X171938208Y-87571792D01*
X171951876Y-87588447D01*
X171962029Y-87607443D01*
X171968284Y-87628062D01*
X171971000Y-87655640D01*
X171971000Y-88114360D01*
X171968284Y-88141938D01*
X171962029Y-88162557D01*
X171951876Y-88181553D01*
X171938208Y-88198208D01*
X171921553Y-88211876D01*
X171902557Y-88222029D01*
X171881938Y-88228284D01*
X171854360Y-88231000D01*
X171345640Y-88231000D01*
X171318062Y-88228284D01*
X171297443Y-88222029D01*
X171278447Y-88211876D01*
X171261792Y-88198208D01*
X171248124Y-88181553D01*
X171237971Y-88162557D01*
X171231716Y-88141938D01*
X171229000Y-88114360D01*
X171229000Y-87655640D01*
X171231716Y-87628062D01*
X171237971Y-87607443D01*
X171248124Y-87588447D01*
X171261792Y-87571792D01*
X171278447Y-87558124D01*
X171297443Y-87547971D01*
X171318062Y-87541716D01*
X171345640Y-87539000D01*
X171854360Y-87539000D01*
X171881938Y-87541716D01*
X171881938Y-87541716D01*
G37*
G36*
X176575271Y-85737783D02*
G01*
X176713858Y-85765350D01*
X176909677Y-85846461D01*
X177085910Y-85964216D01*
X177235784Y-86114090D01*
X177353539Y-86290323D01*
X177434650Y-86486142D01*
X177462217Y-86624729D01*
X177472375Y-86675796D01*
X177476000Y-86694023D01*
X177476000Y-86905977D01*
X177434650Y-87113858D01*
X177353539Y-87309677D01*
X177235784Y-87485910D01*
X177085910Y-87635784D01*
X176909677Y-87753539D01*
X176713858Y-87834650D01*
X176575271Y-87862217D01*
X176505978Y-87876000D01*
X176294022Y-87876000D01*
X176224729Y-87862217D01*
X176086142Y-87834650D01*
X175890323Y-87753539D01*
X175714090Y-87635784D01*
X175564216Y-87485910D01*
X175446461Y-87309677D01*
X175365350Y-87113858D01*
X175324000Y-86905977D01*
X175324000Y-86694023D01*
X175327626Y-86675796D01*
X175337783Y-86624729D01*
X175365350Y-86486142D01*
X175446461Y-86290323D01*
X175564216Y-86114090D01*
X175714090Y-85964216D01*
X175890323Y-85846461D01*
X176086142Y-85765350D01*
X176224729Y-85737783D01*
X176294022Y-85724000D01*
X176505978Y-85724000D01*
X176575271Y-85737783D01*
X176575271Y-85737783D01*
G37*
G36*
X169856938Y-86531716D02*
G01*
X169877557Y-86537971D01*
X169896553Y-86548124D01*
X169913208Y-86561792D01*
X169926876Y-86578447D01*
X169937029Y-86597443D01*
X169943284Y-86618062D01*
X169946000Y-86645640D01*
X169946000Y-87154360D01*
X169943284Y-87181938D01*
X169937029Y-87202557D01*
X169926876Y-87221553D01*
X169913208Y-87238208D01*
X169896553Y-87251876D01*
X169877557Y-87262029D01*
X169856938Y-87268284D01*
X169829360Y-87271000D01*
X169370640Y-87271000D01*
X169343062Y-87268284D01*
X169322443Y-87262029D01*
X169303447Y-87251876D01*
X169286792Y-87238208D01*
X169273124Y-87221553D01*
X169262971Y-87202557D01*
X169256716Y-87181938D01*
X169254000Y-87154360D01*
X169254000Y-86645640D01*
X169256716Y-86618062D01*
X169262971Y-86597443D01*
X169273124Y-86578447D01*
X169286792Y-86561792D01*
X169303447Y-86548124D01*
X169322443Y-86537971D01*
X169343062Y-86531716D01*
X169370640Y-86529000D01*
X169829360Y-86529000D01*
X169856938Y-86531716D01*
X169856938Y-86531716D01*
G37*
G36*
X170826938Y-86531716D02*
G01*
X170847557Y-86537971D01*
X170866553Y-86548124D01*
X170883208Y-86561792D01*
X170896876Y-86578447D01*
X170907029Y-86597443D01*
X170913284Y-86618062D01*
X170916000Y-86645640D01*
X170916000Y-87154360D01*
X170913284Y-87181938D01*
X170907029Y-87202557D01*
X170896876Y-87221553D01*
X170883208Y-87238208D01*
X170866553Y-87251876D01*
X170847557Y-87262029D01*
X170826938Y-87268284D01*
X170799360Y-87271000D01*
X170340640Y-87271000D01*
X170313062Y-87268284D01*
X170292443Y-87262029D01*
X170273447Y-87251876D01*
X170256792Y-87238208D01*
X170243124Y-87221553D01*
X170232971Y-87202557D01*
X170226716Y-87181938D01*
X170224000Y-87154360D01*
X170224000Y-86645640D01*
X170226716Y-86618062D01*
X170232971Y-86597443D01*
X170243124Y-86578447D01*
X170256792Y-86561792D01*
X170273447Y-86548124D01*
X170292443Y-86537971D01*
X170313062Y-86531716D01*
X170340640Y-86529000D01*
X170799360Y-86529000D01*
X170826938Y-86531716D01*
X170826938Y-86531716D01*
G37*
G36*
X168881938Y-86571716D02*
G01*
X168902557Y-86577971D01*
X168921553Y-86588124D01*
X168938208Y-86601792D01*
X168951876Y-86618447D01*
X168962029Y-86637443D01*
X168968284Y-86658062D01*
X168971000Y-86685640D01*
X168971000Y-87144360D01*
X168968284Y-87171938D01*
X168962029Y-87192557D01*
X168951876Y-87211553D01*
X168938208Y-87228208D01*
X168921553Y-87241876D01*
X168902557Y-87252029D01*
X168881938Y-87258284D01*
X168854360Y-87261000D01*
X168345640Y-87261000D01*
X168318062Y-87258284D01*
X168297443Y-87252029D01*
X168278447Y-87241876D01*
X168261792Y-87228208D01*
X168248124Y-87211553D01*
X168237971Y-87192557D01*
X168231716Y-87171938D01*
X168229000Y-87144360D01*
X168229000Y-86685640D01*
X168231716Y-86658062D01*
X168237971Y-86637443D01*
X168248124Y-86618447D01*
X168261792Y-86601792D01*
X168278447Y-86588124D01*
X168297443Y-86577971D01*
X168318062Y-86571716D01*
X168345640Y-86569000D01*
X168854360Y-86569000D01*
X168881938Y-86571716D01*
X168881938Y-86571716D01*
G37*
G36*
X171881938Y-86571716D02*
G01*
X171902557Y-86577971D01*
X171921553Y-86588124D01*
X171938208Y-86601792D01*
X171951876Y-86618447D01*
X171962029Y-86637443D01*
X171968284Y-86658062D01*
X171971000Y-86685640D01*
X171971000Y-87144360D01*
X171968284Y-87171938D01*
X171962029Y-87192557D01*
X171951876Y-87211553D01*
X171938208Y-87228208D01*
X171921553Y-87241876D01*
X171902557Y-87252029D01*
X171881938Y-87258284D01*
X171854360Y-87261000D01*
X171345640Y-87261000D01*
X171318062Y-87258284D01*
X171297443Y-87252029D01*
X171278447Y-87241876D01*
X171261792Y-87228208D01*
X171248124Y-87211553D01*
X171237971Y-87192557D01*
X171231716Y-87171938D01*
X171229000Y-87144360D01*
X171229000Y-86685640D01*
X171231716Y-86658062D01*
X171237971Y-86637443D01*
X171248124Y-86618447D01*
X171261792Y-86601792D01*
X171278447Y-86588124D01*
X171297443Y-86577971D01*
X171318062Y-86571716D01*
X171345640Y-86569000D01*
X171854360Y-86569000D01*
X171881938Y-86571716D01*
X171881938Y-86571716D01*
G37*
G36*
X167701000Y-87151000D02*
G01*
X167099000Y-87151000D01*
X167099000Y-86549000D01*
X167701000Y-86549000D01*
X167701000Y-87151000D01*
X167701000Y-87151000D01*
G37*
G36*
X179131560Y-83099064D02*
G01*
X179283027Y-83129193D01*
X179497045Y-83217842D01*
X179497046Y-83217843D01*
X179689654Y-83346539D01*
X179853461Y-83510346D01*
X179939258Y-83638751D01*
X179982158Y-83702955D01*
X180070807Y-83916973D01*
X180116000Y-84144174D01*
X180116000Y-84375826D01*
X180070807Y-84603027D01*
X179982158Y-84817045D01*
X179982157Y-84817046D01*
X179853461Y-85009654D01*
X179689654Y-85173461D01*
X179561249Y-85259258D01*
X179497045Y-85302158D01*
X179283027Y-85390807D01*
X179131560Y-85420936D01*
X179055827Y-85436000D01*
X178824173Y-85436000D01*
X178748440Y-85420936D01*
X178596973Y-85390807D01*
X178382955Y-85302158D01*
X178318751Y-85259258D01*
X178190346Y-85173461D01*
X178026539Y-85009654D01*
X177897843Y-84817046D01*
X177897842Y-84817045D01*
X177809193Y-84603027D01*
X177764000Y-84375826D01*
X177764000Y-84144174D01*
X177809193Y-83916973D01*
X177897842Y-83702955D01*
X177940742Y-83638751D01*
X178026539Y-83510346D01*
X178190346Y-83346539D01*
X178382954Y-83217843D01*
X178382955Y-83217842D01*
X178596973Y-83129193D01*
X178748440Y-83099064D01*
X178824173Y-83084000D01*
X179055827Y-83084000D01*
X179131560Y-83099064D01*
X179131560Y-83099064D01*
G37*
G36*
X174051560Y-83099064D02*
G01*
X174203027Y-83129193D01*
X174417045Y-83217842D01*
X174417046Y-83217843D01*
X174609654Y-83346539D01*
X174773461Y-83510346D01*
X174859258Y-83638751D01*
X174902158Y-83702955D01*
X174990807Y-83916973D01*
X175036000Y-84144174D01*
X175036000Y-84375826D01*
X174990807Y-84603027D01*
X174902158Y-84817045D01*
X174902157Y-84817046D01*
X174773461Y-85009654D01*
X174609654Y-85173461D01*
X174481249Y-85259258D01*
X174417045Y-85302158D01*
X174203027Y-85390807D01*
X174051560Y-85420936D01*
X173975827Y-85436000D01*
X173744173Y-85436000D01*
X173668440Y-85420936D01*
X173516973Y-85390807D01*
X173302955Y-85302158D01*
X173238751Y-85259258D01*
X173110346Y-85173461D01*
X172946539Y-85009654D01*
X172817843Y-84817046D01*
X172817842Y-84817045D01*
X172729193Y-84603027D01*
X172684000Y-84375826D01*
X172684000Y-84144174D01*
X172729193Y-83916973D01*
X172817842Y-83702955D01*
X172860742Y-83638751D01*
X172946539Y-83510346D01*
X173110346Y-83346539D01*
X173302954Y-83217843D01*
X173302955Y-83217842D01*
X173516973Y-83129193D01*
X173668440Y-83099064D01*
X173744173Y-83084000D01*
X173975827Y-83084000D01*
X174051560Y-83099064D01*
X174051560Y-83099064D01*
G37*
G36*
X173851560Y-71709064D02*
G01*
X174003027Y-71739193D01*
X174217045Y-71827842D01*
X174217046Y-71827843D01*
X174409654Y-71956539D01*
X174573461Y-72120346D01*
X174659258Y-72248751D01*
X174702158Y-72312955D01*
X174790807Y-72526973D01*
X174836000Y-72754174D01*
X174836000Y-72985826D01*
X174790807Y-73213027D01*
X174702158Y-73427045D01*
X174702157Y-73427046D01*
X174573461Y-73619654D01*
X174409654Y-73783461D01*
X174281249Y-73869258D01*
X174217045Y-73912158D01*
X174003027Y-74000807D01*
X173851560Y-74030936D01*
X173775827Y-74046000D01*
X173544173Y-74046000D01*
X173468440Y-74030936D01*
X173316973Y-74000807D01*
X173102955Y-73912158D01*
X173038751Y-73869258D01*
X172910346Y-73783461D01*
X172746539Y-73619654D01*
X172617843Y-73427046D01*
X172617842Y-73427045D01*
X172529193Y-73213027D01*
X172484000Y-72985826D01*
X172484000Y-72754174D01*
X172529193Y-72526973D01*
X172617842Y-72312955D01*
X172660742Y-72248751D01*
X172746539Y-72120346D01*
X172910346Y-71956539D01*
X173102954Y-71827843D01*
X173102955Y-71827842D01*
X173316973Y-71739193D01*
X173468440Y-71709064D01*
X173544173Y-71694000D01*
X173775827Y-71694000D01*
X173851560Y-71709064D01*
X173851560Y-71709064D01*
G37*
G36*
X178931560Y-71709064D02*
G01*
X179083027Y-71739193D01*
X179297045Y-71827842D01*
X179297046Y-71827843D01*
X179489654Y-71956539D01*
X179653461Y-72120346D01*
X179739258Y-72248751D01*
X179782158Y-72312955D01*
X179870807Y-72526973D01*
X179916000Y-72754174D01*
X179916000Y-72985826D01*
X179870807Y-73213027D01*
X179782158Y-73427045D01*
X179782157Y-73427046D01*
X179653461Y-73619654D01*
X179489654Y-73783461D01*
X179361249Y-73869258D01*
X179297045Y-73912158D01*
X179083027Y-74000807D01*
X178931560Y-74030936D01*
X178855827Y-74046000D01*
X178624173Y-74046000D01*
X178548440Y-74030936D01*
X178396973Y-74000807D01*
X178182955Y-73912158D01*
X178118751Y-73869258D01*
X177990346Y-73783461D01*
X177826539Y-73619654D01*
X177697843Y-73427046D01*
X177697842Y-73427045D01*
X177609193Y-73213027D01*
X177564000Y-72985826D01*
X177564000Y-72754174D01*
X177609193Y-72526973D01*
X177697842Y-72312955D01*
X177740742Y-72248751D01*
X177826539Y-72120346D01*
X177990346Y-71956539D01*
X178182954Y-71827843D01*
X178182955Y-71827842D01*
X178396973Y-71739193D01*
X178548440Y-71709064D01*
X178624173Y-71694000D01*
X178855827Y-71694000D01*
X178931560Y-71709064D01*
X178931560Y-71709064D01*
G37*
G36*
X168681938Y-70971716D02*
G01*
X168702557Y-70977971D01*
X168721553Y-70988124D01*
X168738208Y-71001792D01*
X168751876Y-71018447D01*
X168762029Y-71037443D01*
X168768284Y-71058062D01*
X168771000Y-71085640D01*
X168771000Y-71544360D01*
X168768284Y-71571938D01*
X168762029Y-71592557D01*
X168751876Y-71611553D01*
X168738208Y-71628208D01*
X168721553Y-71641876D01*
X168702557Y-71652029D01*
X168681938Y-71658284D01*
X168654360Y-71661000D01*
X168145640Y-71661000D01*
X168118062Y-71658284D01*
X168097443Y-71652029D01*
X168078447Y-71641876D01*
X168061792Y-71628208D01*
X168048124Y-71611553D01*
X168037971Y-71592557D01*
X168031716Y-71571938D01*
X168029000Y-71544360D01*
X168029000Y-71085640D01*
X168031716Y-71058062D01*
X168037971Y-71037443D01*
X168048124Y-71018447D01*
X168061792Y-71001792D01*
X168078447Y-70988124D01*
X168097443Y-70977971D01*
X168118062Y-70971716D01*
X168145640Y-70969000D01*
X168654360Y-70969000D01*
X168681938Y-70971716D01*
X168681938Y-70971716D01*
G37*
G36*
X171681938Y-70971716D02*
G01*
X171702557Y-70977971D01*
X171721553Y-70988124D01*
X171738208Y-71001792D01*
X171751876Y-71018447D01*
X171762029Y-71037443D01*
X171768284Y-71058062D01*
X171771000Y-71085640D01*
X171771000Y-71544360D01*
X171768284Y-71571938D01*
X171762029Y-71592557D01*
X171751876Y-71611553D01*
X171738208Y-71628208D01*
X171721553Y-71641876D01*
X171702557Y-71652029D01*
X171681938Y-71658284D01*
X171654360Y-71661000D01*
X171145640Y-71661000D01*
X171118062Y-71658284D01*
X171097443Y-71652029D01*
X171078447Y-71641876D01*
X171061792Y-71628208D01*
X171048124Y-71611553D01*
X171037971Y-71592557D01*
X171031716Y-71571938D01*
X171029000Y-71544360D01*
X171029000Y-71085640D01*
X171031716Y-71058062D01*
X171037971Y-71037443D01*
X171048124Y-71018447D01*
X171061792Y-71001792D01*
X171078447Y-70988124D01*
X171097443Y-70977971D01*
X171118062Y-70971716D01*
X171145640Y-70969000D01*
X171654360Y-70969000D01*
X171681938Y-70971716D01*
X171681938Y-70971716D01*
G37*
G36*
X176375271Y-69267783D02*
G01*
X176513858Y-69295350D01*
X176709677Y-69376461D01*
X176885910Y-69494216D01*
X177035784Y-69644090D01*
X177153539Y-69820323D01*
X177234650Y-70016142D01*
X177276000Y-70224023D01*
X177276000Y-70435977D01*
X177234650Y-70643858D01*
X177153539Y-70839677D01*
X177035784Y-71015910D01*
X176885910Y-71165784D01*
X176709677Y-71283539D01*
X176513858Y-71364650D01*
X176375271Y-71392217D01*
X176305978Y-71406000D01*
X176094022Y-71406000D01*
X176024729Y-71392217D01*
X175886142Y-71364650D01*
X175690323Y-71283539D01*
X175514090Y-71165784D01*
X175364216Y-71015910D01*
X175246461Y-70839677D01*
X175165350Y-70643858D01*
X175124000Y-70435977D01*
X175124000Y-70224023D01*
X175165350Y-70016142D01*
X175246461Y-69820323D01*
X175364216Y-69644090D01*
X175514090Y-69494216D01*
X175690323Y-69376461D01*
X175886142Y-69295350D01*
X176024729Y-69267783D01*
X176094022Y-69254000D01*
X176305978Y-69254000D01*
X176375271Y-69267783D01*
X176375271Y-69267783D01*
G37*
G36*
X170641938Y-69961716D02*
G01*
X170662557Y-69967971D01*
X170681553Y-69978124D01*
X170698208Y-69991792D01*
X170711876Y-70008447D01*
X170722029Y-70027443D01*
X170728284Y-70048062D01*
X170731000Y-70075640D01*
X170731000Y-70584360D01*
X170728284Y-70611938D01*
X170722029Y-70632557D01*
X170711876Y-70651553D01*
X170698208Y-70668208D01*
X170681553Y-70681876D01*
X170662557Y-70692029D01*
X170641938Y-70698284D01*
X170614360Y-70701000D01*
X170155640Y-70701000D01*
X170128062Y-70698284D01*
X170107443Y-70692029D01*
X170088447Y-70681876D01*
X170071792Y-70668208D01*
X170058124Y-70651553D01*
X170047971Y-70632557D01*
X170041716Y-70611938D01*
X170039000Y-70584360D01*
X170039000Y-70075640D01*
X170041716Y-70048062D01*
X170047971Y-70027443D01*
X170058124Y-70008447D01*
X170071792Y-69991792D01*
X170088447Y-69978124D01*
X170107443Y-69967971D01*
X170128062Y-69961716D01*
X170155640Y-69959000D01*
X170614360Y-69959000D01*
X170641938Y-69961716D01*
X170641938Y-69961716D01*
G37*
G36*
X169671938Y-69961716D02*
G01*
X169692557Y-69967971D01*
X169711553Y-69978124D01*
X169728208Y-69991792D01*
X169741876Y-70008447D01*
X169752029Y-70027443D01*
X169758284Y-70048062D01*
X169761000Y-70075640D01*
X169761000Y-70584360D01*
X169758284Y-70611938D01*
X169752029Y-70632557D01*
X169741876Y-70651553D01*
X169728208Y-70668208D01*
X169711553Y-70681876D01*
X169692557Y-70692029D01*
X169671938Y-70698284D01*
X169644360Y-70701000D01*
X169185640Y-70701000D01*
X169158062Y-70698284D01*
X169137443Y-70692029D01*
X169118447Y-70681876D01*
X169101792Y-70668208D01*
X169088124Y-70651553D01*
X169077971Y-70632557D01*
X169071716Y-70611938D01*
X169069000Y-70584360D01*
X169069000Y-70075640D01*
X169071716Y-70048062D01*
X169077971Y-70027443D01*
X169088124Y-70008447D01*
X169101792Y-69991792D01*
X169118447Y-69978124D01*
X169137443Y-69967971D01*
X169158062Y-69961716D01*
X169185640Y-69959000D01*
X169644360Y-69959000D01*
X169671938Y-69961716D01*
X169671938Y-69961716D01*
G37*
G36*
X168681938Y-70001716D02*
G01*
X168702557Y-70007971D01*
X168721553Y-70018124D01*
X168738208Y-70031792D01*
X168751876Y-70048447D01*
X168762029Y-70067443D01*
X168768284Y-70088062D01*
X168771000Y-70115640D01*
X168771000Y-70574360D01*
X168768284Y-70601938D01*
X168762029Y-70622557D01*
X168751876Y-70641553D01*
X168738208Y-70658208D01*
X168721553Y-70671876D01*
X168702557Y-70682029D01*
X168681938Y-70688284D01*
X168654360Y-70691000D01*
X168145640Y-70691000D01*
X168118062Y-70688284D01*
X168097443Y-70682029D01*
X168078447Y-70671876D01*
X168061792Y-70658208D01*
X168048124Y-70641553D01*
X168037971Y-70622557D01*
X168031716Y-70601938D01*
X168029000Y-70574360D01*
X168029000Y-70115640D01*
X168031716Y-70088062D01*
X168037971Y-70067443D01*
X168048124Y-70048447D01*
X168061792Y-70031792D01*
X168078447Y-70018124D01*
X168097443Y-70007971D01*
X168118062Y-70001716D01*
X168145640Y-69999000D01*
X168654360Y-69999000D01*
X168681938Y-70001716D01*
X168681938Y-70001716D01*
G37*
G36*
X171681938Y-70001716D02*
G01*
X171702557Y-70007971D01*
X171721553Y-70018124D01*
X171738208Y-70031792D01*
X171751876Y-70048447D01*
X171762029Y-70067443D01*
X171768284Y-70088062D01*
X171771000Y-70115640D01*
X171771000Y-70574360D01*
X171768284Y-70601938D01*
X171762029Y-70622557D01*
X171751876Y-70641553D01*
X171738208Y-70658208D01*
X171721553Y-70671876D01*
X171702557Y-70682029D01*
X171681938Y-70688284D01*
X171654360Y-70691000D01*
X171145640Y-70691000D01*
X171118062Y-70688284D01*
X171097443Y-70682029D01*
X171078447Y-70671876D01*
X171061792Y-70658208D01*
X171048124Y-70641553D01*
X171037971Y-70622557D01*
X171031716Y-70601938D01*
X171029000Y-70574360D01*
X171029000Y-70115640D01*
X171031716Y-70088062D01*
X171037971Y-70067443D01*
X171048124Y-70048447D01*
X171061792Y-70031792D01*
X171078447Y-70018124D01*
X171097443Y-70007971D01*
X171118062Y-70001716D01*
X171145640Y-69999000D01*
X171654360Y-69999000D01*
X171681938Y-70001716D01*
X171681938Y-70001716D01*
G37*
G36*
X167722334Y-70607667D02*
G01*
X167120334Y-70607667D01*
X167120334Y-70005667D01*
X167722334Y-70005667D01*
X167722334Y-70607667D01*
X167722334Y-70607667D01*
G37*
G36*
X173851560Y-66629064D02*
G01*
X174003027Y-66659193D01*
X174217045Y-66747842D01*
X174217046Y-66747843D01*
X174409654Y-66876539D01*
X174573461Y-67040346D01*
X174659258Y-67168751D01*
X174702158Y-67232955D01*
X174790807Y-67446973D01*
X174836000Y-67674174D01*
X174836000Y-67905826D01*
X174790807Y-68133027D01*
X174702158Y-68347045D01*
X174702157Y-68347046D01*
X174573461Y-68539654D01*
X174409654Y-68703461D01*
X174281249Y-68789258D01*
X174217045Y-68832158D01*
X174003027Y-68920807D01*
X173851560Y-68950936D01*
X173775827Y-68966000D01*
X173544173Y-68966000D01*
X173468440Y-68950936D01*
X173316973Y-68920807D01*
X173102955Y-68832158D01*
X173038751Y-68789258D01*
X172910346Y-68703461D01*
X172746539Y-68539654D01*
X172617843Y-68347046D01*
X172617842Y-68347045D01*
X172529193Y-68133027D01*
X172484000Y-67905826D01*
X172484000Y-67674174D01*
X172529193Y-67446973D01*
X172617842Y-67232955D01*
X172660742Y-67168751D01*
X172746539Y-67040346D01*
X172910346Y-66876539D01*
X173102954Y-66747843D01*
X173102955Y-66747842D01*
X173316973Y-66659193D01*
X173468440Y-66629064D01*
X173544173Y-66614000D01*
X173775827Y-66614000D01*
X173851560Y-66629064D01*
X173851560Y-66629064D01*
G37*
G36*
X178931560Y-66629064D02*
G01*
X179083027Y-66659193D01*
X179297045Y-66747842D01*
X179297046Y-66747843D01*
X179489654Y-66876539D01*
X179653461Y-67040346D01*
X179739258Y-67168751D01*
X179782158Y-67232955D01*
X179870807Y-67446973D01*
X179916000Y-67674174D01*
X179916000Y-67905826D01*
X179870807Y-68133027D01*
X179782158Y-68347045D01*
X179782157Y-68347046D01*
X179653461Y-68539654D01*
X179489654Y-68703461D01*
X179361249Y-68789258D01*
X179297045Y-68832158D01*
X179083027Y-68920807D01*
X178931560Y-68950936D01*
X178855827Y-68966000D01*
X178624173Y-68966000D01*
X178548440Y-68950936D01*
X178396973Y-68920807D01*
X178182955Y-68832158D01*
X178118751Y-68789258D01*
X177990346Y-68703461D01*
X177826539Y-68539654D01*
X177697843Y-68347046D01*
X177697842Y-68347045D01*
X177609193Y-68133027D01*
X177564000Y-67905826D01*
X177564000Y-67674174D01*
X177609193Y-67446973D01*
X177697842Y-67232955D01*
X177740742Y-67168751D01*
X177826539Y-67040346D01*
X177990346Y-66876539D01*
X178182954Y-66747843D01*
X178182955Y-66747842D01*
X178396973Y-66659193D01*
X178548440Y-66629064D01*
X178624173Y-66614000D01*
X178855827Y-66614000D01*
X178931560Y-66629064D01*
X178931560Y-66629064D01*
G37*
M02*
