G04 #@! TF.GenerationSoftware,KiCad,Pcbnew,5.1.4-e60b266~84~ubuntu19.04.1*
G04 #@! TF.CreationDate,2019-10-21T18:10:41-05:00*
G04 #@! TF.ProjectId,433_Antenna,3433335f-416e-4746-956e-6e612e6b6963,rev?*
G04 #@! TF.SameCoordinates,Original*
G04 #@! TF.FileFunction,Copper,L1,Top*
G04 #@! TF.FilePolarity,Positive*
%FSLAX46Y46*%
G04 Gerber Fmt 4.6, Leading zero omitted, Abs format (unit mm)*
G04 Created by KiCad (PCBNEW 5.1.4-e60b266~84~ubuntu19.04.1) date 2019-10-21 18:10:41*
%MOMM*%
%LPD*%
G04 APERTURE LIST*
%ADD10C,0.010000*%
%ADD11C,0.100000*%
%ADD12C,0.590000*%
%ADD13C,2.250000*%
%ADD14C,2.050000*%
%ADD15R,0.500000X0.500000*%
%ADD16C,0.640080*%
%ADD17C,0.254000*%
G04 APERTURE END LIST*
D10*
G36*
X155916975Y-67368552D02*
G01*
X156469499Y-67373864D01*
X156946466Y-67382084D01*
X157324028Y-67392697D01*
X157578337Y-67405184D01*
X157683409Y-67418059D01*
X157730968Y-67456056D01*
X157765976Y-67543195D01*
X157790266Y-67701871D01*
X157805669Y-67954479D01*
X157814015Y-68323413D01*
X157817136Y-68831070D01*
X157817334Y-69055888D01*
X157820520Y-69637897D01*
X157829334Y-70236753D01*
X157842660Y-70802152D01*
X157859383Y-71283793D01*
X157872533Y-71544496D01*
X157927733Y-72446667D01*
X158706193Y-72446667D01*
X159185257Y-72439626D01*
X159723925Y-72421065D01*
X160213682Y-72394827D01*
X160259660Y-72391655D01*
X161034667Y-72336644D01*
X161034667Y-69822000D01*
X167892667Y-69822000D01*
X167892667Y-70938952D01*
X161881283Y-70880334D01*
X161881308Y-72033527D01*
X161881334Y-73186720D01*
X159489500Y-73227420D01*
X158871531Y-73237374D01*
X158311302Y-73245322D01*
X157830393Y-73251045D01*
X157450383Y-73254322D01*
X157192852Y-73254935D01*
X157079381Y-73252663D01*
X157075970Y-73251974D01*
X157067878Y-73166618D01*
X157055670Y-72933322D01*
X157040199Y-72573407D01*
X157022316Y-72108193D01*
X157002872Y-71559002D01*
X156982719Y-70947153D01*
X156978178Y-70803178D01*
X156957722Y-70179572D01*
X156937327Y-69613290D01*
X156917910Y-69125767D01*
X156900389Y-68738441D01*
X156885684Y-68472748D01*
X156874711Y-68350125D01*
X156872875Y-68344464D01*
X156782737Y-68333486D01*
X156552222Y-68319837D01*
X156210238Y-68304835D01*
X155785694Y-68289801D01*
X155467834Y-68280323D01*
X154092000Y-68242245D01*
X154092000Y-73191962D01*
X153139500Y-73240969D01*
X152717780Y-73261084D01*
X152181967Y-73284290D01*
X151587220Y-73308324D01*
X150988694Y-73330921D01*
X150684167Y-73341701D01*
X149181334Y-73393428D01*
X149181334Y-68198823D01*
X147551500Y-68259065D01*
X147046998Y-68278226D01*
X146605680Y-68295966D01*
X146253420Y-68311166D01*
X146016093Y-68322703D01*
X145919572Y-68329457D01*
X145918662Y-68329821D01*
X145920882Y-68413684D01*
X145928619Y-68645800D01*
X145941133Y-69005202D01*
X145957683Y-69470924D01*
X145977529Y-70022002D01*
X145999928Y-70637469D01*
X146007273Y-70838000D01*
X146030221Y-71469502D01*
X146050662Y-72043417D01*
X146067879Y-72538716D01*
X146081158Y-72934371D01*
X146089782Y-73209351D01*
X146093036Y-73342629D01*
X146092845Y-73351878D01*
X146010121Y-73356911D01*
X145779344Y-73363151D01*
X145421787Y-73370224D01*
X144958720Y-73377761D01*
X144411418Y-73385389D01*
X143801153Y-73392739D01*
X143667056Y-73394211D01*
X141247310Y-73420334D01*
X141201336Y-70811403D01*
X141188959Y-70164394D01*
X141175789Y-69573794D01*
X141162438Y-69060352D01*
X141149516Y-68644818D01*
X141137634Y-68347941D01*
X141127404Y-68190470D01*
X141123572Y-68170683D01*
X141032640Y-68162957D01*
X140801160Y-68161756D01*
X140457776Y-68166722D01*
X140031132Y-68177495D01*
X139687575Y-68188679D01*
X138283369Y-68238464D01*
X138221840Y-70787065D01*
X138205999Y-71425146D01*
X138190751Y-72005629D01*
X138176707Y-72507722D01*
X138164480Y-72910635D01*
X138154685Y-73193575D01*
X138147934Y-73335753D01*
X138146323Y-73348526D01*
X138061523Y-73353948D01*
X137828925Y-73362894D01*
X137470013Y-73374695D01*
X137006269Y-73388683D01*
X136459177Y-73404189D01*
X135850221Y-73420544D01*
X135740500Y-73423402D01*
X133348667Y-73485418D01*
X133348667Y-72598658D01*
X133345625Y-72219572D01*
X133337188Y-71718557D01*
X133324390Y-71142895D01*
X133308263Y-70539869D01*
X133292917Y-70047282D01*
X133237168Y-68382667D01*
X130046667Y-68382667D01*
X130046667Y-73378000D01*
X128026484Y-73378000D01*
X127433793Y-73375779D01*
X126875945Y-73369549D01*
X126382478Y-73359965D01*
X125982931Y-73347679D01*
X125706840Y-73333343D01*
X125617965Y-73324773D01*
X125229630Y-73271546D01*
X125332236Y-68298000D01*
X124408618Y-68298508D01*
X123932151Y-68304277D01*
X123426415Y-68319316D01*
X122970828Y-68340938D01*
X122786500Y-68353390D01*
X122088000Y-68407765D01*
X122088000Y-69185898D01*
X122085232Y-69516306D01*
X122077524Y-69974829D01*
X122065767Y-70520348D01*
X122050856Y-71111746D01*
X122033682Y-71707903D01*
X122032203Y-71755682D01*
X121976405Y-73547334D01*
X116906349Y-73547334D01*
X116958210Y-72002167D01*
X116978798Y-71415899D01*
X117001909Y-70802204D01*
X117025383Y-70215728D01*
X117047060Y-69711115D01*
X117058291Y-69470653D01*
X117106510Y-68484305D01*
X115681422Y-68528379D01*
X115206994Y-68545978D01*
X114793360Y-68566874D01*
X114469464Y-68589158D01*
X114264248Y-68610921D01*
X114205654Y-68625726D01*
X114187864Y-68720845D01*
X114162671Y-68963206D01*
X114131770Y-69330960D01*
X114096854Y-69802260D01*
X114059619Y-70355259D01*
X114021759Y-70968109D01*
X114014885Y-71085214D01*
X113978109Y-71704723D01*
X113943391Y-72266679D01*
X113912168Y-72749606D01*
X113885875Y-73132030D01*
X113865948Y-73392474D01*
X113853823Y-73509464D01*
X113852504Y-73513718D01*
X113765347Y-73522200D01*
X113532022Y-73534297D01*
X113175632Y-73549104D01*
X112719284Y-73565712D01*
X112186080Y-73583217D01*
X111736107Y-73596780D01*
X109642000Y-73657552D01*
X109642000Y-72725514D01*
X110289774Y-72670757D01*
X110665912Y-72646822D01*
X111135597Y-72628195D01*
X111623065Y-72617525D01*
X111856108Y-72616000D01*
X112228907Y-72614177D01*
X112530968Y-72609238D01*
X112727356Y-72601979D01*
X112785048Y-72594834D01*
X112790980Y-72508162D01*
X112802584Y-72273874D01*
X112818911Y-71913555D01*
X112839011Y-71448792D01*
X112861935Y-70901172D01*
X112886733Y-70292281D01*
X112890881Y-70188846D01*
X112917277Y-69570214D01*
X112944406Y-69007746D01*
X112970959Y-68523381D01*
X112995628Y-68139052D01*
X113017102Y-67876698D01*
X113034073Y-67758253D01*
X113036204Y-67754198D01*
X113130384Y-67739717D01*
X113372372Y-67723070D01*
X113740672Y-67705152D01*
X114213787Y-67686862D01*
X114770219Y-67669095D01*
X115388471Y-67652748D01*
X115567606Y-67648596D01*
X118049138Y-67592821D01*
X117992064Y-69575244D01*
X117973236Y-70176953D01*
X117952314Y-70757297D01*
X117930708Y-71282960D01*
X117909831Y-71720628D01*
X117891093Y-72036986D01*
X117883889Y-72129167D01*
X117832787Y-72700667D01*
X118669227Y-72700229D01*
X119162516Y-72693505D01*
X119717789Y-72676076D01*
X120231188Y-72651386D01*
X120331167Y-72645126D01*
X121156667Y-72590461D01*
X121157403Y-70592397D01*
X121159864Y-69998693D01*
X121166356Y-69435971D01*
X121176201Y-68934947D01*
X121188724Y-68526334D01*
X121203249Y-68240849D01*
X121211117Y-68153315D01*
X121264096Y-67712296D01*
X121612548Y-67669980D01*
X121793640Y-67656678D01*
X122116028Y-67641935D01*
X122551691Y-67626664D01*
X123072608Y-67611778D01*
X123650756Y-67598188D01*
X124066367Y-67590081D01*
X126171734Y-67552498D01*
X126047194Y-72616000D01*
X127433097Y-72614844D01*
X127914179Y-72611415D01*
X128347071Y-72602691D01*
X128698387Y-72589776D01*
X128934745Y-72573776D01*
X129009500Y-72562636D01*
X129200000Y-72511584D01*
X129200000Y-67536000D01*
X131337834Y-67535068D01*
X131941230Y-67532759D01*
X132504475Y-67526760D01*
X133000322Y-67517665D01*
X133401526Y-67506066D01*
X133680842Y-67492556D01*
X133793167Y-67481657D01*
X134110667Y-67429178D01*
X134110667Y-72531334D01*
X137158667Y-72531334D01*
X137158667Y-67536000D01*
X142069334Y-67536000D01*
X142069334Y-72362000D01*
X142640834Y-72362385D01*
X142973810Y-72367764D01*
X143408951Y-72381937D01*
X143879456Y-72402481D01*
X144164834Y-72417655D01*
X145117334Y-72472539D01*
X145117334Y-67451334D01*
X150001072Y-67451334D01*
X150056869Y-69242985D01*
X150074108Y-69831218D01*
X150089184Y-70411943D01*
X150101217Y-70945783D01*
X150109327Y-71393358D01*
X150112634Y-71715289D01*
X150112667Y-71740652D01*
X150112667Y-72446667D01*
X153076000Y-72446667D01*
X153076000Y-67366667D01*
X155312742Y-67366667D01*
X155916975Y-67368552D01*
X155916975Y-67368552D01*
G37*
X155916975Y-67368552D02*
X156469499Y-67373864D01*
X156946466Y-67382084D01*
X157324028Y-67392697D01*
X157578337Y-67405184D01*
X157683409Y-67418059D01*
X157730968Y-67456056D01*
X157765976Y-67543195D01*
X157790266Y-67701871D01*
X157805669Y-67954479D01*
X157814015Y-68323413D01*
X157817136Y-68831070D01*
X157817334Y-69055888D01*
X157820520Y-69637897D01*
X157829334Y-70236753D01*
X157842660Y-70802152D01*
X157859383Y-71283793D01*
X157872533Y-71544496D01*
X157927733Y-72446667D01*
X158706193Y-72446667D01*
X159185257Y-72439626D01*
X159723925Y-72421065D01*
X160213682Y-72394827D01*
X160259660Y-72391655D01*
X161034667Y-72336644D01*
X161034667Y-69822000D01*
X167892667Y-69822000D01*
X167892667Y-70938952D01*
X161881283Y-70880334D01*
X161881308Y-72033527D01*
X161881334Y-73186720D01*
X159489500Y-73227420D01*
X158871531Y-73237374D01*
X158311302Y-73245322D01*
X157830393Y-73251045D01*
X157450383Y-73254322D01*
X157192852Y-73254935D01*
X157079381Y-73252663D01*
X157075970Y-73251974D01*
X157067878Y-73166618D01*
X157055670Y-72933322D01*
X157040199Y-72573407D01*
X157022316Y-72108193D01*
X157002872Y-71559002D01*
X156982719Y-70947153D01*
X156978178Y-70803178D01*
X156957722Y-70179572D01*
X156937327Y-69613290D01*
X156917910Y-69125767D01*
X156900389Y-68738441D01*
X156885684Y-68472748D01*
X156874711Y-68350125D01*
X156872875Y-68344464D01*
X156782737Y-68333486D01*
X156552222Y-68319837D01*
X156210238Y-68304835D01*
X155785694Y-68289801D01*
X155467834Y-68280323D01*
X154092000Y-68242245D01*
X154092000Y-73191962D01*
X153139500Y-73240969D01*
X152717780Y-73261084D01*
X152181967Y-73284290D01*
X151587220Y-73308324D01*
X150988694Y-73330921D01*
X150684167Y-73341701D01*
X149181334Y-73393428D01*
X149181334Y-68198823D01*
X147551500Y-68259065D01*
X147046998Y-68278226D01*
X146605680Y-68295966D01*
X146253420Y-68311166D01*
X146016093Y-68322703D01*
X145919572Y-68329457D01*
X145918662Y-68329821D01*
X145920882Y-68413684D01*
X145928619Y-68645800D01*
X145941133Y-69005202D01*
X145957683Y-69470924D01*
X145977529Y-70022002D01*
X145999928Y-70637469D01*
X146007273Y-70838000D01*
X146030221Y-71469502D01*
X146050662Y-72043417D01*
X146067879Y-72538716D01*
X146081158Y-72934371D01*
X146089782Y-73209351D01*
X146093036Y-73342629D01*
X146092845Y-73351878D01*
X146010121Y-73356911D01*
X145779344Y-73363151D01*
X145421787Y-73370224D01*
X144958720Y-73377761D01*
X144411418Y-73385389D01*
X143801153Y-73392739D01*
X143667056Y-73394211D01*
X141247310Y-73420334D01*
X141201336Y-70811403D01*
X141188959Y-70164394D01*
X141175789Y-69573794D01*
X141162438Y-69060352D01*
X141149516Y-68644818D01*
X141137634Y-68347941D01*
X141127404Y-68190470D01*
X141123572Y-68170683D01*
X141032640Y-68162957D01*
X140801160Y-68161756D01*
X140457776Y-68166722D01*
X140031132Y-68177495D01*
X139687575Y-68188679D01*
X138283369Y-68238464D01*
X138221840Y-70787065D01*
X138205999Y-71425146D01*
X138190751Y-72005629D01*
X138176707Y-72507722D01*
X138164480Y-72910635D01*
X138154685Y-73193575D01*
X138147934Y-73335753D01*
X138146323Y-73348526D01*
X138061523Y-73353948D01*
X137828925Y-73362894D01*
X137470013Y-73374695D01*
X137006269Y-73388683D01*
X136459177Y-73404189D01*
X135850221Y-73420544D01*
X135740500Y-73423402D01*
X133348667Y-73485418D01*
X133348667Y-72598658D01*
X133345625Y-72219572D01*
X133337188Y-71718557D01*
X133324390Y-71142895D01*
X133308263Y-70539869D01*
X133292917Y-70047282D01*
X133237168Y-68382667D01*
X130046667Y-68382667D01*
X130046667Y-73378000D01*
X128026484Y-73378000D01*
X127433793Y-73375779D01*
X126875945Y-73369549D01*
X126382478Y-73359965D01*
X125982931Y-73347679D01*
X125706840Y-73333343D01*
X125617965Y-73324773D01*
X125229630Y-73271546D01*
X125332236Y-68298000D01*
X124408618Y-68298508D01*
X123932151Y-68304277D01*
X123426415Y-68319316D01*
X122970828Y-68340938D01*
X122786500Y-68353390D01*
X122088000Y-68407765D01*
X122088000Y-69185898D01*
X122085232Y-69516306D01*
X122077524Y-69974829D01*
X122065767Y-70520348D01*
X122050856Y-71111746D01*
X122033682Y-71707903D01*
X122032203Y-71755682D01*
X121976405Y-73547334D01*
X116906349Y-73547334D01*
X116958210Y-72002167D01*
X116978798Y-71415899D01*
X117001909Y-70802204D01*
X117025383Y-70215728D01*
X117047060Y-69711115D01*
X117058291Y-69470653D01*
X117106510Y-68484305D01*
X115681422Y-68528379D01*
X115206994Y-68545978D01*
X114793360Y-68566874D01*
X114469464Y-68589158D01*
X114264248Y-68610921D01*
X114205654Y-68625726D01*
X114187864Y-68720845D01*
X114162671Y-68963206D01*
X114131770Y-69330960D01*
X114096854Y-69802260D01*
X114059619Y-70355259D01*
X114021759Y-70968109D01*
X114014885Y-71085214D01*
X113978109Y-71704723D01*
X113943391Y-72266679D01*
X113912168Y-72749606D01*
X113885875Y-73132030D01*
X113865948Y-73392474D01*
X113853823Y-73509464D01*
X113852504Y-73513718D01*
X113765347Y-73522200D01*
X113532022Y-73534297D01*
X113175632Y-73549104D01*
X112719284Y-73565712D01*
X112186080Y-73583217D01*
X111736107Y-73596780D01*
X109642000Y-73657552D01*
X109642000Y-72725514D01*
X110289774Y-72670757D01*
X110665912Y-72646822D01*
X111135597Y-72628195D01*
X111623065Y-72617525D01*
X111856108Y-72616000D01*
X112228907Y-72614177D01*
X112530968Y-72609238D01*
X112727356Y-72601979D01*
X112785048Y-72594834D01*
X112790980Y-72508162D01*
X112802584Y-72273874D01*
X112818911Y-71913555D01*
X112839011Y-71448792D01*
X112861935Y-70901172D01*
X112886733Y-70292281D01*
X112890881Y-70188846D01*
X112917277Y-69570214D01*
X112944406Y-69007746D01*
X112970959Y-68523381D01*
X112995628Y-68139052D01*
X113017102Y-67876698D01*
X113034073Y-67758253D01*
X113036204Y-67754198D01*
X113130384Y-67739717D01*
X113372372Y-67723070D01*
X113740672Y-67705152D01*
X114213787Y-67686862D01*
X114770219Y-67669095D01*
X115388471Y-67652748D01*
X115567606Y-67648596D01*
X118049138Y-67592821D01*
X117992064Y-69575244D01*
X117973236Y-70176953D01*
X117952314Y-70757297D01*
X117930708Y-71282960D01*
X117909831Y-71720628D01*
X117891093Y-72036986D01*
X117883889Y-72129167D01*
X117832787Y-72700667D01*
X118669227Y-72700229D01*
X119162516Y-72693505D01*
X119717789Y-72676076D01*
X120231188Y-72651386D01*
X120331167Y-72645126D01*
X121156667Y-72590461D01*
X121157403Y-70592397D01*
X121159864Y-69998693D01*
X121166356Y-69435971D01*
X121176201Y-68934947D01*
X121188724Y-68526334D01*
X121203249Y-68240849D01*
X121211117Y-68153315D01*
X121264096Y-67712296D01*
X121612548Y-67669980D01*
X121793640Y-67656678D01*
X122116028Y-67641935D01*
X122551691Y-67626664D01*
X123072608Y-67611778D01*
X123650756Y-67598188D01*
X124066367Y-67590081D01*
X126171734Y-67552498D01*
X126047194Y-72616000D01*
X127433097Y-72614844D01*
X127914179Y-72611415D01*
X128347071Y-72602691D01*
X128698387Y-72589776D01*
X128934745Y-72573776D01*
X129009500Y-72562636D01*
X129200000Y-72511584D01*
X129200000Y-67536000D01*
X131337834Y-67535068D01*
X131941230Y-67532759D01*
X132504475Y-67526760D01*
X133000322Y-67517665D01*
X133401526Y-67506066D01*
X133680842Y-67492556D01*
X133793167Y-67481657D01*
X134110667Y-67429178D01*
X134110667Y-72531334D01*
X137158667Y-72531334D01*
X137158667Y-67536000D01*
X142069334Y-67536000D01*
X142069334Y-72362000D01*
X142640834Y-72362385D01*
X142973810Y-72367764D01*
X143408951Y-72381937D01*
X143879456Y-72402481D01*
X144164834Y-72417655D01*
X145117334Y-72472539D01*
X145117334Y-67451334D01*
X150001072Y-67451334D01*
X150056869Y-69242985D01*
X150074108Y-69831218D01*
X150089184Y-70411943D01*
X150101217Y-70945783D01*
X150109327Y-71393358D01*
X150112634Y-71715289D01*
X150112667Y-71740652D01*
X150112667Y-72446667D01*
X153076000Y-72446667D01*
X153076000Y-67366667D01*
X155312742Y-67366667D01*
X155916975Y-67368552D01*
G36*
X159463333Y-88616666D02*
G01*
X160511083Y-88616666D01*
X160941805Y-88612432D01*
X161333957Y-88600912D01*
X161643531Y-88583881D01*
X161823416Y-88563750D01*
X162088000Y-88510833D01*
X162088000Y-86415333D01*
X167740917Y-86415333D01*
X167791969Y-86605833D01*
X167829414Y-86830723D01*
X167844177Y-87071500D01*
X167845333Y-87346666D01*
X162850000Y-87346666D01*
X162850000Y-89294000D01*
X158812438Y-89294000D01*
X158756885Y-88010538D01*
X158736292Y-87478118D01*
X158719153Y-86927070D01*
X158707036Y-86415970D01*
X158701509Y-86003390D01*
X158701333Y-85936205D01*
X158701333Y-85145333D01*
X156330666Y-85145333D01*
X156330666Y-89267346D01*
X154870166Y-89322747D01*
X154339359Y-89341600D01*
X153820688Y-89357733D01*
X153357621Y-89369955D01*
X152993623Y-89377076D01*
X152838166Y-89378407D01*
X152266666Y-89378666D01*
X152266666Y-85145333D01*
X149543643Y-85145333D01*
X149596045Y-86902166D01*
X149614052Y-87454637D01*
X149633710Y-87970814D01*
X149653587Y-88418854D01*
X149672248Y-88766916D01*
X149688262Y-88983156D01*
X149690703Y-89005220D01*
X149732959Y-89351441D01*
X147724890Y-89406242D01*
X147159613Y-89420158D01*
X146652841Y-89429745D01*
X146228397Y-89434791D01*
X145910105Y-89435081D01*
X145721790Y-89430401D01*
X145680387Y-89424609D01*
X145668806Y-89333523D01*
X145655138Y-89096052D01*
X145640237Y-88735120D01*
X145624958Y-88273651D01*
X145610154Y-87734567D01*
X145598413Y-87224421D01*
X145552873Y-85060666D01*
X144985544Y-85060666D01*
X144595247Y-85068712D01*
X144142029Y-85089680D01*
X143770440Y-85115423D01*
X143122666Y-85170180D01*
X143122666Y-89354180D01*
X142551166Y-89408154D01*
X142269260Y-89426550D01*
X141861547Y-89442329D01*
X141371550Y-89454325D01*
X140842787Y-89461367D01*
X140519166Y-89462731D01*
X139058666Y-89463333D01*
X139058666Y-87867086D01*
X139055722Y-87322009D01*
X139047552Y-86796731D01*
X139035154Y-86330002D01*
X139019521Y-85960570D01*
X139004272Y-85750419D01*
X138949877Y-85230000D01*
X136349333Y-85230000D01*
X136349333Y-89378666D01*
X132370000Y-89378666D01*
X132370000Y-85146498D01*
X131078833Y-85200021D01*
X130629001Y-85220852D01*
X130241819Y-85242922D01*
X129947543Y-85264181D01*
X129776429Y-85282577D01*
X129746129Y-85290365D01*
X129733529Y-85381648D01*
X129719930Y-85619022D01*
X129706123Y-85979253D01*
X129692896Y-86439108D01*
X129681039Y-86975354D01*
X129673162Y-87437593D01*
X129641733Y-89548000D01*
X125405813Y-89548000D01*
X125468305Y-87420618D01*
X125530796Y-85293236D01*
X124357231Y-85355173D01*
X123930997Y-85379203D01*
X123570091Y-85402463D01*
X123305802Y-85422714D01*
X123169419Y-85437716D01*
X123157921Y-85441022D01*
X123145586Y-85528569D01*
X123124743Y-85761624D01*
X123097162Y-86116670D01*
X123064617Y-86570194D01*
X123028878Y-87098681D01*
X123003964Y-87484035D01*
X122967514Y-88048875D01*
X122933813Y-88553829D01*
X122904510Y-88975557D01*
X122881255Y-89290719D01*
X122865697Y-89475976D01*
X122860376Y-89515824D01*
X122775152Y-89522434D01*
X122545843Y-89533645D01*
X122197604Y-89548407D01*
X121755589Y-89565668D01*
X121244952Y-89584376D01*
X121088166Y-89589903D01*
X119331333Y-89651294D01*
X119331333Y-88786000D01*
X121942522Y-88786000D01*
X121989262Y-88256833D01*
X122007765Y-87994630D01*
X122029400Y-87603745D01*
X122052200Y-87124752D01*
X122074200Y-86598224D01*
X122088746Y-86203666D01*
X122106293Y-85715985D01*
X122122836Y-85291693D01*
X122137220Y-84957746D01*
X122148287Y-84741101D01*
X122154578Y-84668532D01*
X122239143Y-84664036D01*
X122470087Y-84657249D01*
X122824481Y-84648696D01*
X123279392Y-84638904D01*
X123811890Y-84628399D01*
X124270261Y-84619979D01*
X126372856Y-84582560D01*
X126321292Y-86070446D01*
X126301062Y-86609566D01*
X126278405Y-87140062D01*
X126255398Y-87617842D01*
X126234116Y-87998815D01*
X126222307Y-88172166D01*
X126174885Y-88786000D01*
X128874492Y-88786000D01*
X128936259Y-86732833D01*
X128953943Y-86162557D01*
X128970787Y-85652023D01*
X128985940Y-85224440D01*
X128998555Y-84903020D01*
X129007782Y-84710974D01*
X129011846Y-84665846D01*
X129096597Y-84659557D01*
X129327279Y-84649275D01*
X129680556Y-84635857D01*
X130133096Y-84620158D01*
X130661564Y-84603032D01*
X131057666Y-84590850D01*
X133089666Y-84529674D01*
X133060777Y-86669965D01*
X133031889Y-88810255D01*
X133304194Y-88755794D01*
X133496957Y-88734054D01*
X133813163Y-88716439D01*
X134206936Y-88704903D01*
X134581916Y-88701333D01*
X135587333Y-88701333D01*
X135587333Y-84468000D01*
X139736000Y-84468000D01*
X139736000Y-88701333D01*
X142191333Y-88701333D01*
X142191592Y-88045166D01*
X142195043Y-87731917D01*
X142204401Y-87295737D01*
X142218447Y-86782878D01*
X142235968Y-86239590D01*
X142247252Y-85928500D01*
X142302653Y-84468000D01*
X146340000Y-84468000D01*
X146340000Y-88506127D01*
X147292500Y-88561012D01*
X147712932Y-88583640D01*
X148103217Y-88601810D01*
X148412926Y-88613328D01*
X148562500Y-88616281D01*
X148880000Y-88616666D01*
X148880000Y-84468000D01*
X152917868Y-84468000D01*
X152972924Y-85547500D01*
X152995900Y-86088465D01*
X153014246Y-86692287D01*
X153025670Y-87273208D01*
X153028323Y-87621833D01*
X153028666Y-88616666D01*
X155484000Y-88616666D01*
X155484000Y-84383333D01*
X159463333Y-84383333D01*
X159463333Y-88616666D01*
X159463333Y-88616666D01*
G37*
X159463333Y-88616666D02*
X160511083Y-88616666D01*
X160941805Y-88612432D01*
X161333957Y-88600912D01*
X161643531Y-88583881D01*
X161823416Y-88563750D01*
X162088000Y-88510833D01*
X162088000Y-86415333D01*
X167740917Y-86415333D01*
X167791969Y-86605833D01*
X167829414Y-86830723D01*
X167844177Y-87071500D01*
X167845333Y-87346666D01*
X162850000Y-87346666D01*
X162850000Y-89294000D01*
X158812438Y-89294000D01*
X158756885Y-88010538D01*
X158736292Y-87478118D01*
X158719153Y-86927070D01*
X158707036Y-86415970D01*
X158701509Y-86003390D01*
X158701333Y-85936205D01*
X158701333Y-85145333D01*
X156330666Y-85145333D01*
X156330666Y-89267346D01*
X154870166Y-89322747D01*
X154339359Y-89341600D01*
X153820688Y-89357733D01*
X153357621Y-89369955D01*
X152993623Y-89377076D01*
X152838166Y-89378407D01*
X152266666Y-89378666D01*
X152266666Y-85145333D01*
X149543643Y-85145333D01*
X149596045Y-86902166D01*
X149614052Y-87454637D01*
X149633710Y-87970814D01*
X149653587Y-88418854D01*
X149672248Y-88766916D01*
X149688262Y-88983156D01*
X149690703Y-89005220D01*
X149732959Y-89351441D01*
X147724890Y-89406242D01*
X147159613Y-89420158D01*
X146652841Y-89429745D01*
X146228397Y-89434791D01*
X145910105Y-89435081D01*
X145721790Y-89430401D01*
X145680387Y-89424609D01*
X145668806Y-89333523D01*
X145655138Y-89096052D01*
X145640237Y-88735120D01*
X145624958Y-88273651D01*
X145610154Y-87734567D01*
X145598413Y-87224421D01*
X145552873Y-85060666D01*
X144985544Y-85060666D01*
X144595247Y-85068712D01*
X144142029Y-85089680D01*
X143770440Y-85115423D01*
X143122666Y-85170180D01*
X143122666Y-89354180D01*
X142551166Y-89408154D01*
X142269260Y-89426550D01*
X141861547Y-89442329D01*
X141371550Y-89454325D01*
X140842787Y-89461367D01*
X140519166Y-89462731D01*
X139058666Y-89463333D01*
X139058666Y-87867086D01*
X139055722Y-87322009D01*
X139047552Y-86796731D01*
X139035154Y-86330002D01*
X139019521Y-85960570D01*
X139004272Y-85750419D01*
X138949877Y-85230000D01*
X136349333Y-85230000D01*
X136349333Y-89378666D01*
X132370000Y-89378666D01*
X132370000Y-85146498D01*
X131078833Y-85200021D01*
X130629001Y-85220852D01*
X130241819Y-85242922D01*
X129947543Y-85264181D01*
X129776429Y-85282577D01*
X129746129Y-85290365D01*
X129733529Y-85381648D01*
X129719930Y-85619022D01*
X129706123Y-85979253D01*
X129692896Y-86439108D01*
X129681039Y-86975354D01*
X129673162Y-87437593D01*
X129641733Y-89548000D01*
X125405813Y-89548000D01*
X125468305Y-87420618D01*
X125530796Y-85293236D01*
X124357231Y-85355173D01*
X123930997Y-85379203D01*
X123570091Y-85402463D01*
X123305802Y-85422714D01*
X123169419Y-85437716D01*
X123157921Y-85441022D01*
X123145586Y-85528569D01*
X123124743Y-85761624D01*
X123097162Y-86116670D01*
X123064617Y-86570194D01*
X123028878Y-87098681D01*
X123003964Y-87484035D01*
X122967514Y-88048875D01*
X122933813Y-88553829D01*
X122904510Y-88975557D01*
X122881255Y-89290719D01*
X122865697Y-89475976D01*
X122860376Y-89515824D01*
X122775152Y-89522434D01*
X122545843Y-89533645D01*
X122197604Y-89548407D01*
X121755589Y-89565668D01*
X121244952Y-89584376D01*
X121088166Y-89589903D01*
X119331333Y-89651294D01*
X119331333Y-88786000D01*
X121942522Y-88786000D01*
X121989262Y-88256833D01*
X122007765Y-87994630D01*
X122029400Y-87603745D01*
X122052200Y-87124752D01*
X122074200Y-86598224D01*
X122088746Y-86203666D01*
X122106293Y-85715985D01*
X122122836Y-85291693D01*
X122137220Y-84957746D01*
X122148287Y-84741101D01*
X122154578Y-84668532D01*
X122239143Y-84664036D01*
X122470087Y-84657249D01*
X122824481Y-84648696D01*
X123279392Y-84638904D01*
X123811890Y-84628399D01*
X124270261Y-84619979D01*
X126372856Y-84582560D01*
X126321292Y-86070446D01*
X126301062Y-86609566D01*
X126278405Y-87140062D01*
X126255398Y-87617842D01*
X126234116Y-87998815D01*
X126222307Y-88172166D01*
X126174885Y-88786000D01*
X128874492Y-88786000D01*
X128936259Y-86732833D01*
X128953943Y-86162557D01*
X128970787Y-85652023D01*
X128985940Y-85224440D01*
X128998555Y-84903020D01*
X129007782Y-84710974D01*
X129011846Y-84665846D01*
X129096597Y-84659557D01*
X129327279Y-84649275D01*
X129680556Y-84635857D01*
X130133096Y-84620158D01*
X130661564Y-84603032D01*
X131057666Y-84590850D01*
X133089666Y-84529674D01*
X133060777Y-86669965D01*
X133031889Y-88810255D01*
X133304194Y-88755794D01*
X133496957Y-88734054D01*
X133813163Y-88716439D01*
X134206936Y-88704903D01*
X134581916Y-88701333D01*
X135587333Y-88701333D01*
X135587333Y-84468000D01*
X139736000Y-84468000D01*
X139736000Y-88701333D01*
X142191333Y-88701333D01*
X142191592Y-88045166D01*
X142195043Y-87731917D01*
X142204401Y-87295737D01*
X142218447Y-86782878D01*
X142235968Y-86239590D01*
X142247252Y-85928500D01*
X142302653Y-84468000D01*
X146340000Y-84468000D01*
X146340000Y-88506127D01*
X147292500Y-88561012D01*
X147712932Y-88583640D01*
X148103217Y-88601810D01*
X148412926Y-88613328D01*
X148562500Y-88616281D01*
X148880000Y-88616666D01*
X148880000Y-84468000D01*
X152917868Y-84468000D01*
X152972924Y-85547500D01*
X152995900Y-86088465D01*
X153014246Y-86692287D01*
X153025670Y-87273208D01*
X153028323Y-87621833D01*
X153028666Y-88616666D01*
X155484000Y-88616666D01*
X155484000Y-84383333D01*
X159463333Y-84383333D01*
X159463333Y-88616666D01*
G36*
X160859988Y-100535960D02*
G01*
X160882774Y-101018967D01*
X160901004Y-101518151D01*
X160912480Y-101966255D01*
X160915333Y-102229293D01*
X160915333Y-102893334D01*
X162947333Y-102893334D01*
X162947333Y-101115334D01*
X167519333Y-101115334D01*
X167519333Y-101877334D01*
X163540000Y-101877334D01*
X163540000Y-103401334D01*
X162883833Y-103401719D01*
X162508309Y-103407225D01*
X162037709Y-103421701D01*
X161545903Y-103442621D01*
X161284880Y-103456432D01*
X160342095Y-103510761D01*
X160279726Y-101847380D01*
X160217357Y-100184000D01*
X159944119Y-100184000D01*
X159723962Y-100176802D01*
X159402302Y-100157867D01*
X159046237Y-100131184D01*
X159023107Y-100129243D01*
X158375333Y-100074486D01*
X158375333Y-103390958D01*
X158015500Y-103436739D01*
X157802547Y-103454572D01*
X157461119Y-103472553D01*
X157032063Y-103488968D01*
X156556228Y-103502102D01*
X156364500Y-103506007D01*
X155073333Y-103529495D01*
X155073333Y-100099334D01*
X154535419Y-100099334D01*
X154132452Y-100109293D01*
X153694289Y-100134743D01*
X153470921Y-100154372D01*
X152944337Y-100209411D01*
X153004330Y-101834389D01*
X153064324Y-103459367D01*
X152481328Y-103514415D01*
X152152415Y-103537002D01*
X151716826Y-103555218D01*
X151237203Y-103566894D01*
X150874232Y-103570065D01*
X149850131Y-103570667D01*
X149795075Y-102491167D01*
X149772840Y-101995302D01*
X149754841Y-101480095D01*
X149743138Y-101011918D01*
X149739676Y-100704108D01*
X149735520Y-100357491D01*
X149719479Y-100150887D01*
X149685574Y-100055077D01*
X149627828Y-100040844D01*
X149605408Y-100047942D01*
X149466605Y-100069955D01*
X149202533Y-100087256D01*
X148857240Y-100097520D01*
X148631741Y-100099334D01*
X147792000Y-100099334D01*
X147792000Y-103570667D01*
X144600918Y-103570667D01*
X144545459Y-102414280D01*
X144524379Y-101938349D01*
X144506983Y-101476317D01*
X144494970Y-101078360D01*
X144490038Y-100794653D01*
X144490000Y-100775829D01*
X144490000Y-100293765D01*
X143791500Y-100239390D01*
X143409200Y-100213071D01*
X143042445Y-100193609D01*
X142762580Y-100184703D01*
X142733166Y-100184508D01*
X142373333Y-100184000D01*
X142373333Y-103597007D01*
X141166833Y-103541813D01*
X140692358Y-103521405D01*
X140242046Y-103504357D01*
X139860894Y-103492218D01*
X139593901Y-103486539D01*
X139554698Y-103486310D01*
X139149062Y-103486000D01*
X139173698Y-101834910D01*
X139198333Y-100183819D01*
X138170225Y-100183910D01*
X137725995Y-100187247D01*
X137423369Y-100199457D01*
X137234702Y-100223969D01*
X137132352Y-100264215D01*
X137090725Y-100317925D01*
X137074546Y-100441886D01*
X137060457Y-100706131D01*
X137049319Y-101081616D01*
X137041991Y-101539295D01*
X137039333Y-102050125D01*
X137039333Y-103655334D01*
X133625952Y-103655334D01*
X133678373Y-101962000D01*
X133730794Y-100268667D01*
X132950897Y-100269823D01*
X132569774Y-100267129D01*
X132284857Y-100271969D01*
X132080808Y-100305658D01*
X131942290Y-100389511D01*
X131853965Y-100544842D01*
X131800496Y-100792966D01*
X131766545Y-101155197D01*
X131736776Y-101652851D01*
X131717098Y-101984454D01*
X131684907Y-102487789D01*
X131654978Y-102928829D01*
X131629228Y-103281411D01*
X131609574Y-103519372D01*
X131597934Y-103616548D01*
X131597408Y-103617455D01*
X131500059Y-103632192D01*
X131269414Y-103647061D01*
X130940256Y-103661278D01*
X130547368Y-103674053D01*
X130125532Y-103684601D01*
X129709531Y-103692135D01*
X129334148Y-103695867D01*
X129034164Y-103695010D01*
X128844363Y-103688779D01*
X128795730Y-103680842D01*
X128758224Y-103566148D01*
X128742016Y-103363570D01*
X128742000Y-103356883D01*
X128742000Y-103086655D01*
X129778404Y-103026034D01*
X130178753Y-103000043D01*
X130513246Y-102973460D01*
X130748054Y-102949320D01*
X130849347Y-102930656D01*
X130850334Y-102929888D01*
X130864962Y-102837959D01*
X130883912Y-102604277D01*
X130905469Y-102256315D01*
X130927918Y-101821546D01*
X130948043Y-101364624D01*
X130970881Y-100872128D01*
X130996305Y-100439297D01*
X131022236Y-100094084D01*
X131046598Y-99864441D01*
X131065842Y-99779269D01*
X131163993Y-99760421D01*
X131404605Y-99740756D01*
X131760821Y-99721684D01*
X132205782Y-99704616D01*
X132712631Y-99690964D01*
X132769472Y-99689763D01*
X134417487Y-99655872D01*
X134369692Y-101126436D01*
X134351832Y-101625576D01*
X134332511Y-102080509D01*
X134313379Y-102457943D01*
X134296084Y-102724584D01*
X134285228Y-102832351D01*
X134248559Y-103067702D01*
X136404333Y-103020334D01*
X136427289Y-101348167D01*
X136450246Y-99676000D01*
X139748666Y-99676000D01*
X139748666Y-102978000D01*
X141780666Y-102978000D01*
X141780666Y-99591334D01*
X145082666Y-99591334D01*
X145082666Y-102978000D01*
X147007844Y-102978000D01*
X147060323Y-102660500D01*
X147078411Y-102467247D01*
X147093925Y-102142117D01*
X147105684Y-101722559D01*
X147112508Y-101246024D01*
X147113734Y-100967167D01*
X147114666Y-99591334D01*
X150416666Y-99591334D01*
X150416666Y-102784180D01*
X150988166Y-102838155D01*
X151359398Y-102867300D01*
X151731635Y-102887141D01*
X151961833Y-102892732D01*
X152364000Y-102893334D01*
X152364000Y-99591334D01*
X155639748Y-99591334D01*
X155695207Y-100747720D01*
X155716313Y-101225235D01*
X155733723Y-101690388D01*
X155745731Y-102092419D01*
X155750632Y-102380566D01*
X155750666Y-102398720D01*
X155750666Y-102893334D01*
X157698000Y-102893334D01*
X157698000Y-99506667D01*
X160804644Y-99506667D01*
X160859988Y-100535960D01*
X160859988Y-100535960D01*
G37*
X160859988Y-100535960D02*
X160882774Y-101018967D01*
X160901004Y-101518151D01*
X160912480Y-101966255D01*
X160915333Y-102229293D01*
X160915333Y-102893334D01*
X162947333Y-102893334D01*
X162947333Y-101115334D01*
X167519333Y-101115334D01*
X167519333Y-101877334D01*
X163540000Y-101877334D01*
X163540000Y-103401334D01*
X162883833Y-103401719D01*
X162508309Y-103407225D01*
X162037709Y-103421701D01*
X161545903Y-103442621D01*
X161284880Y-103456432D01*
X160342095Y-103510761D01*
X160279726Y-101847380D01*
X160217357Y-100184000D01*
X159944119Y-100184000D01*
X159723962Y-100176802D01*
X159402302Y-100157867D01*
X159046237Y-100131184D01*
X159023107Y-100129243D01*
X158375333Y-100074486D01*
X158375333Y-103390958D01*
X158015500Y-103436739D01*
X157802547Y-103454572D01*
X157461119Y-103472553D01*
X157032063Y-103488968D01*
X156556228Y-103502102D01*
X156364500Y-103506007D01*
X155073333Y-103529495D01*
X155073333Y-100099334D01*
X154535419Y-100099334D01*
X154132452Y-100109293D01*
X153694289Y-100134743D01*
X153470921Y-100154372D01*
X152944337Y-100209411D01*
X153004330Y-101834389D01*
X153064324Y-103459367D01*
X152481328Y-103514415D01*
X152152415Y-103537002D01*
X151716826Y-103555218D01*
X151237203Y-103566894D01*
X150874232Y-103570065D01*
X149850131Y-103570667D01*
X149795075Y-102491167D01*
X149772840Y-101995302D01*
X149754841Y-101480095D01*
X149743138Y-101011918D01*
X149739676Y-100704108D01*
X149735520Y-100357491D01*
X149719479Y-100150887D01*
X149685574Y-100055077D01*
X149627828Y-100040844D01*
X149605408Y-100047942D01*
X149466605Y-100069955D01*
X149202533Y-100087256D01*
X148857240Y-100097520D01*
X148631741Y-100099334D01*
X147792000Y-100099334D01*
X147792000Y-103570667D01*
X144600918Y-103570667D01*
X144545459Y-102414280D01*
X144524379Y-101938349D01*
X144506983Y-101476317D01*
X144494970Y-101078360D01*
X144490038Y-100794653D01*
X144490000Y-100775829D01*
X144490000Y-100293765D01*
X143791500Y-100239390D01*
X143409200Y-100213071D01*
X143042445Y-100193609D01*
X142762580Y-100184703D01*
X142733166Y-100184508D01*
X142373333Y-100184000D01*
X142373333Y-103597007D01*
X141166833Y-103541813D01*
X140692358Y-103521405D01*
X140242046Y-103504357D01*
X139860894Y-103492218D01*
X139593901Y-103486539D01*
X139554698Y-103486310D01*
X139149062Y-103486000D01*
X139173698Y-101834910D01*
X139198333Y-100183819D01*
X138170225Y-100183910D01*
X137725995Y-100187247D01*
X137423369Y-100199457D01*
X137234702Y-100223969D01*
X137132352Y-100264215D01*
X137090725Y-100317925D01*
X137074546Y-100441886D01*
X137060457Y-100706131D01*
X137049319Y-101081616D01*
X137041991Y-101539295D01*
X137039333Y-102050125D01*
X137039333Y-103655334D01*
X133625952Y-103655334D01*
X133678373Y-101962000D01*
X133730794Y-100268667D01*
X132950897Y-100269823D01*
X132569774Y-100267129D01*
X132284857Y-100271969D01*
X132080808Y-100305658D01*
X131942290Y-100389511D01*
X131853965Y-100544842D01*
X131800496Y-100792966D01*
X131766545Y-101155197D01*
X131736776Y-101652851D01*
X131717098Y-101984454D01*
X131684907Y-102487789D01*
X131654978Y-102928829D01*
X131629228Y-103281411D01*
X131609574Y-103519372D01*
X131597934Y-103616548D01*
X131597408Y-103617455D01*
X131500059Y-103632192D01*
X131269414Y-103647061D01*
X130940256Y-103661278D01*
X130547368Y-103674053D01*
X130125532Y-103684601D01*
X129709531Y-103692135D01*
X129334148Y-103695867D01*
X129034164Y-103695010D01*
X128844363Y-103688779D01*
X128795730Y-103680842D01*
X128758224Y-103566148D01*
X128742016Y-103363570D01*
X128742000Y-103356883D01*
X128742000Y-103086655D01*
X129778404Y-103026034D01*
X130178753Y-103000043D01*
X130513246Y-102973460D01*
X130748054Y-102949320D01*
X130849347Y-102930656D01*
X130850334Y-102929888D01*
X130864962Y-102837959D01*
X130883912Y-102604277D01*
X130905469Y-102256315D01*
X130927918Y-101821546D01*
X130948043Y-101364624D01*
X130970881Y-100872128D01*
X130996305Y-100439297D01*
X131022236Y-100094084D01*
X131046598Y-99864441D01*
X131065842Y-99779269D01*
X131163993Y-99760421D01*
X131404605Y-99740756D01*
X131760821Y-99721684D01*
X132205782Y-99704616D01*
X132712631Y-99690964D01*
X132769472Y-99689763D01*
X134417487Y-99655872D01*
X134369692Y-101126436D01*
X134351832Y-101625576D01*
X134332511Y-102080509D01*
X134313379Y-102457943D01*
X134296084Y-102724584D01*
X134285228Y-102832351D01*
X134248559Y-103067702D01*
X136404333Y-103020334D01*
X136427289Y-101348167D01*
X136450246Y-99676000D01*
X139748666Y-99676000D01*
X139748666Y-102978000D01*
X141780666Y-102978000D01*
X141780666Y-99591334D01*
X145082666Y-99591334D01*
X145082666Y-102978000D01*
X147007844Y-102978000D01*
X147060323Y-102660500D01*
X147078411Y-102467247D01*
X147093925Y-102142117D01*
X147105684Y-101722559D01*
X147112508Y-101246024D01*
X147113734Y-100967167D01*
X147114666Y-99591334D01*
X150416666Y-99591334D01*
X150416666Y-102784180D01*
X150988166Y-102838155D01*
X151359398Y-102867300D01*
X151731635Y-102887141D01*
X151961833Y-102892732D01*
X152364000Y-102893334D01*
X152364000Y-99591334D01*
X155639748Y-99591334D01*
X155695207Y-100747720D01*
X155716313Y-101225235D01*
X155733723Y-101690388D01*
X155745731Y-102092419D01*
X155750632Y-102380566D01*
X155750666Y-102398720D01*
X155750666Y-102893334D01*
X157698000Y-102893334D01*
X157698000Y-99506667D01*
X160804644Y-99506667D01*
X160859988Y-100535960D01*
D11*
G36*
X169576958Y-70010710D02*
G01*
X169591276Y-70012834D01*
X169605317Y-70016351D01*
X169618946Y-70021228D01*
X169632031Y-70027417D01*
X169644447Y-70034858D01*
X169656073Y-70043481D01*
X169666798Y-70053202D01*
X169676519Y-70063927D01*
X169685142Y-70075553D01*
X169692583Y-70087969D01*
X169698772Y-70101054D01*
X169703649Y-70114683D01*
X169707166Y-70128724D01*
X169709290Y-70143042D01*
X169710000Y-70157500D01*
X169710000Y-70502500D01*
X169709290Y-70516958D01*
X169707166Y-70531276D01*
X169703649Y-70545317D01*
X169698772Y-70558946D01*
X169692583Y-70572031D01*
X169685142Y-70584447D01*
X169676519Y-70596073D01*
X169666798Y-70606798D01*
X169656073Y-70616519D01*
X169644447Y-70625142D01*
X169632031Y-70632583D01*
X169618946Y-70638772D01*
X169605317Y-70643649D01*
X169591276Y-70647166D01*
X169576958Y-70649290D01*
X169562500Y-70650000D01*
X169267500Y-70650000D01*
X169253042Y-70649290D01*
X169238724Y-70647166D01*
X169224683Y-70643649D01*
X169211054Y-70638772D01*
X169197969Y-70632583D01*
X169185553Y-70625142D01*
X169173927Y-70616519D01*
X169163202Y-70606798D01*
X169153481Y-70596073D01*
X169144858Y-70584447D01*
X169137417Y-70572031D01*
X169131228Y-70558946D01*
X169126351Y-70545317D01*
X169122834Y-70531276D01*
X169120710Y-70516958D01*
X169120000Y-70502500D01*
X169120000Y-70157500D01*
X169120710Y-70143042D01*
X169122834Y-70128724D01*
X169126351Y-70114683D01*
X169131228Y-70101054D01*
X169137417Y-70087969D01*
X169144858Y-70075553D01*
X169153481Y-70063927D01*
X169163202Y-70053202D01*
X169173927Y-70043481D01*
X169185553Y-70034858D01*
X169197969Y-70027417D01*
X169211054Y-70021228D01*
X169224683Y-70016351D01*
X169238724Y-70012834D01*
X169253042Y-70010710D01*
X169267500Y-70010000D01*
X169562500Y-70010000D01*
X169576958Y-70010710D01*
X169576958Y-70010710D01*
G37*
D12*
X169415000Y-70330000D03*
D11*
G36*
X170546958Y-70010710D02*
G01*
X170561276Y-70012834D01*
X170575317Y-70016351D01*
X170588946Y-70021228D01*
X170602031Y-70027417D01*
X170614447Y-70034858D01*
X170626073Y-70043481D01*
X170636798Y-70053202D01*
X170646519Y-70063927D01*
X170655142Y-70075553D01*
X170662583Y-70087969D01*
X170668772Y-70101054D01*
X170673649Y-70114683D01*
X170677166Y-70128724D01*
X170679290Y-70143042D01*
X170680000Y-70157500D01*
X170680000Y-70502500D01*
X170679290Y-70516958D01*
X170677166Y-70531276D01*
X170673649Y-70545317D01*
X170668772Y-70558946D01*
X170662583Y-70572031D01*
X170655142Y-70584447D01*
X170646519Y-70596073D01*
X170636798Y-70606798D01*
X170626073Y-70616519D01*
X170614447Y-70625142D01*
X170602031Y-70632583D01*
X170588946Y-70638772D01*
X170575317Y-70643649D01*
X170561276Y-70647166D01*
X170546958Y-70649290D01*
X170532500Y-70650000D01*
X170237500Y-70650000D01*
X170223042Y-70649290D01*
X170208724Y-70647166D01*
X170194683Y-70643649D01*
X170181054Y-70638772D01*
X170167969Y-70632583D01*
X170155553Y-70625142D01*
X170143927Y-70616519D01*
X170133202Y-70606798D01*
X170123481Y-70596073D01*
X170114858Y-70584447D01*
X170107417Y-70572031D01*
X170101228Y-70558946D01*
X170096351Y-70545317D01*
X170092834Y-70531276D01*
X170090710Y-70516958D01*
X170090000Y-70502500D01*
X170090000Y-70157500D01*
X170090710Y-70143042D01*
X170092834Y-70128724D01*
X170096351Y-70114683D01*
X170101228Y-70101054D01*
X170107417Y-70087969D01*
X170114858Y-70075553D01*
X170123481Y-70063927D01*
X170133202Y-70053202D01*
X170143927Y-70043481D01*
X170155553Y-70034858D01*
X170167969Y-70027417D01*
X170181054Y-70021228D01*
X170194683Y-70016351D01*
X170208724Y-70012834D01*
X170223042Y-70010710D01*
X170237500Y-70010000D01*
X170532500Y-70010000D01*
X170546958Y-70010710D01*
X170546958Y-70010710D01*
G37*
D12*
X170385000Y-70330000D03*
D11*
G36*
X169761958Y-86580710D02*
G01*
X169776276Y-86582834D01*
X169790317Y-86586351D01*
X169803946Y-86591228D01*
X169817031Y-86597417D01*
X169829447Y-86604858D01*
X169841073Y-86613481D01*
X169851798Y-86623202D01*
X169861519Y-86633927D01*
X169870142Y-86645553D01*
X169877583Y-86657969D01*
X169883772Y-86671054D01*
X169888649Y-86684683D01*
X169892166Y-86698724D01*
X169894290Y-86713042D01*
X169895000Y-86727500D01*
X169895000Y-87072500D01*
X169894290Y-87086958D01*
X169892166Y-87101276D01*
X169888649Y-87115317D01*
X169883772Y-87128946D01*
X169877583Y-87142031D01*
X169870142Y-87154447D01*
X169861519Y-87166073D01*
X169851798Y-87176798D01*
X169841073Y-87186519D01*
X169829447Y-87195142D01*
X169817031Y-87202583D01*
X169803946Y-87208772D01*
X169790317Y-87213649D01*
X169776276Y-87217166D01*
X169761958Y-87219290D01*
X169747500Y-87220000D01*
X169452500Y-87220000D01*
X169438042Y-87219290D01*
X169423724Y-87217166D01*
X169409683Y-87213649D01*
X169396054Y-87208772D01*
X169382969Y-87202583D01*
X169370553Y-87195142D01*
X169358927Y-87186519D01*
X169348202Y-87176798D01*
X169338481Y-87166073D01*
X169329858Y-87154447D01*
X169322417Y-87142031D01*
X169316228Y-87128946D01*
X169311351Y-87115317D01*
X169307834Y-87101276D01*
X169305710Y-87086958D01*
X169305000Y-87072500D01*
X169305000Y-86727500D01*
X169305710Y-86713042D01*
X169307834Y-86698724D01*
X169311351Y-86684683D01*
X169316228Y-86671054D01*
X169322417Y-86657969D01*
X169329858Y-86645553D01*
X169338481Y-86633927D01*
X169348202Y-86623202D01*
X169358927Y-86613481D01*
X169370553Y-86604858D01*
X169382969Y-86597417D01*
X169396054Y-86591228D01*
X169409683Y-86586351D01*
X169423724Y-86582834D01*
X169438042Y-86580710D01*
X169452500Y-86580000D01*
X169747500Y-86580000D01*
X169761958Y-86580710D01*
X169761958Y-86580710D01*
G37*
D12*
X169600000Y-86900000D03*
D11*
G36*
X170731958Y-86580710D02*
G01*
X170746276Y-86582834D01*
X170760317Y-86586351D01*
X170773946Y-86591228D01*
X170787031Y-86597417D01*
X170799447Y-86604858D01*
X170811073Y-86613481D01*
X170821798Y-86623202D01*
X170831519Y-86633927D01*
X170840142Y-86645553D01*
X170847583Y-86657969D01*
X170853772Y-86671054D01*
X170858649Y-86684683D01*
X170862166Y-86698724D01*
X170864290Y-86713042D01*
X170865000Y-86727500D01*
X170865000Y-87072500D01*
X170864290Y-87086958D01*
X170862166Y-87101276D01*
X170858649Y-87115317D01*
X170853772Y-87128946D01*
X170847583Y-87142031D01*
X170840142Y-87154447D01*
X170831519Y-87166073D01*
X170821798Y-87176798D01*
X170811073Y-87186519D01*
X170799447Y-87195142D01*
X170787031Y-87202583D01*
X170773946Y-87208772D01*
X170760317Y-87213649D01*
X170746276Y-87217166D01*
X170731958Y-87219290D01*
X170717500Y-87220000D01*
X170422500Y-87220000D01*
X170408042Y-87219290D01*
X170393724Y-87217166D01*
X170379683Y-87213649D01*
X170366054Y-87208772D01*
X170352969Y-87202583D01*
X170340553Y-87195142D01*
X170328927Y-87186519D01*
X170318202Y-87176798D01*
X170308481Y-87166073D01*
X170299858Y-87154447D01*
X170292417Y-87142031D01*
X170286228Y-87128946D01*
X170281351Y-87115317D01*
X170277834Y-87101276D01*
X170275710Y-87086958D01*
X170275000Y-87072500D01*
X170275000Y-86727500D01*
X170275710Y-86713042D01*
X170277834Y-86698724D01*
X170281351Y-86684683D01*
X170286228Y-86671054D01*
X170292417Y-86657969D01*
X170299858Y-86645553D01*
X170308481Y-86633927D01*
X170318202Y-86623202D01*
X170328927Y-86613481D01*
X170340553Y-86604858D01*
X170352969Y-86597417D01*
X170366054Y-86591228D01*
X170379683Y-86586351D01*
X170393724Y-86582834D01*
X170408042Y-86580710D01*
X170422500Y-86580000D01*
X170717500Y-86580000D01*
X170731958Y-86580710D01*
X170731958Y-86580710D01*
G37*
D12*
X170570000Y-86900000D03*
D11*
G36*
X169276958Y-101180710D02*
G01*
X169291276Y-101182834D01*
X169305317Y-101186351D01*
X169318946Y-101191228D01*
X169332031Y-101197417D01*
X169344447Y-101204858D01*
X169356073Y-101213481D01*
X169366798Y-101223202D01*
X169376519Y-101233927D01*
X169385142Y-101245553D01*
X169392583Y-101257969D01*
X169398772Y-101271054D01*
X169403649Y-101284683D01*
X169407166Y-101298724D01*
X169409290Y-101313042D01*
X169410000Y-101327500D01*
X169410000Y-101672500D01*
X169409290Y-101686958D01*
X169407166Y-101701276D01*
X169403649Y-101715317D01*
X169398772Y-101728946D01*
X169392583Y-101742031D01*
X169385142Y-101754447D01*
X169376519Y-101766073D01*
X169366798Y-101776798D01*
X169356073Y-101786519D01*
X169344447Y-101795142D01*
X169332031Y-101802583D01*
X169318946Y-101808772D01*
X169305317Y-101813649D01*
X169291276Y-101817166D01*
X169276958Y-101819290D01*
X169262500Y-101820000D01*
X168967500Y-101820000D01*
X168953042Y-101819290D01*
X168938724Y-101817166D01*
X168924683Y-101813649D01*
X168911054Y-101808772D01*
X168897969Y-101802583D01*
X168885553Y-101795142D01*
X168873927Y-101786519D01*
X168863202Y-101776798D01*
X168853481Y-101766073D01*
X168844858Y-101754447D01*
X168837417Y-101742031D01*
X168831228Y-101728946D01*
X168826351Y-101715317D01*
X168822834Y-101701276D01*
X168820710Y-101686958D01*
X168820000Y-101672500D01*
X168820000Y-101327500D01*
X168820710Y-101313042D01*
X168822834Y-101298724D01*
X168826351Y-101284683D01*
X168831228Y-101271054D01*
X168837417Y-101257969D01*
X168844858Y-101245553D01*
X168853481Y-101233927D01*
X168863202Y-101223202D01*
X168873927Y-101213481D01*
X168885553Y-101204858D01*
X168897969Y-101197417D01*
X168911054Y-101191228D01*
X168924683Y-101186351D01*
X168938724Y-101182834D01*
X168953042Y-101180710D01*
X168967500Y-101180000D01*
X169262500Y-101180000D01*
X169276958Y-101180710D01*
X169276958Y-101180710D01*
G37*
D12*
X169115000Y-101500000D03*
D11*
G36*
X170246958Y-101180710D02*
G01*
X170261276Y-101182834D01*
X170275317Y-101186351D01*
X170288946Y-101191228D01*
X170302031Y-101197417D01*
X170314447Y-101204858D01*
X170326073Y-101213481D01*
X170336798Y-101223202D01*
X170346519Y-101233927D01*
X170355142Y-101245553D01*
X170362583Y-101257969D01*
X170368772Y-101271054D01*
X170373649Y-101284683D01*
X170377166Y-101298724D01*
X170379290Y-101313042D01*
X170380000Y-101327500D01*
X170380000Y-101672500D01*
X170379290Y-101686958D01*
X170377166Y-101701276D01*
X170373649Y-101715317D01*
X170368772Y-101728946D01*
X170362583Y-101742031D01*
X170355142Y-101754447D01*
X170346519Y-101766073D01*
X170336798Y-101776798D01*
X170326073Y-101786519D01*
X170314447Y-101795142D01*
X170302031Y-101802583D01*
X170288946Y-101808772D01*
X170275317Y-101813649D01*
X170261276Y-101817166D01*
X170246958Y-101819290D01*
X170232500Y-101820000D01*
X169937500Y-101820000D01*
X169923042Y-101819290D01*
X169908724Y-101817166D01*
X169894683Y-101813649D01*
X169881054Y-101808772D01*
X169867969Y-101802583D01*
X169855553Y-101795142D01*
X169843927Y-101786519D01*
X169833202Y-101776798D01*
X169823481Y-101766073D01*
X169814858Y-101754447D01*
X169807417Y-101742031D01*
X169801228Y-101728946D01*
X169796351Y-101715317D01*
X169792834Y-101701276D01*
X169790710Y-101686958D01*
X169790000Y-101672500D01*
X169790000Y-101327500D01*
X169790710Y-101313042D01*
X169792834Y-101298724D01*
X169796351Y-101284683D01*
X169801228Y-101271054D01*
X169807417Y-101257969D01*
X169814858Y-101245553D01*
X169823481Y-101233927D01*
X169833202Y-101223202D01*
X169843927Y-101213481D01*
X169855553Y-101204858D01*
X169867969Y-101197417D01*
X169881054Y-101191228D01*
X169894683Y-101186351D01*
X169908724Y-101182834D01*
X169923042Y-101180710D01*
X169937500Y-101180000D01*
X170232500Y-101180000D01*
X170246958Y-101180710D01*
X170246958Y-101180710D01*
G37*
D12*
X170085000Y-101500000D03*
D13*
X173660000Y-72870000D03*
X173660000Y-67790000D03*
X178740000Y-67790000D03*
X178740000Y-72870000D03*
D14*
X176200000Y-70330000D03*
D13*
X173860000Y-89340000D03*
X173860000Y-84260000D03*
X178940000Y-84260000D03*
X178940000Y-89340000D03*
D14*
X176400000Y-86800000D03*
D13*
X173460000Y-104240000D03*
X173460000Y-99160000D03*
X178540000Y-99160000D03*
X178540000Y-104240000D03*
D14*
X176000000Y-101700000D03*
D11*
G36*
X168586958Y-71020710D02*
G01*
X168601276Y-71022834D01*
X168615317Y-71026351D01*
X168628946Y-71031228D01*
X168642031Y-71037417D01*
X168654447Y-71044858D01*
X168666073Y-71053481D01*
X168676798Y-71063202D01*
X168686519Y-71073927D01*
X168695142Y-71085553D01*
X168702583Y-71097969D01*
X168708772Y-71111054D01*
X168713649Y-71124683D01*
X168717166Y-71138724D01*
X168719290Y-71153042D01*
X168720000Y-71167500D01*
X168720000Y-71462500D01*
X168719290Y-71476958D01*
X168717166Y-71491276D01*
X168713649Y-71505317D01*
X168708772Y-71518946D01*
X168702583Y-71532031D01*
X168695142Y-71544447D01*
X168686519Y-71556073D01*
X168676798Y-71566798D01*
X168666073Y-71576519D01*
X168654447Y-71585142D01*
X168642031Y-71592583D01*
X168628946Y-71598772D01*
X168615317Y-71603649D01*
X168601276Y-71607166D01*
X168586958Y-71609290D01*
X168572500Y-71610000D01*
X168227500Y-71610000D01*
X168213042Y-71609290D01*
X168198724Y-71607166D01*
X168184683Y-71603649D01*
X168171054Y-71598772D01*
X168157969Y-71592583D01*
X168145553Y-71585142D01*
X168133927Y-71576519D01*
X168123202Y-71566798D01*
X168113481Y-71556073D01*
X168104858Y-71544447D01*
X168097417Y-71532031D01*
X168091228Y-71518946D01*
X168086351Y-71505317D01*
X168082834Y-71491276D01*
X168080710Y-71476958D01*
X168080000Y-71462500D01*
X168080000Y-71167500D01*
X168080710Y-71153042D01*
X168082834Y-71138724D01*
X168086351Y-71124683D01*
X168091228Y-71111054D01*
X168097417Y-71097969D01*
X168104858Y-71085553D01*
X168113481Y-71073927D01*
X168123202Y-71063202D01*
X168133927Y-71053481D01*
X168145553Y-71044858D01*
X168157969Y-71037417D01*
X168171054Y-71031228D01*
X168184683Y-71026351D01*
X168198724Y-71022834D01*
X168213042Y-71020710D01*
X168227500Y-71020000D01*
X168572500Y-71020000D01*
X168586958Y-71020710D01*
X168586958Y-71020710D01*
G37*
D12*
X168400000Y-71315000D03*
D11*
G36*
X168586958Y-70050710D02*
G01*
X168601276Y-70052834D01*
X168615317Y-70056351D01*
X168628946Y-70061228D01*
X168642031Y-70067417D01*
X168654447Y-70074858D01*
X168666073Y-70083481D01*
X168676798Y-70093202D01*
X168686519Y-70103927D01*
X168695142Y-70115553D01*
X168702583Y-70127969D01*
X168708772Y-70141054D01*
X168713649Y-70154683D01*
X168717166Y-70168724D01*
X168719290Y-70183042D01*
X168720000Y-70197500D01*
X168720000Y-70492500D01*
X168719290Y-70506958D01*
X168717166Y-70521276D01*
X168713649Y-70535317D01*
X168708772Y-70548946D01*
X168702583Y-70562031D01*
X168695142Y-70574447D01*
X168686519Y-70586073D01*
X168676798Y-70596798D01*
X168666073Y-70606519D01*
X168654447Y-70615142D01*
X168642031Y-70622583D01*
X168628946Y-70628772D01*
X168615317Y-70633649D01*
X168601276Y-70637166D01*
X168586958Y-70639290D01*
X168572500Y-70640000D01*
X168227500Y-70640000D01*
X168213042Y-70639290D01*
X168198724Y-70637166D01*
X168184683Y-70633649D01*
X168171054Y-70628772D01*
X168157969Y-70622583D01*
X168145553Y-70615142D01*
X168133927Y-70606519D01*
X168123202Y-70596798D01*
X168113481Y-70586073D01*
X168104858Y-70574447D01*
X168097417Y-70562031D01*
X168091228Y-70548946D01*
X168086351Y-70535317D01*
X168082834Y-70521276D01*
X168080710Y-70506958D01*
X168080000Y-70492500D01*
X168080000Y-70197500D01*
X168080710Y-70183042D01*
X168082834Y-70168724D01*
X168086351Y-70154683D01*
X168091228Y-70141054D01*
X168097417Y-70127969D01*
X168104858Y-70115553D01*
X168113481Y-70103927D01*
X168123202Y-70093202D01*
X168133927Y-70083481D01*
X168145553Y-70074858D01*
X168157969Y-70067417D01*
X168171054Y-70061228D01*
X168184683Y-70056351D01*
X168198724Y-70052834D01*
X168213042Y-70050710D01*
X168227500Y-70050000D01*
X168572500Y-70050000D01*
X168586958Y-70050710D01*
X168586958Y-70050710D01*
G37*
D12*
X168400000Y-70345000D03*
D11*
G36*
X168786958Y-87590710D02*
G01*
X168801276Y-87592834D01*
X168815317Y-87596351D01*
X168828946Y-87601228D01*
X168842031Y-87607417D01*
X168854447Y-87614858D01*
X168866073Y-87623481D01*
X168876798Y-87633202D01*
X168886519Y-87643927D01*
X168895142Y-87655553D01*
X168902583Y-87667969D01*
X168908772Y-87681054D01*
X168913649Y-87694683D01*
X168917166Y-87708724D01*
X168919290Y-87723042D01*
X168920000Y-87737500D01*
X168920000Y-88032500D01*
X168919290Y-88046958D01*
X168917166Y-88061276D01*
X168913649Y-88075317D01*
X168908772Y-88088946D01*
X168902583Y-88102031D01*
X168895142Y-88114447D01*
X168886519Y-88126073D01*
X168876798Y-88136798D01*
X168866073Y-88146519D01*
X168854447Y-88155142D01*
X168842031Y-88162583D01*
X168828946Y-88168772D01*
X168815317Y-88173649D01*
X168801276Y-88177166D01*
X168786958Y-88179290D01*
X168772500Y-88180000D01*
X168427500Y-88180000D01*
X168413042Y-88179290D01*
X168398724Y-88177166D01*
X168384683Y-88173649D01*
X168371054Y-88168772D01*
X168357969Y-88162583D01*
X168345553Y-88155142D01*
X168333927Y-88146519D01*
X168323202Y-88136798D01*
X168313481Y-88126073D01*
X168304858Y-88114447D01*
X168297417Y-88102031D01*
X168291228Y-88088946D01*
X168286351Y-88075317D01*
X168282834Y-88061276D01*
X168280710Y-88046958D01*
X168280000Y-88032500D01*
X168280000Y-87737500D01*
X168280710Y-87723042D01*
X168282834Y-87708724D01*
X168286351Y-87694683D01*
X168291228Y-87681054D01*
X168297417Y-87667969D01*
X168304858Y-87655553D01*
X168313481Y-87643927D01*
X168323202Y-87633202D01*
X168333927Y-87623481D01*
X168345553Y-87614858D01*
X168357969Y-87607417D01*
X168371054Y-87601228D01*
X168384683Y-87596351D01*
X168398724Y-87592834D01*
X168413042Y-87590710D01*
X168427500Y-87590000D01*
X168772500Y-87590000D01*
X168786958Y-87590710D01*
X168786958Y-87590710D01*
G37*
D12*
X168600000Y-87885000D03*
D11*
G36*
X168786958Y-86620710D02*
G01*
X168801276Y-86622834D01*
X168815317Y-86626351D01*
X168828946Y-86631228D01*
X168842031Y-86637417D01*
X168854447Y-86644858D01*
X168866073Y-86653481D01*
X168876798Y-86663202D01*
X168886519Y-86673927D01*
X168895142Y-86685553D01*
X168902583Y-86697969D01*
X168908772Y-86711054D01*
X168913649Y-86724683D01*
X168917166Y-86738724D01*
X168919290Y-86753042D01*
X168920000Y-86767500D01*
X168920000Y-87062500D01*
X168919290Y-87076958D01*
X168917166Y-87091276D01*
X168913649Y-87105317D01*
X168908772Y-87118946D01*
X168902583Y-87132031D01*
X168895142Y-87144447D01*
X168886519Y-87156073D01*
X168876798Y-87166798D01*
X168866073Y-87176519D01*
X168854447Y-87185142D01*
X168842031Y-87192583D01*
X168828946Y-87198772D01*
X168815317Y-87203649D01*
X168801276Y-87207166D01*
X168786958Y-87209290D01*
X168772500Y-87210000D01*
X168427500Y-87210000D01*
X168413042Y-87209290D01*
X168398724Y-87207166D01*
X168384683Y-87203649D01*
X168371054Y-87198772D01*
X168357969Y-87192583D01*
X168345553Y-87185142D01*
X168333927Y-87176519D01*
X168323202Y-87166798D01*
X168313481Y-87156073D01*
X168304858Y-87144447D01*
X168297417Y-87132031D01*
X168291228Y-87118946D01*
X168286351Y-87105317D01*
X168282834Y-87091276D01*
X168280710Y-87076958D01*
X168280000Y-87062500D01*
X168280000Y-86767500D01*
X168280710Y-86753042D01*
X168282834Y-86738724D01*
X168286351Y-86724683D01*
X168291228Y-86711054D01*
X168297417Y-86697969D01*
X168304858Y-86685553D01*
X168313481Y-86673927D01*
X168323202Y-86663202D01*
X168333927Y-86653481D01*
X168345553Y-86644858D01*
X168357969Y-86637417D01*
X168371054Y-86631228D01*
X168384683Y-86626351D01*
X168398724Y-86622834D01*
X168413042Y-86620710D01*
X168427500Y-86620000D01*
X168772500Y-86620000D01*
X168786958Y-86620710D01*
X168786958Y-86620710D01*
G37*
D12*
X168600000Y-86915000D03*
D11*
G36*
X168286958Y-102190710D02*
G01*
X168301276Y-102192834D01*
X168315317Y-102196351D01*
X168328946Y-102201228D01*
X168342031Y-102207417D01*
X168354447Y-102214858D01*
X168366073Y-102223481D01*
X168376798Y-102233202D01*
X168386519Y-102243927D01*
X168395142Y-102255553D01*
X168402583Y-102267969D01*
X168408772Y-102281054D01*
X168413649Y-102294683D01*
X168417166Y-102308724D01*
X168419290Y-102323042D01*
X168420000Y-102337500D01*
X168420000Y-102632500D01*
X168419290Y-102646958D01*
X168417166Y-102661276D01*
X168413649Y-102675317D01*
X168408772Y-102688946D01*
X168402583Y-102702031D01*
X168395142Y-102714447D01*
X168386519Y-102726073D01*
X168376798Y-102736798D01*
X168366073Y-102746519D01*
X168354447Y-102755142D01*
X168342031Y-102762583D01*
X168328946Y-102768772D01*
X168315317Y-102773649D01*
X168301276Y-102777166D01*
X168286958Y-102779290D01*
X168272500Y-102780000D01*
X167927500Y-102780000D01*
X167913042Y-102779290D01*
X167898724Y-102777166D01*
X167884683Y-102773649D01*
X167871054Y-102768772D01*
X167857969Y-102762583D01*
X167845553Y-102755142D01*
X167833927Y-102746519D01*
X167823202Y-102736798D01*
X167813481Y-102726073D01*
X167804858Y-102714447D01*
X167797417Y-102702031D01*
X167791228Y-102688946D01*
X167786351Y-102675317D01*
X167782834Y-102661276D01*
X167780710Y-102646958D01*
X167780000Y-102632500D01*
X167780000Y-102337500D01*
X167780710Y-102323042D01*
X167782834Y-102308724D01*
X167786351Y-102294683D01*
X167791228Y-102281054D01*
X167797417Y-102267969D01*
X167804858Y-102255553D01*
X167813481Y-102243927D01*
X167823202Y-102233202D01*
X167833927Y-102223481D01*
X167845553Y-102214858D01*
X167857969Y-102207417D01*
X167871054Y-102201228D01*
X167884683Y-102196351D01*
X167898724Y-102192834D01*
X167913042Y-102190710D01*
X167927500Y-102190000D01*
X168272500Y-102190000D01*
X168286958Y-102190710D01*
X168286958Y-102190710D01*
G37*
D12*
X168100000Y-102485000D03*
D11*
G36*
X168286958Y-101220710D02*
G01*
X168301276Y-101222834D01*
X168315317Y-101226351D01*
X168328946Y-101231228D01*
X168342031Y-101237417D01*
X168354447Y-101244858D01*
X168366073Y-101253481D01*
X168376798Y-101263202D01*
X168386519Y-101273927D01*
X168395142Y-101285553D01*
X168402583Y-101297969D01*
X168408772Y-101311054D01*
X168413649Y-101324683D01*
X168417166Y-101338724D01*
X168419290Y-101353042D01*
X168420000Y-101367500D01*
X168420000Y-101662500D01*
X168419290Y-101676958D01*
X168417166Y-101691276D01*
X168413649Y-101705317D01*
X168408772Y-101718946D01*
X168402583Y-101732031D01*
X168395142Y-101744447D01*
X168386519Y-101756073D01*
X168376798Y-101766798D01*
X168366073Y-101776519D01*
X168354447Y-101785142D01*
X168342031Y-101792583D01*
X168328946Y-101798772D01*
X168315317Y-101803649D01*
X168301276Y-101807166D01*
X168286958Y-101809290D01*
X168272500Y-101810000D01*
X167927500Y-101810000D01*
X167913042Y-101809290D01*
X167898724Y-101807166D01*
X167884683Y-101803649D01*
X167871054Y-101798772D01*
X167857969Y-101792583D01*
X167845553Y-101785142D01*
X167833927Y-101776519D01*
X167823202Y-101766798D01*
X167813481Y-101756073D01*
X167804858Y-101744447D01*
X167797417Y-101732031D01*
X167791228Y-101718946D01*
X167786351Y-101705317D01*
X167782834Y-101691276D01*
X167780710Y-101676958D01*
X167780000Y-101662500D01*
X167780000Y-101367500D01*
X167780710Y-101353042D01*
X167782834Y-101338724D01*
X167786351Y-101324683D01*
X167791228Y-101311054D01*
X167797417Y-101297969D01*
X167804858Y-101285553D01*
X167813481Y-101273927D01*
X167823202Y-101263202D01*
X167833927Y-101253481D01*
X167845553Y-101244858D01*
X167857969Y-101237417D01*
X167871054Y-101231228D01*
X167884683Y-101226351D01*
X167898724Y-101222834D01*
X167913042Y-101220710D01*
X167927500Y-101220000D01*
X168272500Y-101220000D01*
X168286958Y-101220710D01*
X168286958Y-101220710D01*
G37*
D12*
X168100000Y-101515000D03*
D11*
G36*
X171586958Y-71020710D02*
G01*
X171601276Y-71022834D01*
X171615317Y-71026351D01*
X171628946Y-71031228D01*
X171642031Y-71037417D01*
X171654447Y-71044858D01*
X171666073Y-71053481D01*
X171676798Y-71063202D01*
X171686519Y-71073927D01*
X171695142Y-71085553D01*
X171702583Y-71097969D01*
X171708772Y-71111054D01*
X171713649Y-71124683D01*
X171717166Y-71138724D01*
X171719290Y-71153042D01*
X171720000Y-71167500D01*
X171720000Y-71462500D01*
X171719290Y-71476958D01*
X171717166Y-71491276D01*
X171713649Y-71505317D01*
X171708772Y-71518946D01*
X171702583Y-71532031D01*
X171695142Y-71544447D01*
X171686519Y-71556073D01*
X171676798Y-71566798D01*
X171666073Y-71576519D01*
X171654447Y-71585142D01*
X171642031Y-71592583D01*
X171628946Y-71598772D01*
X171615317Y-71603649D01*
X171601276Y-71607166D01*
X171586958Y-71609290D01*
X171572500Y-71610000D01*
X171227500Y-71610000D01*
X171213042Y-71609290D01*
X171198724Y-71607166D01*
X171184683Y-71603649D01*
X171171054Y-71598772D01*
X171157969Y-71592583D01*
X171145553Y-71585142D01*
X171133927Y-71576519D01*
X171123202Y-71566798D01*
X171113481Y-71556073D01*
X171104858Y-71544447D01*
X171097417Y-71532031D01*
X171091228Y-71518946D01*
X171086351Y-71505317D01*
X171082834Y-71491276D01*
X171080710Y-71476958D01*
X171080000Y-71462500D01*
X171080000Y-71167500D01*
X171080710Y-71153042D01*
X171082834Y-71138724D01*
X171086351Y-71124683D01*
X171091228Y-71111054D01*
X171097417Y-71097969D01*
X171104858Y-71085553D01*
X171113481Y-71073927D01*
X171123202Y-71063202D01*
X171133927Y-71053481D01*
X171145553Y-71044858D01*
X171157969Y-71037417D01*
X171171054Y-71031228D01*
X171184683Y-71026351D01*
X171198724Y-71022834D01*
X171213042Y-71020710D01*
X171227500Y-71020000D01*
X171572500Y-71020000D01*
X171586958Y-71020710D01*
X171586958Y-71020710D01*
G37*
D12*
X171400000Y-71315000D03*
D11*
G36*
X171586958Y-70050710D02*
G01*
X171601276Y-70052834D01*
X171615317Y-70056351D01*
X171628946Y-70061228D01*
X171642031Y-70067417D01*
X171654447Y-70074858D01*
X171666073Y-70083481D01*
X171676798Y-70093202D01*
X171686519Y-70103927D01*
X171695142Y-70115553D01*
X171702583Y-70127969D01*
X171708772Y-70141054D01*
X171713649Y-70154683D01*
X171717166Y-70168724D01*
X171719290Y-70183042D01*
X171720000Y-70197500D01*
X171720000Y-70492500D01*
X171719290Y-70506958D01*
X171717166Y-70521276D01*
X171713649Y-70535317D01*
X171708772Y-70548946D01*
X171702583Y-70562031D01*
X171695142Y-70574447D01*
X171686519Y-70586073D01*
X171676798Y-70596798D01*
X171666073Y-70606519D01*
X171654447Y-70615142D01*
X171642031Y-70622583D01*
X171628946Y-70628772D01*
X171615317Y-70633649D01*
X171601276Y-70637166D01*
X171586958Y-70639290D01*
X171572500Y-70640000D01*
X171227500Y-70640000D01*
X171213042Y-70639290D01*
X171198724Y-70637166D01*
X171184683Y-70633649D01*
X171171054Y-70628772D01*
X171157969Y-70622583D01*
X171145553Y-70615142D01*
X171133927Y-70606519D01*
X171123202Y-70596798D01*
X171113481Y-70586073D01*
X171104858Y-70574447D01*
X171097417Y-70562031D01*
X171091228Y-70548946D01*
X171086351Y-70535317D01*
X171082834Y-70521276D01*
X171080710Y-70506958D01*
X171080000Y-70492500D01*
X171080000Y-70197500D01*
X171080710Y-70183042D01*
X171082834Y-70168724D01*
X171086351Y-70154683D01*
X171091228Y-70141054D01*
X171097417Y-70127969D01*
X171104858Y-70115553D01*
X171113481Y-70103927D01*
X171123202Y-70093202D01*
X171133927Y-70083481D01*
X171145553Y-70074858D01*
X171157969Y-70067417D01*
X171171054Y-70061228D01*
X171184683Y-70056351D01*
X171198724Y-70052834D01*
X171213042Y-70050710D01*
X171227500Y-70050000D01*
X171572500Y-70050000D01*
X171586958Y-70050710D01*
X171586958Y-70050710D01*
G37*
D12*
X171400000Y-70345000D03*
D11*
G36*
X171786958Y-87590710D02*
G01*
X171801276Y-87592834D01*
X171815317Y-87596351D01*
X171828946Y-87601228D01*
X171842031Y-87607417D01*
X171854447Y-87614858D01*
X171866073Y-87623481D01*
X171876798Y-87633202D01*
X171886519Y-87643927D01*
X171895142Y-87655553D01*
X171902583Y-87667969D01*
X171908772Y-87681054D01*
X171913649Y-87694683D01*
X171917166Y-87708724D01*
X171919290Y-87723042D01*
X171920000Y-87737500D01*
X171920000Y-88032500D01*
X171919290Y-88046958D01*
X171917166Y-88061276D01*
X171913649Y-88075317D01*
X171908772Y-88088946D01*
X171902583Y-88102031D01*
X171895142Y-88114447D01*
X171886519Y-88126073D01*
X171876798Y-88136798D01*
X171866073Y-88146519D01*
X171854447Y-88155142D01*
X171842031Y-88162583D01*
X171828946Y-88168772D01*
X171815317Y-88173649D01*
X171801276Y-88177166D01*
X171786958Y-88179290D01*
X171772500Y-88180000D01*
X171427500Y-88180000D01*
X171413042Y-88179290D01*
X171398724Y-88177166D01*
X171384683Y-88173649D01*
X171371054Y-88168772D01*
X171357969Y-88162583D01*
X171345553Y-88155142D01*
X171333927Y-88146519D01*
X171323202Y-88136798D01*
X171313481Y-88126073D01*
X171304858Y-88114447D01*
X171297417Y-88102031D01*
X171291228Y-88088946D01*
X171286351Y-88075317D01*
X171282834Y-88061276D01*
X171280710Y-88046958D01*
X171280000Y-88032500D01*
X171280000Y-87737500D01*
X171280710Y-87723042D01*
X171282834Y-87708724D01*
X171286351Y-87694683D01*
X171291228Y-87681054D01*
X171297417Y-87667969D01*
X171304858Y-87655553D01*
X171313481Y-87643927D01*
X171323202Y-87633202D01*
X171333927Y-87623481D01*
X171345553Y-87614858D01*
X171357969Y-87607417D01*
X171371054Y-87601228D01*
X171384683Y-87596351D01*
X171398724Y-87592834D01*
X171413042Y-87590710D01*
X171427500Y-87590000D01*
X171772500Y-87590000D01*
X171786958Y-87590710D01*
X171786958Y-87590710D01*
G37*
D12*
X171600000Y-87885000D03*
D11*
G36*
X171786958Y-86620710D02*
G01*
X171801276Y-86622834D01*
X171815317Y-86626351D01*
X171828946Y-86631228D01*
X171842031Y-86637417D01*
X171854447Y-86644858D01*
X171866073Y-86653481D01*
X171876798Y-86663202D01*
X171886519Y-86673927D01*
X171895142Y-86685553D01*
X171902583Y-86697969D01*
X171908772Y-86711054D01*
X171913649Y-86724683D01*
X171917166Y-86738724D01*
X171919290Y-86753042D01*
X171920000Y-86767500D01*
X171920000Y-87062500D01*
X171919290Y-87076958D01*
X171917166Y-87091276D01*
X171913649Y-87105317D01*
X171908772Y-87118946D01*
X171902583Y-87132031D01*
X171895142Y-87144447D01*
X171886519Y-87156073D01*
X171876798Y-87166798D01*
X171866073Y-87176519D01*
X171854447Y-87185142D01*
X171842031Y-87192583D01*
X171828946Y-87198772D01*
X171815317Y-87203649D01*
X171801276Y-87207166D01*
X171786958Y-87209290D01*
X171772500Y-87210000D01*
X171427500Y-87210000D01*
X171413042Y-87209290D01*
X171398724Y-87207166D01*
X171384683Y-87203649D01*
X171371054Y-87198772D01*
X171357969Y-87192583D01*
X171345553Y-87185142D01*
X171333927Y-87176519D01*
X171323202Y-87166798D01*
X171313481Y-87156073D01*
X171304858Y-87144447D01*
X171297417Y-87132031D01*
X171291228Y-87118946D01*
X171286351Y-87105317D01*
X171282834Y-87091276D01*
X171280710Y-87076958D01*
X171280000Y-87062500D01*
X171280000Y-86767500D01*
X171280710Y-86753042D01*
X171282834Y-86738724D01*
X171286351Y-86724683D01*
X171291228Y-86711054D01*
X171297417Y-86697969D01*
X171304858Y-86685553D01*
X171313481Y-86673927D01*
X171323202Y-86663202D01*
X171333927Y-86653481D01*
X171345553Y-86644858D01*
X171357969Y-86637417D01*
X171371054Y-86631228D01*
X171384683Y-86626351D01*
X171398724Y-86622834D01*
X171413042Y-86620710D01*
X171427500Y-86620000D01*
X171772500Y-86620000D01*
X171786958Y-86620710D01*
X171786958Y-86620710D01*
G37*
D12*
X171600000Y-86915000D03*
D11*
G36*
X171386958Y-102175710D02*
G01*
X171401276Y-102177834D01*
X171415317Y-102181351D01*
X171428946Y-102186228D01*
X171442031Y-102192417D01*
X171454447Y-102199858D01*
X171466073Y-102208481D01*
X171476798Y-102218202D01*
X171486519Y-102228927D01*
X171495142Y-102240553D01*
X171502583Y-102252969D01*
X171508772Y-102266054D01*
X171513649Y-102279683D01*
X171517166Y-102293724D01*
X171519290Y-102308042D01*
X171520000Y-102322500D01*
X171520000Y-102617500D01*
X171519290Y-102631958D01*
X171517166Y-102646276D01*
X171513649Y-102660317D01*
X171508772Y-102673946D01*
X171502583Y-102687031D01*
X171495142Y-102699447D01*
X171486519Y-102711073D01*
X171476798Y-102721798D01*
X171466073Y-102731519D01*
X171454447Y-102740142D01*
X171442031Y-102747583D01*
X171428946Y-102753772D01*
X171415317Y-102758649D01*
X171401276Y-102762166D01*
X171386958Y-102764290D01*
X171372500Y-102765000D01*
X171027500Y-102765000D01*
X171013042Y-102764290D01*
X170998724Y-102762166D01*
X170984683Y-102758649D01*
X170971054Y-102753772D01*
X170957969Y-102747583D01*
X170945553Y-102740142D01*
X170933927Y-102731519D01*
X170923202Y-102721798D01*
X170913481Y-102711073D01*
X170904858Y-102699447D01*
X170897417Y-102687031D01*
X170891228Y-102673946D01*
X170886351Y-102660317D01*
X170882834Y-102646276D01*
X170880710Y-102631958D01*
X170880000Y-102617500D01*
X170880000Y-102322500D01*
X170880710Y-102308042D01*
X170882834Y-102293724D01*
X170886351Y-102279683D01*
X170891228Y-102266054D01*
X170897417Y-102252969D01*
X170904858Y-102240553D01*
X170913481Y-102228927D01*
X170923202Y-102218202D01*
X170933927Y-102208481D01*
X170945553Y-102199858D01*
X170957969Y-102192417D01*
X170971054Y-102186228D01*
X170984683Y-102181351D01*
X170998724Y-102177834D01*
X171013042Y-102175710D01*
X171027500Y-102175000D01*
X171372500Y-102175000D01*
X171386958Y-102175710D01*
X171386958Y-102175710D01*
G37*
D12*
X171200000Y-102470000D03*
D11*
G36*
X171386958Y-101205710D02*
G01*
X171401276Y-101207834D01*
X171415317Y-101211351D01*
X171428946Y-101216228D01*
X171442031Y-101222417D01*
X171454447Y-101229858D01*
X171466073Y-101238481D01*
X171476798Y-101248202D01*
X171486519Y-101258927D01*
X171495142Y-101270553D01*
X171502583Y-101282969D01*
X171508772Y-101296054D01*
X171513649Y-101309683D01*
X171517166Y-101323724D01*
X171519290Y-101338042D01*
X171520000Y-101352500D01*
X171520000Y-101647500D01*
X171519290Y-101661958D01*
X171517166Y-101676276D01*
X171513649Y-101690317D01*
X171508772Y-101703946D01*
X171502583Y-101717031D01*
X171495142Y-101729447D01*
X171486519Y-101741073D01*
X171476798Y-101751798D01*
X171466073Y-101761519D01*
X171454447Y-101770142D01*
X171442031Y-101777583D01*
X171428946Y-101783772D01*
X171415317Y-101788649D01*
X171401276Y-101792166D01*
X171386958Y-101794290D01*
X171372500Y-101795000D01*
X171027500Y-101795000D01*
X171013042Y-101794290D01*
X170998724Y-101792166D01*
X170984683Y-101788649D01*
X170971054Y-101783772D01*
X170957969Y-101777583D01*
X170945553Y-101770142D01*
X170933927Y-101761519D01*
X170923202Y-101751798D01*
X170913481Y-101741073D01*
X170904858Y-101729447D01*
X170897417Y-101717031D01*
X170891228Y-101703946D01*
X170886351Y-101690317D01*
X170882834Y-101676276D01*
X170880710Y-101661958D01*
X170880000Y-101647500D01*
X170880000Y-101352500D01*
X170880710Y-101338042D01*
X170882834Y-101323724D01*
X170886351Y-101309683D01*
X170891228Y-101296054D01*
X170897417Y-101282969D01*
X170904858Y-101270553D01*
X170913481Y-101258927D01*
X170923202Y-101248202D01*
X170933927Y-101238481D01*
X170945553Y-101229858D01*
X170957969Y-101222417D01*
X170971054Y-101216228D01*
X170984683Y-101211351D01*
X170998724Y-101207834D01*
X171013042Y-101205710D01*
X171027500Y-101205000D01*
X171372500Y-101205000D01*
X171386958Y-101205710D01*
X171386958Y-101205710D01*
G37*
D12*
X171200000Y-101500000D03*
D15*
X167421334Y-70306667D03*
X167400000Y-86850000D03*
X167150000Y-101500000D03*
D16*
X167165000Y-101515000D02*
X167150000Y-101500000D01*
X168100000Y-101515000D02*
X167165000Y-101515000D01*
X169100000Y-101515000D02*
X169115000Y-101500000D01*
X168100000Y-101515000D02*
X169100000Y-101515000D01*
X168615000Y-86900000D02*
X168600000Y-86915000D01*
X169600000Y-86900000D02*
X168615000Y-86900000D01*
X167465000Y-86915000D02*
X167400000Y-86850000D01*
X168600000Y-86915000D02*
X167465000Y-86915000D01*
X168415000Y-70330000D02*
X168400000Y-70345000D01*
X169415000Y-70330000D02*
X168415000Y-70330000D01*
X167459667Y-70345000D02*
X167421334Y-70306667D01*
X168400000Y-70345000D02*
X167459667Y-70345000D01*
X170085000Y-101500000D02*
X171200000Y-101500000D01*
X175800000Y-101500000D02*
X176000000Y-101700000D01*
X171200000Y-101500000D02*
X175800000Y-101500000D01*
X171615000Y-86800000D02*
X171600000Y-86815000D01*
X176400000Y-86800000D02*
X171615000Y-86800000D01*
X170585000Y-86915000D02*
X170570000Y-86900000D01*
X171600000Y-86915000D02*
X170585000Y-86915000D01*
X171415000Y-70330000D02*
X171400000Y-70345000D01*
X176200000Y-70330000D02*
X171415000Y-70330000D01*
X170400000Y-70345000D02*
X170385000Y-70330000D01*
X171400000Y-70345000D02*
X170400000Y-70345000D01*
D17*
G36*
X184760001Y-108560000D02*
G01*
X167851469Y-108560000D01*
X167836744Y-105464531D01*
X172415074Y-105464531D01*
X172525921Y-105741714D01*
X172836840Y-105895089D01*
X173171705Y-105984860D01*
X173517650Y-106007576D01*
X173861380Y-105962366D01*
X174189685Y-105850966D01*
X174394079Y-105741714D01*
X174504926Y-105464531D01*
X177495074Y-105464531D01*
X177605921Y-105741714D01*
X177916840Y-105895089D01*
X178251705Y-105984860D01*
X178597650Y-106007576D01*
X178941380Y-105962366D01*
X179269685Y-105850966D01*
X179474079Y-105741714D01*
X179584926Y-105464531D01*
X178540000Y-104419605D01*
X177495074Y-105464531D01*
X174504926Y-105464531D01*
X173460000Y-104419605D01*
X172415074Y-105464531D01*
X167836744Y-105464531D01*
X167831192Y-104297650D01*
X171692424Y-104297650D01*
X171737634Y-104641380D01*
X171849034Y-104969685D01*
X171958286Y-105174079D01*
X172235469Y-105284926D01*
X173280395Y-104240000D01*
X173639605Y-104240000D01*
X174684531Y-105284926D01*
X174961714Y-105174079D01*
X175115089Y-104863160D01*
X175204860Y-104528295D01*
X175220004Y-104297650D01*
X176772424Y-104297650D01*
X176817634Y-104641380D01*
X176929034Y-104969685D01*
X177038286Y-105174079D01*
X177315469Y-105284926D01*
X178360395Y-104240000D01*
X178719605Y-104240000D01*
X179764531Y-105284926D01*
X180041714Y-105174079D01*
X180195089Y-104863160D01*
X180284860Y-104528295D01*
X180307576Y-104182350D01*
X180262366Y-103838620D01*
X180150966Y-103510315D01*
X180041714Y-103305921D01*
X179764531Y-103195074D01*
X178719605Y-104240000D01*
X178360395Y-104240000D01*
X177315469Y-103195074D01*
X177038286Y-103305921D01*
X176884911Y-103616840D01*
X176795140Y-103951705D01*
X176772424Y-104297650D01*
X175220004Y-104297650D01*
X175227576Y-104182350D01*
X175182366Y-103838620D01*
X175070966Y-103510315D01*
X174961714Y-103305921D01*
X174684531Y-103195074D01*
X173639605Y-104240000D01*
X173280395Y-104240000D01*
X172235469Y-103195074D01*
X171958286Y-103305921D01*
X171804911Y-103616840D01*
X171715140Y-103951705D01*
X171692424Y-104297650D01*
X167831192Y-104297650D01*
X167826932Y-103402318D01*
X167973000Y-103256250D01*
X167973000Y-102612000D01*
X168227000Y-102612000D01*
X168227000Y-103256250D01*
X168385750Y-103415000D01*
X168420000Y-103418072D01*
X168544482Y-103405812D01*
X168664180Y-103369502D01*
X168774494Y-103310537D01*
X168871185Y-103231185D01*
X168950537Y-103134494D01*
X169009502Y-103024180D01*
X169045812Y-102904482D01*
X169058072Y-102780000D01*
X169055000Y-102770750D01*
X169049250Y-102765000D01*
X170241928Y-102765000D01*
X170254188Y-102889482D01*
X170290498Y-103009180D01*
X170349463Y-103119494D01*
X170428815Y-103216185D01*
X170525506Y-103295537D01*
X170635820Y-103354502D01*
X170755518Y-103390812D01*
X170880000Y-103403072D01*
X170914250Y-103400000D01*
X171073000Y-103241250D01*
X171073000Y-102597000D01*
X171327000Y-102597000D01*
X171327000Y-103241250D01*
X171485750Y-103400000D01*
X171520000Y-103403072D01*
X171644482Y-103390812D01*
X171764180Y-103354502D01*
X171874494Y-103295537D01*
X171971185Y-103216185D01*
X172050537Y-103119494D01*
X172106140Y-103015469D01*
X172415074Y-103015469D01*
X173460000Y-104060395D01*
X174504926Y-103015469D01*
X174394079Y-102738286D01*
X174083160Y-102584911D01*
X173748295Y-102495140D01*
X173402350Y-102472424D01*
X173058620Y-102517634D01*
X172730315Y-102629034D01*
X172525921Y-102738286D01*
X172415074Y-103015469D01*
X172106140Y-103015469D01*
X172109502Y-103009180D01*
X172145812Y-102889482D01*
X172158072Y-102765000D01*
X172155000Y-102755750D01*
X171996250Y-102597000D01*
X171327000Y-102597000D01*
X171073000Y-102597000D01*
X170403750Y-102597000D01*
X170245000Y-102755750D01*
X170241928Y-102765000D01*
X169049250Y-102765000D01*
X168896250Y-102612000D01*
X168227000Y-102612000D01*
X167973000Y-102612000D01*
X167953000Y-102612000D01*
X167953000Y-102470040D01*
X169053083Y-102470040D01*
X169100000Y-102474661D01*
X169146917Y-102470040D01*
X169287221Y-102456221D01*
X169290071Y-102455356D01*
X169415757Y-102442977D01*
X169563125Y-102398274D01*
X169600000Y-102378564D01*
X169636875Y-102398274D01*
X169784243Y-102442977D01*
X169937500Y-102458072D01*
X170232500Y-102458072D01*
X170263283Y-102455040D01*
X174515977Y-102455040D01*
X174528927Y-102486305D01*
X174710594Y-102758188D01*
X174941812Y-102989406D01*
X175213695Y-103171073D01*
X175515796Y-103296207D01*
X175836504Y-103360000D01*
X176163496Y-103360000D01*
X176484204Y-103296207D01*
X176786305Y-103171073D01*
X177019182Y-103015469D01*
X177495074Y-103015469D01*
X178540000Y-104060395D01*
X179584926Y-103015469D01*
X179474079Y-102738286D01*
X179163160Y-102584911D01*
X178828295Y-102495140D01*
X178482350Y-102472424D01*
X178138620Y-102517634D01*
X177810315Y-102629034D01*
X177605921Y-102738286D01*
X177495074Y-103015469D01*
X177019182Y-103015469D01*
X177058188Y-102989406D01*
X177289406Y-102758188D01*
X177471073Y-102486305D01*
X177596207Y-102184204D01*
X177660000Y-101863496D01*
X177660000Y-101536504D01*
X177596207Y-101215796D01*
X177471073Y-100913695D01*
X177289406Y-100641812D01*
X177058188Y-100410594D01*
X177019183Y-100384531D01*
X177495074Y-100384531D01*
X177605921Y-100661714D01*
X177916840Y-100815089D01*
X178251705Y-100904860D01*
X178597650Y-100927576D01*
X178941380Y-100882366D01*
X179269685Y-100770966D01*
X179474079Y-100661714D01*
X179584926Y-100384531D01*
X178540000Y-99339605D01*
X177495074Y-100384531D01*
X177019183Y-100384531D01*
X176786305Y-100228927D01*
X176484204Y-100103793D01*
X176163496Y-100040000D01*
X175836504Y-100040000D01*
X175515796Y-100103793D01*
X175213695Y-100228927D01*
X174941812Y-100410594D01*
X174807446Y-100544960D01*
X174440770Y-100544960D01*
X174504926Y-100384531D01*
X173460000Y-99339605D01*
X172415074Y-100384531D01*
X172479230Y-100544960D01*
X170263283Y-100544960D01*
X170232500Y-100541928D01*
X169937500Y-100541928D01*
X169784243Y-100557023D01*
X169636875Y-100601726D01*
X169600000Y-100621436D01*
X169563125Y-100601726D01*
X169415757Y-100557023D01*
X169262500Y-100541928D01*
X169131132Y-100541928D01*
X169114999Y-100540339D01*
X169098866Y-100541928D01*
X168967500Y-100541928D01*
X168814243Y-100557023D01*
X168804561Y-100559960D01*
X167831368Y-100559960D01*
X167824324Y-100556151D01*
X167813363Y-100550125D01*
X167807024Y-99217650D01*
X171692424Y-99217650D01*
X171737634Y-99561380D01*
X171849034Y-99889685D01*
X171958286Y-100094079D01*
X172235469Y-100204926D01*
X173280395Y-99160000D01*
X173639605Y-99160000D01*
X174684531Y-100204926D01*
X174961714Y-100094079D01*
X175115089Y-99783160D01*
X175204860Y-99448295D01*
X175220004Y-99217650D01*
X176772424Y-99217650D01*
X176817634Y-99561380D01*
X176929034Y-99889685D01*
X177038286Y-100094079D01*
X177315469Y-100204926D01*
X178360395Y-99160000D01*
X178719605Y-99160000D01*
X179764531Y-100204926D01*
X180041714Y-100094079D01*
X180195089Y-99783160D01*
X180284860Y-99448295D01*
X180307576Y-99102350D01*
X180262366Y-98758620D01*
X180150966Y-98430315D01*
X180041714Y-98225921D01*
X179764531Y-98115074D01*
X178719605Y-99160000D01*
X178360395Y-99160000D01*
X177315469Y-98115074D01*
X177038286Y-98225921D01*
X176884911Y-98536840D01*
X176795140Y-98871705D01*
X176772424Y-99217650D01*
X175220004Y-99217650D01*
X175227576Y-99102350D01*
X175182366Y-98758620D01*
X175070966Y-98430315D01*
X174961714Y-98225921D01*
X174684531Y-98115074D01*
X173639605Y-99160000D01*
X173280395Y-99160000D01*
X172235469Y-98115074D01*
X171958286Y-98225921D01*
X171804911Y-98536840D01*
X171715140Y-98871705D01*
X171692424Y-99217650D01*
X167807024Y-99217650D01*
X167800925Y-97935469D01*
X172415074Y-97935469D01*
X173460000Y-98980395D01*
X174504926Y-97935469D01*
X177495074Y-97935469D01*
X178540000Y-98980395D01*
X179584926Y-97935469D01*
X179474079Y-97658286D01*
X179163160Y-97504911D01*
X178828295Y-97415140D01*
X178482350Y-97392424D01*
X178138620Y-97437634D01*
X177810315Y-97549034D01*
X177605921Y-97658286D01*
X177495074Y-97935469D01*
X174504926Y-97935469D01*
X174394079Y-97658286D01*
X174083160Y-97504911D01*
X173748295Y-97415140D01*
X173402350Y-97392424D01*
X173058620Y-97437634D01*
X172730315Y-97549034D01*
X172525921Y-97658286D01*
X172415074Y-97935469D01*
X167800925Y-97935469D01*
X167785246Y-94640000D01*
X184760001Y-94640000D01*
X184760001Y-108560000D01*
X184760001Y-108560000D01*
G37*
X184760001Y-108560000D02*
X167851469Y-108560000D01*
X167836744Y-105464531D01*
X172415074Y-105464531D01*
X172525921Y-105741714D01*
X172836840Y-105895089D01*
X173171705Y-105984860D01*
X173517650Y-106007576D01*
X173861380Y-105962366D01*
X174189685Y-105850966D01*
X174394079Y-105741714D01*
X174504926Y-105464531D01*
X177495074Y-105464531D01*
X177605921Y-105741714D01*
X177916840Y-105895089D01*
X178251705Y-105984860D01*
X178597650Y-106007576D01*
X178941380Y-105962366D01*
X179269685Y-105850966D01*
X179474079Y-105741714D01*
X179584926Y-105464531D01*
X178540000Y-104419605D01*
X177495074Y-105464531D01*
X174504926Y-105464531D01*
X173460000Y-104419605D01*
X172415074Y-105464531D01*
X167836744Y-105464531D01*
X167831192Y-104297650D01*
X171692424Y-104297650D01*
X171737634Y-104641380D01*
X171849034Y-104969685D01*
X171958286Y-105174079D01*
X172235469Y-105284926D01*
X173280395Y-104240000D01*
X173639605Y-104240000D01*
X174684531Y-105284926D01*
X174961714Y-105174079D01*
X175115089Y-104863160D01*
X175204860Y-104528295D01*
X175220004Y-104297650D01*
X176772424Y-104297650D01*
X176817634Y-104641380D01*
X176929034Y-104969685D01*
X177038286Y-105174079D01*
X177315469Y-105284926D01*
X178360395Y-104240000D01*
X178719605Y-104240000D01*
X179764531Y-105284926D01*
X180041714Y-105174079D01*
X180195089Y-104863160D01*
X180284860Y-104528295D01*
X180307576Y-104182350D01*
X180262366Y-103838620D01*
X180150966Y-103510315D01*
X180041714Y-103305921D01*
X179764531Y-103195074D01*
X178719605Y-104240000D01*
X178360395Y-104240000D01*
X177315469Y-103195074D01*
X177038286Y-103305921D01*
X176884911Y-103616840D01*
X176795140Y-103951705D01*
X176772424Y-104297650D01*
X175220004Y-104297650D01*
X175227576Y-104182350D01*
X175182366Y-103838620D01*
X175070966Y-103510315D01*
X174961714Y-103305921D01*
X174684531Y-103195074D01*
X173639605Y-104240000D01*
X173280395Y-104240000D01*
X172235469Y-103195074D01*
X171958286Y-103305921D01*
X171804911Y-103616840D01*
X171715140Y-103951705D01*
X171692424Y-104297650D01*
X167831192Y-104297650D01*
X167826932Y-103402318D01*
X167973000Y-103256250D01*
X167973000Y-102612000D01*
X168227000Y-102612000D01*
X168227000Y-103256250D01*
X168385750Y-103415000D01*
X168420000Y-103418072D01*
X168544482Y-103405812D01*
X168664180Y-103369502D01*
X168774494Y-103310537D01*
X168871185Y-103231185D01*
X168950537Y-103134494D01*
X169009502Y-103024180D01*
X169045812Y-102904482D01*
X169058072Y-102780000D01*
X169055000Y-102770750D01*
X169049250Y-102765000D01*
X170241928Y-102765000D01*
X170254188Y-102889482D01*
X170290498Y-103009180D01*
X170349463Y-103119494D01*
X170428815Y-103216185D01*
X170525506Y-103295537D01*
X170635820Y-103354502D01*
X170755518Y-103390812D01*
X170880000Y-103403072D01*
X170914250Y-103400000D01*
X171073000Y-103241250D01*
X171073000Y-102597000D01*
X171327000Y-102597000D01*
X171327000Y-103241250D01*
X171485750Y-103400000D01*
X171520000Y-103403072D01*
X171644482Y-103390812D01*
X171764180Y-103354502D01*
X171874494Y-103295537D01*
X171971185Y-103216185D01*
X172050537Y-103119494D01*
X172106140Y-103015469D01*
X172415074Y-103015469D01*
X173460000Y-104060395D01*
X174504926Y-103015469D01*
X174394079Y-102738286D01*
X174083160Y-102584911D01*
X173748295Y-102495140D01*
X173402350Y-102472424D01*
X173058620Y-102517634D01*
X172730315Y-102629034D01*
X172525921Y-102738286D01*
X172415074Y-103015469D01*
X172106140Y-103015469D01*
X172109502Y-103009180D01*
X172145812Y-102889482D01*
X172158072Y-102765000D01*
X172155000Y-102755750D01*
X171996250Y-102597000D01*
X171327000Y-102597000D01*
X171073000Y-102597000D01*
X170403750Y-102597000D01*
X170245000Y-102755750D01*
X170241928Y-102765000D01*
X169049250Y-102765000D01*
X168896250Y-102612000D01*
X168227000Y-102612000D01*
X167973000Y-102612000D01*
X167953000Y-102612000D01*
X167953000Y-102470040D01*
X169053083Y-102470040D01*
X169100000Y-102474661D01*
X169146917Y-102470040D01*
X169287221Y-102456221D01*
X169290071Y-102455356D01*
X169415757Y-102442977D01*
X169563125Y-102398274D01*
X169600000Y-102378564D01*
X169636875Y-102398274D01*
X169784243Y-102442977D01*
X169937500Y-102458072D01*
X170232500Y-102458072D01*
X170263283Y-102455040D01*
X174515977Y-102455040D01*
X174528927Y-102486305D01*
X174710594Y-102758188D01*
X174941812Y-102989406D01*
X175213695Y-103171073D01*
X175515796Y-103296207D01*
X175836504Y-103360000D01*
X176163496Y-103360000D01*
X176484204Y-103296207D01*
X176786305Y-103171073D01*
X177019182Y-103015469D01*
X177495074Y-103015469D01*
X178540000Y-104060395D01*
X179584926Y-103015469D01*
X179474079Y-102738286D01*
X179163160Y-102584911D01*
X178828295Y-102495140D01*
X178482350Y-102472424D01*
X178138620Y-102517634D01*
X177810315Y-102629034D01*
X177605921Y-102738286D01*
X177495074Y-103015469D01*
X177019182Y-103015469D01*
X177058188Y-102989406D01*
X177289406Y-102758188D01*
X177471073Y-102486305D01*
X177596207Y-102184204D01*
X177660000Y-101863496D01*
X177660000Y-101536504D01*
X177596207Y-101215796D01*
X177471073Y-100913695D01*
X177289406Y-100641812D01*
X177058188Y-100410594D01*
X177019183Y-100384531D01*
X177495074Y-100384531D01*
X177605921Y-100661714D01*
X177916840Y-100815089D01*
X178251705Y-100904860D01*
X178597650Y-100927576D01*
X178941380Y-100882366D01*
X179269685Y-100770966D01*
X179474079Y-100661714D01*
X179584926Y-100384531D01*
X178540000Y-99339605D01*
X177495074Y-100384531D01*
X177019183Y-100384531D01*
X176786305Y-100228927D01*
X176484204Y-100103793D01*
X176163496Y-100040000D01*
X175836504Y-100040000D01*
X175515796Y-100103793D01*
X175213695Y-100228927D01*
X174941812Y-100410594D01*
X174807446Y-100544960D01*
X174440770Y-100544960D01*
X174504926Y-100384531D01*
X173460000Y-99339605D01*
X172415074Y-100384531D01*
X172479230Y-100544960D01*
X170263283Y-100544960D01*
X170232500Y-100541928D01*
X169937500Y-100541928D01*
X169784243Y-100557023D01*
X169636875Y-100601726D01*
X169600000Y-100621436D01*
X169563125Y-100601726D01*
X169415757Y-100557023D01*
X169262500Y-100541928D01*
X169131132Y-100541928D01*
X169114999Y-100540339D01*
X169098866Y-100541928D01*
X168967500Y-100541928D01*
X168814243Y-100557023D01*
X168804561Y-100559960D01*
X167831368Y-100559960D01*
X167824324Y-100556151D01*
X167813363Y-100550125D01*
X167807024Y-99217650D01*
X171692424Y-99217650D01*
X171737634Y-99561380D01*
X171849034Y-99889685D01*
X171958286Y-100094079D01*
X172235469Y-100204926D01*
X173280395Y-99160000D01*
X173639605Y-99160000D01*
X174684531Y-100204926D01*
X174961714Y-100094079D01*
X175115089Y-99783160D01*
X175204860Y-99448295D01*
X175220004Y-99217650D01*
X176772424Y-99217650D01*
X176817634Y-99561380D01*
X176929034Y-99889685D01*
X177038286Y-100094079D01*
X177315469Y-100204926D01*
X178360395Y-99160000D01*
X178719605Y-99160000D01*
X179764531Y-100204926D01*
X180041714Y-100094079D01*
X180195089Y-99783160D01*
X180284860Y-99448295D01*
X180307576Y-99102350D01*
X180262366Y-98758620D01*
X180150966Y-98430315D01*
X180041714Y-98225921D01*
X179764531Y-98115074D01*
X178719605Y-99160000D01*
X178360395Y-99160000D01*
X177315469Y-98115074D01*
X177038286Y-98225921D01*
X176884911Y-98536840D01*
X176795140Y-98871705D01*
X176772424Y-99217650D01*
X175220004Y-99217650D01*
X175227576Y-99102350D01*
X175182366Y-98758620D01*
X175070966Y-98430315D01*
X174961714Y-98225921D01*
X174684531Y-98115074D01*
X173639605Y-99160000D01*
X173280395Y-99160000D01*
X172235469Y-98115074D01*
X171958286Y-98225921D01*
X171804911Y-98536840D01*
X171715140Y-98871705D01*
X171692424Y-99217650D01*
X167807024Y-99217650D01*
X167800925Y-97935469D01*
X172415074Y-97935469D01*
X173460000Y-98980395D01*
X174504926Y-97935469D01*
X177495074Y-97935469D01*
X178540000Y-98980395D01*
X179584926Y-97935469D01*
X179474079Y-97658286D01*
X179163160Y-97504911D01*
X178828295Y-97415140D01*
X178482350Y-97392424D01*
X178138620Y-97437634D01*
X177810315Y-97549034D01*
X177605921Y-97658286D01*
X177495074Y-97935469D01*
X174504926Y-97935469D01*
X174394079Y-97658286D01*
X174083160Y-97504911D01*
X173748295Y-97415140D01*
X173402350Y-97392424D01*
X173058620Y-97437634D01*
X172730315Y-97549034D01*
X172525921Y-97658286D01*
X172415074Y-97935469D01*
X167800925Y-97935469D01*
X167785246Y-94640000D01*
X184760001Y-94640000D01*
X184760001Y-108560000D01*
G36*
X184760001Y-93320000D02*
G01*
X167778966Y-93320000D01*
X167765858Y-90564531D01*
X172815074Y-90564531D01*
X172925921Y-90841714D01*
X173236840Y-90995089D01*
X173571705Y-91084860D01*
X173917650Y-91107576D01*
X174261380Y-91062366D01*
X174589685Y-90950966D01*
X174794079Y-90841714D01*
X174904926Y-90564531D01*
X177895074Y-90564531D01*
X178005921Y-90841714D01*
X178316840Y-90995089D01*
X178651705Y-91084860D01*
X178997650Y-91107576D01*
X179341380Y-91062366D01*
X179669685Y-90950966D01*
X179874079Y-90841714D01*
X179984926Y-90564531D01*
X178940000Y-89519605D01*
X177895074Y-90564531D01*
X174904926Y-90564531D01*
X173860000Y-89519605D01*
X172815074Y-90564531D01*
X167765858Y-90564531D01*
X167756239Y-88542751D01*
X167828815Y-88631185D01*
X167925506Y-88710537D01*
X168035820Y-88769502D01*
X168155518Y-88805812D01*
X168280000Y-88818072D01*
X168314250Y-88815000D01*
X168473000Y-88656250D01*
X168473000Y-88012000D01*
X168727000Y-88012000D01*
X168727000Y-88656250D01*
X168885750Y-88815000D01*
X168920000Y-88818072D01*
X169044482Y-88805812D01*
X169164180Y-88769502D01*
X169274494Y-88710537D01*
X169371185Y-88631185D01*
X169450537Y-88534494D01*
X169509502Y-88424180D01*
X169545812Y-88304482D01*
X169558072Y-88180000D01*
X170641928Y-88180000D01*
X170654188Y-88304482D01*
X170690498Y-88424180D01*
X170749463Y-88534494D01*
X170828815Y-88631185D01*
X170925506Y-88710537D01*
X171035820Y-88769502D01*
X171155518Y-88805812D01*
X171280000Y-88818072D01*
X171314250Y-88815000D01*
X171473000Y-88656250D01*
X171473000Y-88012000D01*
X171727000Y-88012000D01*
X171727000Y-88656250D01*
X171885750Y-88815000D01*
X171920000Y-88818072D01*
X172044482Y-88805812D01*
X172164180Y-88769502D01*
X172195245Y-88752897D01*
X172115140Y-89051705D01*
X172092424Y-89397650D01*
X172137634Y-89741380D01*
X172249034Y-90069685D01*
X172358286Y-90274079D01*
X172635469Y-90384926D01*
X173680395Y-89340000D01*
X174039605Y-89340000D01*
X175084531Y-90384926D01*
X175361714Y-90274079D01*
X175515089Y-89963160D01*
X175604860Y-89628295D01*
X175620004Y-89397650D01*
X177172424Y-89397650D01*
X177217634Y-89741380D01*
X177329034Y-90069685D01*
X177438286Y-90274079D01*
X177715469Y-90384926D01*
X178760395Y-89340000D01*
X179119605Y-89340000D01*
X180164531Y-90384926D01*
X180441714Y-90274079D01*
X180595089Y-89963160D01*
X180684860Y-89628295D01*
X180707576Y-89282350D01*
X180662366Y-88938620D01*
X180550966Y-88610315D01*
X180441714Y-88405921D01*
X180164531Y-88295074D01*
X179119605Y-89340000D01*
X178760395Y-89340000D01*
X177715469Y-88295074D01*
X177438286Y-88405921D01*
X177284911Y-88716840D01*
X177195140Y-89051705D01*
X177172424Y-89397650D01*
X175620004Y-89397650D01*
X175627576Y-89282350D01*
X175582366Y-88938620D01*
X175470966Y-88610315D01*
X175361714Y-88405921D01*
X175084531Y-88295074D01*
X174039605Y-89340000D01*
X173680395Y-89340000D01*
X172635469Y-88295074D01*
X172536682Y-88334579D01*
X172545812Y-88304482D01*
X172558072Y-88180000D01*
X172555000Y-88170750D01*
X172396250Y-88012000D01*
X171727000Y-88012000D01*
X171473000Y-88012000D01*
X170803750Y-88012000D01*
X170645000Y-88170750D01*
X170641928Y-88180000D01*
X169558072Y-88180000D01*
X169555000Y-88170750D01*
X169396250Y-88012000D01*
X168727000Y-88012000D01*
X168473000Y-88012000D01*
X168453000Y-88012000D01*
X168453000Y-87870040D01*
X168553083Y-87870040D01*
X168600000Y-87874661D01*
X168646917Y-87870040D01*
X168787221Y-87856221D01*
X168791114Y-87855040D01*
X169421717Y-87855040D01*
X169452500Y-87858072D01*
X169747500Y-87858072D01*
X169900757Y-87842977D01*
X170048125Y-87798274D01*
X170085000Y-87778564D01*
X170121875Y-87798274D01*
X170269243Y-87842977D01*
X170394929Y-87855356D01*
X170397779Y-87856221D01*
X170454189Y-87861777D01*
X170509117Y-87867187D01*
X170538083Y-87870040D01*
X170584999Y-87874661D01*
X170631916Y-87870040D01*
X171646917Y-87870040D01*
X171787221Y-87856221D01*
X171834079Y-87842007D01*
X171925757Y-87832977D01*
X172073125Y-87788274D01*
X172129763Y-87758000D01*
X172396250Y-87758000D01*
X172399210Y-87755040D01*
X173081662Y-87755040D01*
X172925921Y-87838286D01*
X172815074Y-88115469D01*
X173860000Y-89160395D01*
X174904926Y-88115469D01*
X174794079Y-87838286D01*
X174625324Y-87755040D01*
X175041672Y-87755040D01*
X175110594Y-87858188D01*
X175341812Y-88089406D01*
X175613695Y-88271073D01*
X175915796Y-88396207D01*
X176236504Y-88460000D01*
X176563496Y-88460000D01*
X176884204Y-88396207D01*
X177186305Y-88271073D01*
X177419182Y-88115469D01*
X177895074Y-88115469D01*
X178940000Y-89160395D01*
X179984926Y-88115469D01*
X179874079Y-87838286D01*
X179563160Y-87684911D01*
X179228295Y-87595140D01*
X178882350Y-87572424D01*
X178538620Y-87617634D01*
X178210315Y-87729034D01*
X178005921Y-87838286D01*
X177895074Y-88115469D01*
X177419182Y-88115469D01*
X177458188Y-88089406D01*
X177689406Y-87858188D01*
X177871073Y-87586305D01*
X177996207Y-87284204D01*
X178060000Y-86963496D01*
X178060000Y-86636504D01*
X177996207Y-86315796D01*
X177871073Y-86013695D01*
X177689406Y-85741812D01*
X177458188Y-85510594D01*
X177419183Y-85484531D01*
X177895074Y-85484531D01*
X178005921Y-85761714D01*
X178316840Y-85915089D01*
X178651705Y-86004860D01*
X178997650Y-86027576D01*
X179341380Y-85982366D01*
X179669685Y-85870966D01*
X179874079Y-85761714D01*
X179984926Y-85484531D01*
X178940000Y-84439605D01*
X177895074Y-85484531D01*
X177419183Y-85484531D01*
X177186305Y-85328927D01*
X176884204Y-85203793D01*
X176563496Y-85140000D01*
X176236504Y-85140000D01*
X175915796Y-85203793D01*
X175613695Y-85328927D01*
X175341812Y-85510594D01*
X175110594Y-85741812D01*
X175041672Y-85844960D01*
X174638338Y-85844960D01*
X174794079Y-85761714D01*
X174904926Y-85484531D01*
X173860000Y-84439605D01*
X172815074Y-85484531D01*
X172925921Y-85761714D01*
X173094676Y-85844960D01*
X171661916Y-85844960D01*
X171614999Y-85840339D01*
X171554742Y-85846274D01*
X171427779Y-85858779D01*
X171247754Y-85913389D01*
X171160625Y-85959960D01*
X170880439Y-85959960D01*
X170870757Y-85957023D01*
X170717500Y-85941928D01*
X170586133Y-85941928D01*
X170570000Y-85940339D01*
X170553867Y-85941928D01*
X170422500Y-85941928D01*
X170269243Y-85957023D01*
X170121875Y-86001726D01*
X170085000Y-86021436D01*
X170048125Y-86001726D01*
X169900757Y-85957023D01*
X169747500Y-85941928D01*
X169452500Y-85941928D01*
X169421717Y-85944960D01*
X168661916Y-85944960D01*
X168614999Y-85940339D01*
X168525783Y-85949126D01*
X168427779Y-85958779D01*
X168423886Y-85959960D01*
X168189137Y-85959960D01*
X168180172Y-85952438D01*
X168164139Y-85935245D01*
X168132434Y-85912381D01*
X168102496Y-85887260D01*
X168081895Y-85875934D01*
X168062829Y-85862185D01*
X168027296Y-85845918D01*
X167993040Y-85827086D01*
X167970630Y-85819977D01*
X167949257Y-85810193D01*
X167911236Y-85801137D01*
X167873980Y-85789319D01*
X167850616Y-85786698D01*
X167827751Y-85781252D01*
X167788705Y-85779753D01*
X167749853Y-85775395D01*
X167743074Y-85775348D01*
X167736140Y-84317650D01*
X172092424Y-84317650D01*
X172137634Y-84661380D01*
X172249034Y-84989685D01*
X172358286Y-85194079D01*
X172635469Y-85304926D01*
X173680395Y-84260000D01*
X174039605Y-84260000D01*
X175084531Y-85304926D01*
X175361714Y-85194079D01*
X175515089Y-84883160D01*
X175604860Y-84548295D01*
X175620004Y-84317650D01*
X177172424Y-84317650D01*
X177217634Y-84661380D01*
X177329034Y-84989685D01*
X177438286Y-85194079D01*
X177715469Y-85304926D01*
X178760395Y-84260000D01*
X179119605Y-84260000D01*
X180164531Y-85304926D01*
X180441714Y-85194079D01*
X180595089Y-84883160D01*
X180684860Y-84548295D01*
X180707576Y-84202350D01*
X180662366Y-83858620D01*
X180550966Y-83530315D01*
X180441714Y-83325921D01*
X180164531Y-83215074D01*
X179119605Y-84260000D01*
X178760395Y-84260000D01*
X177715469Y-83215074D01*
X177438286Y-83325921D01*
X177284911Y-83636840D01*
X177195140Y-83971705D01*
X177172424Y-84317650D01*
X175620004Y-84317650D01*
X175627576Y-84202350D01*
X175582366Y-83858620D01*
X175470966Y-83530315D01*
X175361714Y-83325921D01*
X175084531Y-83215074D01*
X174039605Y-84260000D01*
X173680395Y-84260000D01*
X172635469Y-83215074D01*
X172358286Y-83325921D01*
X172204911Y-83636840D01*
X172115140Y-83971705D01*
X172092424Y-84317650D01*
X167736140Y-84317650D01*
X167730040Y-83035469D01*
X172815074Y-83035469D01*
X173860000Y-84080395D01*
X174904926Y-83035469D01*
X177895074Y-83035469D01*
X178940000Y-84080395D01*
X179984926Y-83035469D01*
X179874079Y-82758286D01*
X179563160Y-82604911D01*
X179228295Y-82515140D01*
X178882350Y-82492424D01*
X178538620Y-82537634D01*
X178210315Y-82649034D01*
X178005921Y-82758286D01*
X177895074Y-83035469D01*
X174904926Y-83035469D01*
X174794079Y-82758286D01*
X174483160Y-82604911D01*
X174148295Y-82515140D01*
X173802350Y-82492424D01*
X173458620Y-82537634D01*
X173130315Y-82649034D01*
X172925921Y-82758286D01*
X172815074Y-83035469D01*
X167730040Y-83035469D01*
X167712744Y-79400000D01*
X184760000Y-79400000D01*
X184760001Y-93320000D01*
X184760001Y-93320000D01*
G37*
X184760001Y-93320000D02*
X167778966Y-93320000D01*
X167765858Y-90564531D01*
X172815074Y-90564531D01*
X172925921Y-90841714D01*
X173236840Y-90995089D01*
X173571705Y-91084860D01*
X173917650Y-91107576D01*
X174261380Y-91062366D01*
X174589685Y-90950966D01*
X174794079Y-90841714D01*
X174904926Y-90564531D01*
X177895074Y-90564531D01*
X178005921Y-90841714D01*
X178316840Y-90995089D01*
X178651705Y-91084860D01*
X178997650Y-91107576D01*
X179341380Y-91062366D01*
X179669685Y-90950966D01*
X179874079Y-90841714D01*
X179984926Y-90564531D01*
X178940000Y-89519605D01*
X177895074Y-90564531D01*
X174904926Y-90564531D01*
X173860000Y-89519605D01*
X172815074Y-90564531D01*
X167765858Y-90564531D01*
X167756239Y-88542751D01*
X167828815Y-88631185D01*
X167925506Y-88710537D01*
X168035820Y-88769502D01*
X168155518Y-88805812D01*
X168280000Y-88818072D01*
X168314250Y-88815000D01*
X168473000Y-88656250D01*
X168473000Y-88012000D01*
X168727000Y-88012000D01*
X168727000Y-88656250D01*
X168885750Y-88815000D01*
X168920000Y-88818072D01*
X169044482Y-88805812D01*
X169164180Y-88769502D01*
X169274494Y-88710537D01*
X169371185Y-88631185D01*
X169450537Y-88534494D01*
X169509502Y-88424180D01*
X169545812Y-88304482D01*
X169558072Y-88180000D01*
X170641928Y-88180000D01*
X170654188Y-88304482D01*
X170690498Y-88424180D01*
X170749463Y-88534494D01*
X170828815Y-88631185D01*
X170925506Y-88710537D01*
X171035820Y-88769502D01*
X171155518Y-88805812D01*
X171280000Y-88818072D01*
X171314250Y-88815000D01*
X171473000Y-88656250D01*
X171473000Y-88012000D01*
X171727000Y-88012000D01*
X171727000Y-88656250D01*
X171885750Y-88815000D01*
X171920000Y-88818072D01*
X172044482Y-88805812D01*
X172164180Y-88769502D01*
X172195245Y-88752897D01*
X172115140Y-89051705D01*
X172092424Y-89397650D01*
X172137634Y-89741380D01*
X172249034Y-90069685D01*
X172358286Y-90274079D01*
X172635469Y-90384926D01*
X173680395Y-89340000D01*
X174039605Y-89340000D01*
X175084531Y-90384926D01*
X175361714Y-90274079D01*
X175515089Y-89963160D01*
X175604860Y-89628295D01*
X175620004Y-89397650D01*
X177172424Y-89397650D01*
X177217634Y-89741380D01*
X177329034Y-90069685D01*
X177438286Y-90274079D01*
X177715469Y-90384926D01*
X178760395Y-89340000D01*
X179119605Y-89340000D01*
X180164531Y-90384926D01*
X180441714Y-90274079D01*
X180595089Y-89963160D01*
X180684860Y-89628295D01*
X180707576Y-89282350D01*
X180662366Y-88938620D01*
X180550966Y-88610315D01*
X180441714Y-88405921D01*
X180164531Y-88295074D01*
X179119605Y-89340000D01*
X178760395Y-89340000D01*
X177715469Y-88295074D01*
X177438286Y-88405921D01*
X177284911Y-88716840D01*
X177195140Y-89051705D01*
X177172424Y-89397650D01*
X175620004Y-89397650D01*
X175627576Y-89282350D01*
X175582366Y-88938620D01*
X175470966Y-88610315D01*
X175361714Y-88405921D01*
X175084531Y-88295074D01*
X174039605Y-89340000D01*
X173680395Y-89340000D01*
X172635469Y-88295074D01*
X172536682Y-88334579D01*
X172545812Y-88304482D01*
X172558072Y-88180000D01*
X172555000Y-88170750D01*
X172396250Y-88012000D01*
X171727000Y-88012000D01*
X171473000Y-88012000D01*
X170803750Y-88012000D01*
X170645000Y-88170750D01*
X170641928Y-88180000D01*
X169558072Y-88180000D01*
X169555000Y-88170750D01*
X169396250Y-88012000D01*
X168727000Y-88012000D01*
X168473000Y-88012000D01*
X168453000Y-88012000D01*
X168453000Y-87870040D01*
X168553083Y-87870040D01*
X168600000Y-87874661D01*
X168646917Y-87870040D01*
X168787221Y-87856221D01*
X168791114Y-87855040D01*
X169421717Y-87855040D01*
X169452500Y-87858072D01*
X169747500Y-87858072D01*
X169900757Y-87842977D01*
X170048125Y-87798274D01*
X170085000Y-87778564D01*
X170121875Y-87798274D01*
X170269243Y-87842977D01*
X170394929Y-87855356D01*
X170397779Y-87856221D01*
X170454189Y-87861777D01*
X170509117Y-87867187D01*
X170538083Y-87870040D01*
X170584999Y-87874661D01*
X170631916Y-87870040D01*
X171646917Y-87870040D01*
X171787221Y-87856221D01*
X171834079Y-87842007D01*
X171925757Y-87832977D01*
X172073125Y-87788274D01*
X172129763Y-87758000D01*
X172396250Y-87758000D01*
X172399210Y-87755040D01*
X173081662Y-87755040D01*
X172925921Y-87838286D01*
X172815074Y-88115469D01*
X173860000Y-89160395D01*
X174904926Y-88115469D01*
X174794079Y-87838286D01*
X174625324Y-87755040D01*
X175041672Y-87755040D01*
X175110594Y-87858188D01*
X175341812Y-88089406D01*
X175613695Y-88271073D01*
X175915796Y-88396207D01*
X176236504Y-88460000D01*
X176563496Y-88460000D01*
X176884204Y-88396207D01*
X177186305Y-88271073D01*
X177419182Y-88115469D01*
X177895074Y-88115469D01*
X178940000Y-89160395D01*
X179984926Y-88115469D01*
X179874079Y-87838286D01*
X179563160Y-87684911D01*
X179228295Y-87595140D01*
X178882350Y-87572424D01*
X178538620Y-87617634D01*
X178210315Y-87729034D01*
X178005921Y-87838286D01*
X177895074Y-88115469D01*
X177419182Y-88115469D01*
X177458188Y-88089406D01*
X177689406Y-87858188D01*
X177871073Y-87586305D01*
X177996207Y-87284204D01*
X178060000Y-86963496D01*
X178060000Y-86636504D01*
X177996207Y-86315796D01*
X177871073Y-86013695D01*
X177689406Y-85741812D01*
X177458188Y-85510594D01*
X177419183Y-85484531D01*
X177895074Y-85484531D01*
X178005921Y-85761714D01*
X178316840Y-85915089D01*
X178651705Y-86004860D01*
X178997650Y-86027576D01*
X179341380Y-85982366D01*
X179669685Y-85870966D01*
X179874079Y-85761714D01*
X179984926Y-85484531D01*
X178940000Y-84439605D01*
X177895074Y-85484531D01*
X177419183Y-85484531D01*
X177186305Y-85328927D01*
X176884204Y-85203793D01*
X176563496Y-85140000D01*
X176236504Y-85140000D01*
X175915796Y-85203793D01*
X175613695Y-85328927D01*
X175341812Y-85510594D01*
X175110594Y-85741812D01*
X175041672Y-85844960D01*
X174638338Y-85844960D01*
X174794079Y-85761714D01*
X174904926Y-85484531D01*
X173860000Y-84439605D01*
X172815074Y-85484531D01*
X172925921Y-85761714D01*
X173094676Y-85844960D01*
X171661916Y-85844960D01*
X171614999Y-85840339D01*
X171554742Y-85846274D01*
X171427779Y-85858779D01*
X171247754Y-85913389D01*
X171160625Y-85959960D01*
X170880439Y-85959960D01*
X170870757Y-85957023D01*
X170717500Y-85941928D01*
X170586133Y-85941928D01*
X170570000Y-85940339D01*
X170553867Y-85941928D01*
X170422500Y-85941928D01*
X170269243Y-85957023D01*
X170121875Y-86001726D01*
X170085000Y-86021436D01*
X170048125Y-86001726D01*
X169900757Y-85957023D01*
X169747500Y-85941928D01*
X169452500Y-85941928D01*
X169421717Y-85944960D01*
X168661916Y-85944960D01*
X168614999Y-85940339D01*
X168525783Y-85949126D01*
X168427779Y-85958779D01*
X168423886Y-85959960D01*
X168189137Y-85959960D01*
X168180172Y-85952438D01*
X168164139Y-85935245D01*
X168132434Y-85912381D01*
X168102496Y-85887260D01*
X168081895Y-85875934D01*
X168062829Y-85862185D01*
X168027296Y-85845918D01*
X167993040Y-85827086D01*
X167970630Y-85819977D01*
X167949257Y-85810193D01*
X167911236Y-85801137D01*
X167873980Y-85789319D01*
X167850616Y-85786698D01*
X167827751Y-85781252D01*
X167788705Y-85779753D01*
X167749853Y-85775395D01*
X167743074Y-85775348D01*
X167736140Y-84317650D01*
X172092424Y-84317650D01*
X172137634Y-84661380D01*
X172249034Y-84989685D01*
X172358286Y-85194079D01*
X172635469Y-85304926D01*
X173680395Y-84260000D01*
X174039605Y-84260000D01*
X175084531Y-85304926D01*
X175361714Y-85194079D01*
X175515089Y-84883160D01*
X175604860Y-84548295D01*
X175620004Y-84317650D01*
X177172424Y-84317650D01*
X177217634Y-84661380D01*
X177329034Y-84989685D01*
X177438286Y-85194079D01*
X177715469Y-85304926D01*
X178760395Y-84260000D01*
X179119605Y-84260000D01*
X180164531Y-85304926D01*
X180441714Y-85194079D01*
X180595089Y-84883160D01*
X180684860Y-84548295D01*
X180707576Y-84202350D01*
X180662366Y-83858620D01*
X180550966Y-83530315D01*
X180441714Y-83325921D01*
X180164531Y-83215074D01*
X179119605Y-84260000D01*
X178760395Y-84260000D01*
X177715469Y-83215074D01*
X177438286Y-83325921D01*
X177284911Y-83636840D01*
X177195140Y-83971705D01*
X177172424Y-84317650D01*
X175620004Y-84317650D01*
X175627576Y-84202350D01*
X175582366Y-83858620D01*
X175470966Y-83530315D01*
X175361714Y-83325921D01*
X175084531Y-83215074D01*
X174039605Y-84260000D01*
X173680395Y-84260000D01*
X172635469Y-83215074D01*
X172358286Y-83325921D01*
X172204911Y-83636840D01*
X172115140Y-83971705D01*
X172092424Y-84317650D01*
X167736140Y-84317650D01*
X167730040Y-83035469D01*
X172815074Y-83035469D01*
X173860000Y-84080395D01*
X174904926Y-83035469D01*
X177895074Y-83035469D01*
X178940000Y-84080395D01*
X179984926Y-83035469D01*
X179874079Y-82758286D01*
X179563160Y-82604911D01*
X179228295Y-82515140D01*
X178882350Y-82492424D01*
X178538620Y-82537634D01*
X178210315Y-82649034D01*
X178005921Y-82758286D01*
X177895074Y-83035469D01*
X174904926Y-83035469D01*
X174794079Y-82758286D01*
X174483160Y-82604911D01*
X174148295Y-82515140D01*
X173802350Y-82492424D01*
X173458620Y-82537634D01*
X173130315Y-82649034D01*
X172925921Y-82758286D01*
X172815074Y-83035469D01*
X167730040Y-83035469D01*
X167712744Y-79400000D01*
X184760000Y-79400000D01*
X184760001Y-93320000D01*
G36*
X184760000Y-78080000D02*
G01*
X167706464Y-78080000D01*
X167687504Y-74094531D01*
X172615074Y-74094531D01*
X172725921Y-74371714D01*
X173036840Y-74525089D01*
X173371705Y-74614860D01*
X173717650Y-74637576D01*
X174061380Y-74592366D01*
X174389685Y-74480966D01*
X174594079Y-74371714D01*
X174704926Y-74094531D01*
X177695074Y-74094531D01*
X177805921Y-74371714D01*
X178116840Y-74525089D01*
X178451705Y-74614860D01*
X178797650Y-74637576D01*
X179141380Y-74592366D01*
X179469685Y-74480966D01*
X179674079Y-74371714D01*
X179784926Y-74094531D01*
X178740000Y-73049605D01*
X177695074Y-74094531D01*
X174704926Y-74094531D01*
X173660000Y-73049605D01*
X172615074Y-74094531D01*
X167687504Y-74094531D01*
X167678022Y-72101568D01*
X167725506Y-72140537D01*
X167835820Y-72199502D01*
X167955518Y-72235812D01*
X168080000Y-72248072D01*
X168114250Y-72245000D01*
X168273000Y-72086250D01*
X168273000Y-71450447D01*
X168283505Y-71442000D01*
X168527000Y-71442000D01*
X168527000Y-72086250D01*
X168685750Y-72245000D01*
X168720000Y-72248072D01*
X168844482Y-72235812D01*
X168964180Y-72199502D01*
X169074494Y-72140537D01*
X169171185Y-72061185D01*
X169250537Y-71964494D01*
X169309502Y-71854180D01*
X169345812Y-71734482D01*
X169358072Y-71610000D01*
X170441928Y-71610000D01*
X170454188Y-71734482D01*
X170490498Y-71854180D01*
X170549463Y-71964494D01*
X170628815Y-72061185D01*
X170725506Y-72140537D01*
X170835820Y-72199502D01*
X170955518Y-72235812D01*
X171080000Y-72248072D01*
X171114250Y-72245000D01*
X171273000Y-72086250D01*
X171273000Y-71442000D01*
X171527000Y-71442000D01*
X171527000Y-72086250D01*
X171685750Y-72245000D01*
X171720000Y-72248072D01*
X171844482Y-72235812D01*
X171964180Y-72199502D01*
X172051211Y-72152982D01*
X172004911Y-72246840D01*
X171915140Y-72581705D01*
X171892424Y-72927650D01*
X171937634Y-73271380D01*
X172049034Y-73599685D01*
X172158286Y-73804079D01*
X172435469Y-73914926D01*
X173480395Y-72870000D01*
X173839605Y-72870000D01*
X174884531Y-73914926D01*
X175161714Y-73804079D01*
X175315089Y-73493160D01*
X175404860Y-73158295D01*
X175420004Y-72927650D01*
X176972424Y-72927650D01*
X177017634Y-73271380D01*
X177129034Y-73599685D01*
X177238286Y-73804079D01*
X177515469Y-73914926D01*
X178560395Y-72870000D01*
X178919605Y-72870000D01*
X179964531Y-73914926D01*
X180241714Y-73804079D01*
X180395089Y-73493160D01*
X180484860Y-73158295D01*
X180507576Y-72812350D01*
X180462366Y-72468620D01*
X180350966Y-72140315D01*
X180241714Y-71935921D01*
X179964531Y-71825074D01*
X178919605Y-72870000D01*
X178560395Y-72870000D01*
X177515469Y-71825074D01*
X177238286Y-71935921D01*
X177084911Y-72246840D01*
X176995140Y-72581705D01*
X176972424Y-72927650D01*
X175420004Y-72927650D01*
X175427576Y-72812350D01*
X175382366Y-72468620D01*
X175270966Y-72140315D01*
X175161714Y-71935921D01*
X174884531Y-71825074D01*
X173839605Y-72870000D01*
X173480395Y-72870000D01*
X172435469Y-71825074D01*
X172295043Y-71881231D01*
X172309502Y-71854180D01*
X172345812Y-71734482D01*
X172358072Y-71610000D01*
X172355000Y-71600750D01*
X172196250Y-71442000D01*
X171527000Y-71442000D01*
X171273000Y-71442000D01*
X170603750Y-71442000D01*
X170445000Y-71600750D01*
X170441928Y-71610000D01*
X169358072Y-71610000D01*
X169355000Y-71600750D01*
X169196250Y-71442000D01*
X168527000Y-71442000D01*
X168283505Y-71442000D01*
X168290936Y-71436026D01*
X168339184Y-71397453D01*
X168339757Y-71396773D01*
X168340452Y-71396215D01*
X168380110Y-71348952D01*
X168419069Y-71302783D01*
X168446917Y-71300040D01*
X168587221Y-71286221D01*
X168591114Y-71285040D01*
X169236717Y-71285040D01*
X169267500Y-71288072D01*
X169562500Y-71288072D01*
X169715757Y-71272977D01*
X169863125Y-71228274D01*
X169900000Y-71208564D01*
X169936875Y-71228274D01*
X170084243Y-71272977D01*
X170209929Y-71285356D01*
X170212779Y-71286221D01*
X170353083Y-71300040D01*
X170399999Y-71304661D01*
X170446916Y-71300040D01*
X171353083Y-71300040D01*
X171400000Y-71304661D01*
X171446917Y-71300040D01*
X171587221Y-71286221D01*
X171591114Y-71285040D01*
X172881662Y-71285040D01*
X172725921Y-71368286D01*
X172615074Y-71645469D01*
X173660000Y-72690395D01*
X174704926Y-71645469D01*
X174594079Y-71368286D01*
X174425324Y-71285040D01*
X174841672Y-71285040D01*
X174910594Y-71388188D01*
X175141812Y-71619406D01*
X175413695Y-71801073D01*
X175715796Y-71926207D01*
X176036504Y-71990000D01*
X176363496Y-71990000D01*
X176684204Y-71926207D01*
X176986305Y-71801073D01*
X177219182Y-71645469D01*
X177695074Y-71645469D01*
X178740000Y-72690395D01*
X179784926Y-71645469D01*
X179674079Y-71368286D01*
X179363160Y-71214911D01*
X179028295Y-71125140D01*
X178682350Y-71102424D01*
X178338620Y-71147634D01*
X178010315Y-71259034D01*
X177805921Y-71368286D01*
X177695074Y-71645469D01*
X177219182Y-71645469D01*
X177258188Y-71619406D01*
X177489406Y-71388188D01*
X177671073Y-71116305D01*
X177796207Y-70814204D01*
X177860000Y-70493496D01*
X177860000Y-70166504D01*
X177796207Y-69845796D01*
X177671073Y-69543695D01*
X177489406Y-69271812D01*
X177258188Y-69040594D01*
X177219183Y-69014531D01*
X177695074Y-69014531D01*
X177805921Y-69291714D01*
X178116840Y-69445089D01*
X178451705Y-69534860D01*
X178797650Y-69557576D01*
X179141380Y-69512366D01*
X179469685Y-69400966D01*
X179674079Y-69291714D01*
X179784926Y-69014531D01*
X178740000Y-67969605D01*
X177695074Y-69014531D01*
X177219183Y-69014531D01*
X176986305Y-68858927D01*
X176684204Y-68733793D01*
X176363496Y-68670000D01*
X176036504Y-68670000D01*
X175715796Y-68733793D01*
X175413695Y-68858927D01*
X175141812Y-69040594D01*
X174910594Y-69271812D01*
X174841672Y-69374960D01*
X174438338Y-69374960D01*
X174594079Y-69291714D01*
X174704926Y-69014531D01*
X173660000Y-67969605D01*
X172615074Y-69014531D01*
X172725921Y-69291714D01*
X172894676Y-69374960D01*
X171461916Y-69374960D01*
X171414999Y-69370339D01*
X171334741Y-69378244D01*
X171227779Y-69388779D01*
X171223886Y-69389960D01*
X170695439Y-69389960D01*
X170685757Y-69387023D01*
X170532500Y-69371928D01*
X170401133Y-69371928D01*
X170385000Y-69370339D01*
X170368867Y-69371928D01*
X170237500Y-69371928D01*
X170084243Y-69387023D01*
X169936875Y-69431726D01*
X169900000Y-69451436D01*
X169863125Y-69431726D01*
X169715757Y-69387023D01*
X169562500Y-69371928D01*
X169267500Y-69371928D01*
X169236717Y-69374960D01*
X168461916Y-69374960D01*
X168414999Y-69370339D01*
X168351817Y-69376562D01*
X168349930Y-69374215D01*
X168348208Y-69372770D01*
X168346792Y-69371034D01*
X168300463Y-69332707D01*
X168254246Y-69293927D01*
X168252276Y-69292844D01*
X168250550Y-69291416D01*
X168197658Y-69262817D01*
X168144790Y-69233753D01*
X168142647Y-69233073D01*
X168140677Y-69232008D01*
X168083162Y-69214204D01*
X168025730Y-69195986D01*
X168023502Y-69195736D01*
X168021357Y-69195072D01*
X167961490Y-69188780D01*
X167901603Y-69182062D01*
X167897288Y-69182032D01*
X167897135Y-69182016D01*
X167896982Y-69182030D01*
X167892667Y-69182000D01*
X167664133Y-69182000D01*
X167657785Y-67847650D01*
X171892424Y-67847650D01*
X171937634Y-68191380D01*
X172049034Y-68519685D01*
X172158286Y-68724079D01*
X172435469Y-68834926D01*
X173480395Y-67790000D01*
X173839605Y-67790000D01*
X174884531Y-68834926D01*
X175161714Y-68724079D01*
X175315089Y-68413160D01*
X175404860Y-68078295D01*
X175420004Y-67847650D01*
X176972424Y-67847650D01*
X177017634Y-68191380D01*
X177129034Y-68519685D01*
X177238286Y-68724079D01*
X177515469Y-68834926D01*
X178560395Y-67790000D01*
X178919605Y-67790000D01*
X179964531Y-68834926D01*
X180241714Y-68724079D01*
X180395089Y-68413160D01*
X180484860Y-68078295D01*
X180507576Y-67732350D01*
X180462366Y-67388620D01*
X180350966Y-67060315D01*
X180241714Y-66855921D01*
X179964531Y-66745074D01*
X178919605Y-67790000D01*
X178560395Y-67790000D01*
X177515469Y-66745074D01*
X177238286Y-66855921D01*
X177084911Y-67166840D01*
X176995140Y-67501705D01*
X176972424Y-67847650D01*
X175420004Y-67847650D01*
X175427576Y-67732350D01*
X175382366Y-67388620D01*
X175270966Y-67060315D01*
X175161714Y-66855921D01*
X174884531Y-66745074D01*
X173839605Y-67790000D01*
X173480395Y-67790000D01*
X172435469Y-66745074D01*
X172158286Y-66855921D01*
X172004911Y-67166840D01*
X171915140Y-67501705D01*
X171892424Y-67847650D01*
X167657785Y-67847650D01*
X167651686Y-66565469D01*
X172615074Y-66565469D01*
X173660000Y-67610395D01*
X174704926Y-66565469D01*
X177695074Y-66565469D01*
X178740000Y-67610395D01*
X179784926Y-66565469D01*
X179674079Y-66288286D01*
X179363160Y-66134911D01*
X179028295Y-66045140D01*
X178682350Y-66022424D01*
X178338620Y-66067634D01*
X178010315Y-66179034D01*
X177805921Y-66288286D01*
X177695074Y-66565469D01*
X174704926Y-66565469D01*
X174594079Y-66288286D01*
X174283160Y-66134911D01*
X173948295Y-66045140D01*
X173602350Y-66022424D01*
X173258620Y-66067634D01*
X172930315Y-66179034D01*
X172725921Y-66288286D01*
X172615074Y-66565469D01*
X167651686Y-66565469D01*
X167640241Y-64160000D01*
X184760000Y-64160000D01*
X184760000Y-78080000D01*
X184760000Y-78080000D01*
G37*
X184760000Y-78080000D02*
X167706464Y-78080000D01*
X167687504Y-74094531D01*
X172615074Y-74094531D01*
X172725921Y-74371714D01*
X173036840Y-74525089D01*
X173371705Y-74614860D01*
X173717650Y-74637576D01*
X174061380Y-74592366D01*
X174389685Y-74480966D01*
X174594079Y-74371714D01*
X174704926Y-74094531D01*
X177695074Y-74094531D01*
X177805921Y-74371714D01*
X178116840Y-74525089D01*
X178451705Y-74614860D01*
X178797650Y-74637576D01*
X179141380Y-74592366D01*
X179469685Y-74480966D01*
X179674079Y-74371714D01*
X179784926Y-74094531D01*
X178740000Y-73049605D01*
X177695074Y-74094531D01*
X174704926Y-74094531D01*
X173660000Y-73049605D01*
X172615074Y-74094531D01*
X167687504Y-74094531D01*
X167678022Y-72101568D01*
X167725506Y-72140537D01*
X167835820Y-72199502D01*
X167955518Y-72235812D01*
X168080000Y-72248072D01*
X168114250Y-72245000D01*
X168273000Y-72086250D01*
X168273000Y-71450447D01*
X168283505Y-71442000D01*
X168527000Y-71442000D01*
X168527000Y-72086250D01*
X168685750Y-72245000D01*
X168720000Y-72248072D01*
X168844482Y-72235812D01*
X168964180Y-72199502D01*
X169074494Y-72140537D01*
X169171185Y-72061185D01*
X169250537Y-71964494D01*
X169309502Y-71854180D01*
X169345812Y-71734482D01*
X169358072Y-71610000D01*
X170441928Y-71610000D01*
X170454188Y-71734482D01*
X170490498Y-71854180D01*
X170549463Y-71964494D01*
X170628815Y-72061185D01*
X170725506Y-72140537D01*
X170835820Y-72199502D01*
X170955518Y-72235812D01*
X171080000Y-72248072D01*
X171114250Y-72245000D01*
X171273000Y-72086250D01*
X171273000Y-71442000D01*
X171527000Y-71442000D01*
X171527000Y-72086250D01*
X171685750Y-72245000D01*
X171720000Y-72248072D01*
X171844482Y-72235812D01*
X171964180Y-72199502D01*
X172051211Y-72152982D01*
X172004911Y-72246840D01*
X171915140Y-72581705D01*
X171892424Y-72927650D01*
X171937634Y-73271380D01*
X172049034Y-73599685D01*
X172158286Y-73804079D01*
X172435469Y-73914926D01*
X173480395Y-72870000D01*
X173839605Y-72870000D01*
X174884531Y-73914926D01*
X175161714Y-73804079D01*
X175315089Y-73493160D01*
X175404860Y-73158295D01*
X175420004Y-72927650D01*
X176972424Y-72927650D01*
X177017634Y-73271380D01*
X177129034Y-73599685D01*
X177238286Y-73804079D01*
X177515469Y-73914926D01*
X178560395Y-72870000D01*
X178919605Y-72870000D01*
X179964531Y-73914926D01*
X180241714Y-73804079D01*
X180395089Y-73493160D01*
X180484860Y-73158295D01*
X180507576Y-72812350D01*
X180462366Y-72468620D01*
X180350966Y-72140315D01*
X180241714Y-71935921D01*
X179964531Y-71825074D01*
X178919605Y-72870000D01*
X178560395Y-72870000D01*
X177515469Y-71825074D01*
X177238286Y-71935921D01*
X177084911Y-72246840D01*
X176995140Y-72581705D01*
X176972424Y-72927650D01*
X175420004Y-72927650D01*
X175427576Y-72812350D01*
X175382366Y-72468620D01*
X175270966Y-72140315D01*
X175161714Y-71935921D01*
X174884531Y-71825074D01*
X173839605Y-72870000D01*
X173480395Y-72870000D01*
X172435469Y-71825074D01*
X172295043Y-71881231D01*
X172309502Y-71854180D01*
X172345812Y-71734482D01*
X172358072Y-71610000D01*
X172355000Y-71600750D01*
X172196250Y-71442000D01*
X171527000Y-71442000D01*
X171273000Y-71442000D01*
X170603750Y-71442000D01*
X170445000Y-71600750D01*
X170441928Y-71610000D01*
X169358072Y-71610000D01*
X169355000Y-71600750D01*
X169196250Y-71442000D01*
X168527000Y-71442000D01*
X168283505Y-71442000D01*
X168290936Y-71436026D01*
X168339184Y-71397453D01*
X168339757Y-71396773D01*
X168340452Y-71396215D01*
X168380110Y-71348952D01*
X168419069Y-71302783D01*
X168446917Y-71300040D01*
X168587221Y-71286221D01*
X168591114Y-71285040D01*
X169236717Y-71285040D01*
X169267500Y-71288072D01*
X169562500Y-71288072D01*
X169715757Y-71272977D01*
X169863125Y-71228274D01*
X169900000Y-71208564D01*
X169936875Y-71228274D01*
X170084243Y-71272977D01*
X170209929Y-71285356D01*
X170212779Y-71286221D01*
X170353083Y-71300040D01*
X170399999Y-71304661D01*
X170446916Y-71300040D01*
X171353083Y-71300040D01*
X171400000Y-71304661D01*
X171446917Y-71300040D01*
X171587221Y-71286221D01*
X171591114Y-71285040D01*
X172881662Y-71285040D01*
X172725921Y-71368286D01*
X172615074Y-71645469D01*
X173660000Y-72690395D01*
X174704926Y-71645469D01*
X174594079Y-71368286D01*
X174425324Y-71285040D01*
X174841672Y-71285040D01*
X174910594Y-71388188D01*
X175141812Y-71619406D01*
X175413695Y-71801073D01*
X175715796Y-71926207D01*
X176036504Y-71990000D01*
X176363496Y-71990000D01*
X176684204Y-71926207D01*
X176986305Y-71801073D01*
X177219182Y-71645469D01*
X177695074Y-71645469D01*
X178740000Y-72690395D01*
X179784926Y-71645469D01*
X179674079Y-71368286D01*
X179363160Y-71214911D01*
X179028295Y-71125140D01*
X178682350Y-71102424D01*
X178338620Y-71147634D01*
X178010315Y-71259034D01*
X177805921Y-71368286D01*
X177695074Y-71645469D01*
X177219182Y-71645469D01*
X177258188Y-71619406D01*
X177489406Y-71388188D01*
X177671073Y-71116305D01*
X177796207Y-70814204D01*
X177860000Y-70493496D01*
X177860000Y-70166504D01*
X177796207Y-69845796D01*
X177671073Y-69543695D01*
X177489406Y-69271812D01*
X177258188Y-69040594D01*
X177219183Y-69014531D01*
X177695074Y-69014531D01*
X177805921Y-69291714D01*
X178116840Y-69445089D01*
X178451705Y-69534860D01*
X178797650Y-69557576D01*
X179141380Y-69512366D01*
X179469685Y-69400966D01*
X179674079Y-69291714D01*
X179784926Y-69014531D01*
X178740000Y-67969605D01*
X177695074Y-69014531D01*
X177219183Y-69014531D01*
X176986305Y-68858927D01*
X176684204Y-68733793D01*
X176363496Y-68670000D01*
X176036504Y-68670000D01*
X175715796Y-68733793D01*
X175413695Y-68858927D01*
X175141812Y-69040594D01*
X174910594Y-69271812D01*
X174841672Y-69374960D01*
X174438338Y-69374960D01*
X174594079Y-69291714D01*
X174704926Y-69014531D01*
X173660000Y-67969605D01*
X172615074Y-69014531D01*
X172725921Y-69291714D01*
X172894676Y-69374960D01*
X171461916Y-69374960D01*
X171414999Y-69370339D01*
X171334741Y-69378244D01*
X171227779Y-69388779D01*
X171223886Y-69389960D01*
X170695439Y-69389960D01*
X170685757Y-69387023D01*
X170532500Y-69371928D01*
X170401133Y-69371928D01*
X170385000Y-69370339D01*
X170368867Y-69371928D01*
X170237500Y-69371928D01*
X170084243Y-69387023D01*
X169936875Y-69431726D01*
X169900000Y-69451436D01*
X169863125Y-69431726D01*
X169715757Y-69387023D01*
X169562500Y-69371928D01*
X169267500Y-69371928D01*
X169236717Y-69374960D01*
X168461916Y-69374960D01*
X168414999Y-69370339D01*
X168351817Y-69376562D01*
X168349930Y-69374215D01*
X168348208Y-69372770D01*
X168346792Y-69371034D01*
X168300463Y-69332707D01*
X168254246Y-69293927D01*
X168252276Y-69292844D01*
X168250550Y-69291416D01*
X168197658Y-69262817D01*
X168144790Y-69233753D01*
X168142647Y-69233073D01*
X168140677Y-69232008D01*
X168083162Y-69214204D01*
X168025730Y-69195986D01*
X168023502Y-69195736D01*
X168021357Y-69195072D01*
X167961490Y-69188780D01*
X167901603Y-69182062D01*
X167897288Y-69182032D01*
X167897135Y-69182016D01*
X167896982Y-69182030D01*
X167892667Y-69182000D01*
X167664133Y-69182000D01*
X167657785Y-67847650D01*
X171892424Y-67847650D01*
X171937634Y-68191380D01*
X172049034Y-68519685D01*
X172158286Y-68724079D01*
X172435469Y-68834926D01*
X173480395Y-67790000D01*
X173839605Y-67790000D01*
X174884531Y-68834926D01*
X175161714Y-68724079D01*
X175315089Y-68413160D01*
X175404860Y-68078295D01*
X175420004Y-67847650D01*
X176972424Y-67847650D01*
X177017634Y-68191380D01*
X177129034Y-68519685D01*
X177238286Y-68724079D01*
X177515469Y-68834926D01*
X178560395Y-67790000D01*
X178919605Y-67790000D01*
X179964531Y-68834926D01*
X180241714Y-68724079D01*
X180395089Y-68413160D01*
X180484860Y-68078295D01*
X180507576Y-67732350D01*
X180462366Y-67388620D01*
X180350966Y-67060315D01*
X180241714Y-66855921D01*
X179964531Y-66745074D01*
X178919605Y-67790000D01*
X178560395Y-67790000D01*
X177515469Y-66745074D01*
X177238286Y-66855921D01*
X177084911Y-67166840D01*
X176995140Y-67501705D01*
X176972424Y-67847650D01*
X175420004Y-67847650D01*
X175427576Y-67732350D01*
X175382366Y-67388620D01*
X175270966Y-67060315D01*
X175161714Y-66855921D01*
X174884531Y-66745074D01*
X173839605Y-67790000D01*
X173480395Y-67790000D01*
X172435469Y-66745074D01*
X172158286Y-66855921D01*
X172004911Y-67166840D01*
X171915140Y-67501705D01*
X171892424Y-67847650D01*
X167657785Y-67847650D01*
X167651686Y-66565469D01*
X172615074Y-66565469D01*
X173660000Y-67610395D01*
X174704926Y-66565469D01*
X177695074Y-66565469D01*
X178740000Y-67610395D01*
X179784926Y-66565469D01*
X179674079Y-66288286D01*
X179363160Y-66134911D01*
X179028295Y-66045140D01*
X178682350Y-66022424D01*
X178338620Y-66067634D01*
X178010315Y-66179034D01*
X177805921Y-66288286D01*
X177695074Y-66565469D01*
X174704926Y-66565469D01*
X174594079Y-66288286D01*
X174283160Y-66134911D01*
X173948295Y-66045140D01*
X173602350Y-66022424D01*
X173258620Y-66067634D01*
X172930315Y-66179034D01*
X172725921Y-66288286D01*
X172615074Y-66565469D01*
X167651686Y-66565469D01*
X167640241Y-64160000D01*
X184760000Y-64160000D01*
X184760000Y-78080000D01*
M02*
